M48
; DRILL file {KiCad (5.1.12)-1} date 01/09/26 19:55:03
; FORMAT={-:-/ absolute / metric / decimal}
; #@! TF.CreationDate,2026-01-09T19:55:03+05:30
; #@! TF.GenerationSoftware,Kicad,Pcbnew,(5.1.12)-1
; #@! TF.FileFunction,Plated,1,2,PTH
FMAT,2
METRIC
T1C0.350
T2C0.400
T3C0.600
T4C1.000
%
G90
G05
T1
X139.395Y-114.525
X139.395Y-115.8
X139.395Y-117.075
X140.67Y-114.525
X140.67Y-115.8
X140.67Y-117.075
X141.945Y-114.525
X141.945Y-115.8
X141.945Y-117.075
T2
X115.6Y-121.1
X117.5Y-119.1
X128.2Y-85.7
X130.4Y-70.8
X134.0Y-86.9
X135.5Y-74.7
X137.3Y-123.4
X137.9Y-85.9
X140.85Y-107.95
X141.17Y-111.2
X141.2Y-83.7
X141.554Y-118.157
X141.77Y-120.5
X141.77Y-121.5
X141.8Y-123.4
X141.9Y-104.5
X142.2Y-110.7
X142.827Y-113.811
X143.0Y-118.2
X144.4Y-101.9
X144.422Y-111.798
X145.5Y-113.2
X147.5Y-127.9
X147.7Y-131.0
X150.2Y-72.7
X150.3Y-111.8
X150.7Y-91.9
X152.5Y-96.0
X154.1Y-104.1
X155.2Y-107.2
X156.6Y-105.9
X159.1Y-84.2
X160.6Y-110.4
X160.8Y-69.4
X161.9Y-74.9
X162.5Y-67.7
X165.3Y-100.2
X174.2Y-107.6
X176.3Y-110.9
X178.1Y-105.5
X179.0Y-116.8
T4
X112.1Y-124.2
X114.64Y-124.2
X117.18Y-124.2
X118.3Y-66.04
X118.3Y-68.58
X118.3Y-71.12
X118.3Y-73.66
X118.3Y-76.2
X118.3Y-78.74
X118.3Y-81.28
X118.3Y-83.82
X118.3Y-86.36
X118.3Y-88.9
X118.3Y-91.44
X118.3Y-93.98
X118.3Y-96.52
X118.3Y-99.06
X118.3Y-101.6
X118.3Y-104.14
X118.3Y-106.68
X118.3Y-109.22
X118.3Y-111.76
X118.3Y-114.3
X167.9Y-79.92
X167.9Y-82.46
X167.9Y-85.0
X167.9Y-87.54
X167.9Y-90.08
X167.9Y-92.62
X167.9Y-95.16
X167.9Y-97.7
X167.9Y-100.24
X167.9Y-102.78
X167.9Y-105.32
X167.9Y-107.86
X167.9Y-110.4
X167.9Y-112.94
X167.9Y-115.48
X167.9Y-118.02
X167.9Y-120.56
X167.9Y-123.1
X167.9Y-125.64
X167.9Y-128.18
T3
G00X171.88Y-122.82
M15
G01X171.88Y-123.92
M16
G05
G00X171.88Y-127.25
M15
G01X171.88Y-127.85
M16
G05
G00X180.52Y-122.82
M15
G01X180.52Y-123.92
M16
G05
G00X180.52Y-127.25
M15
G01X180.52Y-127.85
M16
G05
T0
M30
