%TF.GenerationSoftware,KiCad,Pcbnew,(5.1.12)-1*%
%TF.CreationDate,2026-01-09T19:54:51+05:30*%
%TF.ProjectId,Aniket_Board,416e696b-6574-45f4-926f-6172642e6b69,rev?*%
%TF.SameCoordinates,Original*%
%TF.FileFunction,Legend,Bot*%
%TF.FilePolarity,Positive*%
%FSLAX46Y46*%
G04 Gerber Fmt 4.6, Leading zero omitted, Abs format (unit mm)*
G04 Created by KiCad (PCBNEW (5.1.12)-1) date 2026-01-09 19:54:51*
%MOMM*%
%LPD*%
G01*
G04 APERTURE LIST*
%ADD10C,0.125000*%
%ADD11C,0.150000*%
%ADD12C,0.700000*%
%ADD13C,0.120000*%
G04 APERTURE END LIST*
D10*
X109978571Y-124302380D02*
X109907142Y-124326190D01*
X109788095Y-124326190D01*
X109740476Y-124302380D01*
X109716666Y-124278571D01*
X109692857Y-124230952D01*
X109692857Y-124183333D01*
X109716666Y-124135714D01*
X109740476Y-124111904D01*
X109788095Y-124088095D01*
X109883333Y-124064285D01*
X109930952Y-124040476D01*
X109954761Y-124016666D01*
X109978571Y-123969047D01*
X109978571Y-123921428D01*
X109954761Y-123873809D01*
X109930952Y-123850000D01*
X109883333Y-123826190D01*
X109764285Y-123826190D01*
X109692857Y-123850000D01*
X109526190Y-123826190D02*
X109407142Y-124326190D01*
X109311904Y-123969047D01*
X109216666Y-124326190D01*
X109097619Y-123826190D01*
X108907142Y-124326190D02*
X108907142Y-123826190D01*
X108788095Y-123826190D01*
X108716666Y-123850000D01*
X108669047Y-123897619D01*
X108645238Y-123945238D01*
X108621428Y-124040476D01*
X108621428Y-124111904D01*
X108645238Y-124207142D01*
X108669047Y-124254761D01*
X108716666Y-124302380D01*
X108788095Y-124326190D01*
X108907142Y-124326190D01*
D11*
X133757142Y-118957142D02*
X132042857Y-118957142D01*
X132900000Y-121957142D02*
X132900000Y-118957142D01*
X129900000Y-121814285D02*
X130185714Y-121957142D01*
X130757142Y-121957142D01*
X131042857Y-121814285D01*
X131185714Y-121528571D01*
X131185714Y-120385714D01*
X131042857Y-120100000D01*
X130757142Y-119957142D01*
X130185714Y-119957142D01*
X129900000Y-120100000D01*
X129757142Y-120385714D01*
X129757142Y-120671428D01*
X131185714Y-120957142D01*
X127185714Y-121814285D02*
X127471428Y-121957142D01*
X128042857Y-121957142D01*
X128328571Y-121814285D01*
X128471428Y-121671428D01*
X128614285Y-121385714D01*
X128614285Y-120528571D01*
X128471428Y-120242857D01*
X128328571Y-120100000D01*
X128042857Y-119957142D01*
X127471428Y-119957142D01*
X127185714Y-120100000D01*
X125900000Y-121957142D02*
X125900000Y-118957142D01*
X124614285Y-121957142D02*
X124614285Y-120385714D01*
X124757142Y-120100000D01*
X125042857Y-119957142D01*
X125471428Y-119957142D01*
X125757142Y-120100000D01*
X125900000Y-120242857D01*
X123185714Y-119957142D02*
X123185714Y-121957142D01*
X123185714Y-120242857D02*
X123042857Y-120100000D01*
X122757142Y-119957142D01*
X122328571Y-119957142D01*
X122042857Y-120100000D01*
X121900000Y-120385714D01*
X121900000Y-121957142D01*
X119328571Y-121814285D02*
X119614285Y-121957142D01*
X120185714Y-121957142D01*
X120471428Y-121814285D01*
X120614285Y-121528571D01*
X120614285Y-120385714D01*
X120471428Y-120100000D01*
X120185714Y-119957142D01*
X119614285Y-119957142D01*
X119328571Y-120100000D01*
X119185714Y-120385714D01*
X119185714Y-120671428D01*
X120614285Y-120957142D01*
X118328571Y-119957142D02*
X117185714Y-119957142D01*
X117900000Y-118957142D02*
X117900000Y-121528571D01*
X117757142Y-121814285D01*
X117471428Y-121957142D01*
X117185714Y-121957142D01*
X116185714Y-121957142D02*
X116185714Y-119957142D01*
X116185714Y-118957142D02*
X116328571Y-119100000D01*
X116185714Y-119242857D01*
X116042857Y-119100000D01*
X116185714Y-118957142D01*
X116185714Y-119242857D01*
X113471428Y-119957142D02*
X113471428Y-121957142D01*
X114757142Y-119957142D02*
X114757142Y-121528571D01*
X114614285Y-121814285D01*
X114328571Y-121957142D01*
X113900000Y-121957142D01*
X113614285Y-121814285D01*
X113471428Y-121671428D01*
X112042857Y-121957142D02*
X112042857Y-119957142D01*
X112042857Y-120242857D02*
X111900000Y-120100000D01*
X111614285Y-119957142D01*
X111185714Y-119957142D01*
X110900000Y-120100000D01*
X110757142Y-120385714D01*
X110757142Y-121957142D01*
X110757142Y-120385714D02*
X110614285Y-120100000D01*
X110328571Y-119957142D01*
X109900000Y-119957142D01*
X109614285Y-120100000D01*
X109471428Y-120385714D01*
X109471428Y-121957142D01*
X145185714Y-95747619D02*
X145138095Y-95700000D01*
X145042857Y-95652380D01*
X144804761Y-95652380D01*
X144709523Y-95700000D01*
X144661904Y-95747619D01*
X144614285Y-95842857D01*
X144614285Y-95938095D01*
X144661904Y-96080952D01*
X145233333Y-96652380D01*
X144614285Y-96652380D01*
D12*
X157914285Y-97885714D02*
X156914285Y-97885714D01*
X156485714Y-99457142D02*
X157914285Y-99457142D01*
X157914285Y-96457142D01*
X156485714Y-96457142D01*
X155200000Y-97885714D02*
X152914285Y-97885714D01*
X152914285Y-98742857D02*
X155200000Y-98742857D01*
X151485714Y-99457142D02*
X151485714Y-96457142D01*
X150485714Y-98600000D01*
X149485714Y-96457142D01*
X149485714Y-99457142D01*
X146342857Y-99171428D02*
X146485714Y-99314285D01*
X146914285Y-99457142D01*
X147200000Y-99457142D01*
X147628571Y-99314285D01*
X147914285Y-99028571D01*
X148057142Y-98742857D01*
X148200000Y-98171428D01*
X148200000Y-97742857D01*
X148057142Y-97171428D01*
X147914285Y-96885714D01*
X147628571Y-96600000D01*
X147200000Y-96457142D01*
X146914285Y-96457142D01*
X146485714Y-96600000D01*
X146342857Y-96742857D01*
D11*
X149057142Y-73852380D02*
X149057142Y-72852380D01*
X148628571Y-73852380D02*
X148628571Y-73328571D01*
X148676190Y-73233333D01*
X148771428Y-73185714D01*
X148914285Y-73185714D01*
X149009523Y-73233333D01*
X149057142Y-73280952D01*
X148295238Y-73185714D02*
X147914285Y-73185714D01*
X148152380Y-72852380D02*
X148152380Y-73709523D01*
X148104761Y-73804761D01*
X148009523Y-73852380D01*
X147914285Y-73852380D01*
X147723809Y-73185714D02*
X147342857Y-73185714D01*
X147580952Y-72852380D02*
X147580952Y-73709523D01*
X147533333Y-73804761D01*
X147438095Y-73852380D01*
X147342857Y-73852380D01*
X147009523Y-73185714D02*
X147009523Y-74185714D01*
X147009523Y-73233333D02*
X146914285Y-73185714D01*
X146723809Y-73185714D01*
X146628571Y-73233333D01*
X146580952Y-73280952D01*
X146533333Y-73376190D01*
X146533333Y-73661904D01*
X146580952Y-73757142D01*
X146628571Y-73804761D01*
X146723809Y-73852380D01*
X146914285Y-73852380D01*
X147009523Y-73804761D01*
X146152380Y-73804761D02*
X146057142Y-73852380D01*
X145866666Y-73852380D01*
X145771428Y-73804761D01*
X145723809Y-73709523D01*
X145723809Y-73661904D01*
X145771428Y-73566666D01*
X145866666Y-73519047D01*
X146009523Y-73519047D01*
X146104761Y-73471428D01*
X146152380Y-73376190D01*
X146152380Y-73328571D01*
X146104761Y-73233333D01*
X146009523Y-73185714D01*
X145866666Y-73185714D01*
X145771428Y-73233333D01*
X145295238Y-73757142D02*
X145247619Y-73804761D01*
X145295238Y-73852380D01*
X145342857Y-73804761D01*
X145295238Y-73757142D01*
X145295238Y-73852380D01*
X145295238Y-73233333D02*
X145247619Y-73280952D01*
X145295238Y-73328571D01*
X145342857Y-73280952D01*
X145295238Y-73233333D01*
X145295238Y-73328571D01*
X144104761Y-72804761D02*
X144961904Y-74090476D01*
X143057142Y-72804761D02*
X143914285Y-74090476D01*
X142295238Y-73185714D02*
X142295238Y-73995238D01*
X142342857Y-74090476D01*
X142390476Y-74138095D01*
X142485714Y-74185714D01*
X142628571Y-74185714D01*
X142723809Y-74138095D01*
X142295238Y-73804761D02*
X142390476Y-73852380D01*
X142580952Y-73852380D01*
X142676190Y-73804761D01*
X142723809Y-73757142D01*
X142771428Y-73661904D01*
X142771428Y-73376190D01*
X142723809Y-73280952D01*
X142676190Y-73233333D01*
X142580952Y-73185714D01*
X142390476Y-73185714D01*
X142295238Y-73233333D01*
X141819047Y-73852380D02*
X141819047Y-73185714D01*
X141819047Y-72852380D02*
X141866666Y-72900000D01*
X141819047Y-72947619D01*
X141771428Y-72900000D01*
X141819047Y-72852380D01*
X141819047Y-72947619D01*
X141485714Y-73185714D02*
X141104761Y-73185714D01*
X141342857Y-72852380D02*
X141342857Y-73709523D01*
X141295238Y-73804761D01*
X141200000Y-73852380D01*
X141104761Y-73852380D01*
X140771428Y-73852380D02*
X140771428Y-72852380D01*
X140342857Y-73852380D02*
X140342857Y-73328571D01*
X140390476Y-73233333D01*
X140485714Y-73185714D01*
X140628571Y-73185714D01*
X140723809Y-73233333D01*
X140771428Y-73280952D01*
X139438095Y-73185714D02*
X139438095Y-73852380D01*
X139866666Y-73185714D02*
X139866666Y-73709523D01*
X139819047Y-73804761D01*
X139723809Y-73852380D01*
X139580952Y-73852380D01*
X139485714Y-73804761D01*
X139438095Y-73757142D01*
X138961904Y-73852380D02*
X138961904Y-72852380D01*
X138961904Y-73233333D02*
X138866666Y-73185714D01*
X138676190Y-73185714D01*
X138580952Y-73233333D01*
X138533333Y-73280952D01*
X138485714Y-73376190D01*
X138485714Y-73661904D01*
X138533333Y-73757142D01*
X138580952Y-73804761D01*
X138676190Y-73852380D01*
X138866666Y-73852380D01*
X138961904Y-73804761D01*
X138057142Y-73757142D02*
X138009523Y-73804761D01*
X138057142Y-73852380D01*
X138104761Y-73804761D01*
X138057142Y-73757142D01*
X138057142Y-73852380D01*
X137152380Y-73804761D02*
X137247619Y-73852380D01*
X137438095Y-73852380D01*
X137533333Y-73804761D01*
X137580952Y-73757142D01*
X137628571Y-73661904D01*
X137628571Y-73376190D01*
X137580952Y-73280952D01*
X137533333Y-73233333D01*
X137438095Y-73185714D01*
X137247619Y-73185714D01*
X137152380Y-73233333D01*
X136580952Y-73852380D02*
X136676190Y-73804761D01*
X136723809Y-73757142D01*
X136771428Y-73661904D01*
X136771428Y-73376190D01*
X136723809Y-73280952D01*
X136676190Y-73233333D01*
X136580952Y-73185714D01*
X136438095Y-73185714D01*
X136342857Y-73233333D01*
X136295238Y-73280952D01*
X136247619Y-73376190D01*
X136247619Y-73661904D01*
X136295238Y-73757142D01*
X136342857Y-73804761D01*
X136438095Y-73852380D01*
X136580952Y-73852380D01*
X135819047Y-73852380D02*
X135819047Y-73185714D01*
X135819047Y-73280952D02*
X135771428Y-73233333D01*
X135676190Y-73185714D01*
X135533333Y-73185714D01*
X135438095Y-73233333D01*
X135390476Y-73328571D01*
X135390476Y-73852380D01*
X135390476Y-73328571D02*
X135342857Y-73233333D01*
X135247619Y-73185714D01*
X135104761Y-73185714D01*
X135009523Y-73233333D01*
X134961904Y-73328571D01*
X134961904Y-73852380D01*
X133771428Y-72804761D02*
X134628571Y-74090476D01*
X133009523Y-73852380D02*
X133009523Y-73328571D01*
X133057142Y-73233333D01*
X133152380Y-73185714D01*
X133342857Y-73185714D01*
X133438095Y-73233333D01*
X133009523Y-73804761D02*
X133104761Y-73852380D01*
X133342857Y-73852380D01*
X133438095Y-73804761D01*
X133485714Y-73709523D01*
X133485714Y-73614285D01*
X133438095Y-73519047D01*
X133342857Y-73471428D01*
X133104761Y-73471428D01*
X133009523Y-73423809D01*
X132533333Y-73185714D02*
X132533333Y-73852380D01*
X132533333Y-73280952D02*
X132485714Y-73233333D01*
X132390476Y-73185714D01*
X132247619Y-73185714D01*
X132152380Y-73233333D01*
X132104761Y-73328571D01*
X132104761Y-73852380D01*
X131628571Y-73852380D02*
X131628571Y-73185714D01*
X131628571Y-72852380D02*
X131676190Y-72900000D01*
X131628571Y-72947619D01*
X131580952Y-72900000D01*
X131628571Y-72852380D01*
X131628571Y-72947619D01*
X131152380Y-73852380D02*
X131152380Y-72852380D01*
X131057142Y-73471428D02*
X130771428Y-73852380D01*
X130771428Y-73185714D02*
X131152380Y-73566666D01*
X129961904Y-73804761D02*
X130057142Y-73852380D01*
X130247619Y-73852380D01*
X130342857Y-73804761D01*
X130390476Y-73709523D01*
X130390476Y-73328571D01*
X130342857Y-73233333D01*
X130247619Y-73185714D01*
X130057142Y-73185714D01*
X129961904Y-73233333D01*
X129914285Y-73328571D01*
X129914285Y-73423809D01*
X130390476Y-73519047D01*
X129628571Y-73185714D02*
X129247619Y-73185714D01*
X129485714Y-72852380D02*
X129485714Y-73709523D01*
X129438095Y-73804761D01*
X129342857Y-73852380D01*
X129247619Y-73852380D01*
X128914285Y-73471428D02*
X128152380Y-73471428D01*
X127676190Y-73852380D02*
X127676190Y-72852380D01*
X127580952Y-73471428D02*
X127295238Y-73852380D01*
X127295238Y-73185714D02*
X127676190Y-73566666D01*
X126438095Y-73185714D02*
X126438095Y-73852380D01*
X126866666Y-73185714D02*
X126866666Y-73709523D01*
X126819047Y-73804761D01*
X126723809Y-73852380D01*
X126580952Y-73852380D01*
X126485714Y-73804761D01*
X126438095Y-73757142D01*
X125961904Y-73852380D02*
X125961904Y-73185714D01*
X125961904Y-73280952D02*
X125914285Y-73233333D01*
X125819047Y-73185714D01*
X125676190Y-73185714D01*
X125580952Y-73233333D01*
X125533333Y-73328571D01*
X125533333Y-73852380D01*
X125533333Y-73328571D02*
X125485714Y-73233333D01*
X125390476Y-73185714D01*
X125247619Y-73185714D01*
X125152380Y-73233333D01*
X125104761Y-73328571D01*
X125104761Y-73852380D01*
X124200000Y-73852380D02*
X124200000Y-73328571D01*
X124247619Y-73233333D01*
X124342857Y-73185714D01*
X124533333Y-73185714D01*
X124628571Y-73233333D01*
X124200000Y-73804761D02*
X124295238Y-73852380D01*
X124533333Y-73852380D01*
X124628571Y-73804761D01*
X124676190Y-73709523D01*
X124676190Y-73614285D01*
X124628571Y-73519047D01*
X124533333Y-73471428D01*
X124295238Y-73471428D01*
X124200000Y-73423809D01*
X123723809Y-73852380D02*
X123723809Y-73185714D01*
X123723809Y-73376190D02*
X123676190Y-73280952D01*
X123628571Y-73233333D01*
X123533333Y-73185714D01*
X123438095Y-73185714D01*
X123104761Y-73471428D02*
X122342857Y-73471428D01*
X121866666Y-73852380D02*
X121866666Y-73185714D01*
X121866666Y-73376190D02*
X121819047Y-73280952D01*
X121771428Y-73233333D01*
X121676190Y-73185714D01*
X121580952Y-73185714D01*
X120819047Y-73852380D02*
X120819047Y-73328571D01*
X120866666Y-73233333D01*
X120961904Y-73185714D01*
X121152380Y-73185714D01*
X121247619Y-73233333D01*
X120819047Y-73804761D02*
X120914285Y-73852380D01*
X121152380Y-73852380D01*
X121247619Y-73804761D01*
X121295238Y-73709523D01*
X121295238Y-73614285D01*
X121247619Y-73519047D01*
X121152380Y-73471428D01*
X120914285Y-73471428D01*
X120819047Y-73423809D01*
X120342857Y-73185714D02*
X120342857Y-74042857D01*
X120390476Y-74138095D01*
X120485714Y-74185714D01*
X120533333Y-74185714D01*
X120342857Y-72852380D02*
X120390476Y-72900000D01*
X120342857Y-72947619D01*
X120295238Y-72900000D01*
X120342857Y-72852380D01*
X120342857Y-72947619D01*
D13*
%TO.C,J4*%
X110830000Y-122930000D02*
X110830000Y-124200000D01*
X112100000Y-122930000D02*
X110830000Y-122930000D01*
X117560000Y-125242929D02*
X117560000Y-125640000D01*
X116800000Y-125242929D02*
X116800000Y-125640000D01*
X117560000Y-134300000D02*
X117560000Y-128300000D01*
X116800000Y-134300000D02*
X117560000Y-134300000D01*
X116800000Y-128300000D02*
X116800000Y-134300000D01*
X115910000Y-125640000D02*
X115910000Y-128300000D01*
X115020000Y-125242929D02*
X115020000Y-125640000D01*
X114260000Y-125242929D02*
X114260000Y-125640000D01*
X115020000Y-134300000D02*
X115020000Y-128300000D01*
X114260000Y-134300000D02*
X115020000Y-134300000D01*
X114260000Y-128300000D02*
X114260000Y-134300000D01*
X113370000Y-125640000D02*
X113370000Y-128300000D01*
X112480000Y-125310000D02*
X112480000Y-125640000D01*
X111720000Y-125310000D02*
X111720000Y-125640000D01*
X112380000Y-128300000D02*
X112380000Y-134300000D01*
X112260000Y-128300000D02*
X112260000Y-134300000D01*
X112140000Y-128300000D02*
X112140000Y-134300000D01*
X112020000Y-128300000D02*
X112020000Y-134300000D01*
X111900000Y-128300000D02*
X111900000Y-134300000D01*
X111780000Y-128300000D02*
X111780000Y-134300000D01*
X112480000Y-134300000D02*
X112480000Y-128300000D01*
X111720000Y-134300000D02*
X112480000Y-134300000D01*
X111720000Y-128300000D02*
X111720000Y-134300000D01*
X110770000Y-128300000D02*
X110770000Y-125640000D01*
X118510000Y-128300000D02*
X110770000Y-128300000D01*
X118510000Y-125640000D02*
X118510000Y-128300000D01*
X110770000Y-125640000D02*
X118510000Y-125640000D01*
D11*
X109282380Y-128251666D02*
X109996666Y-128251666D01*
X110139523Y-128204047D01*
X110234761Y-128108809D01*
X110282380Y-127965952D01*
X110282380Y-127870714D01*
X109615714Y-129156428D02*
X110282380Y-129156428D01*
X109234761Y-128918333D02*
X109949047Y-128680238D01*
X109949047Y-129299285D01*
%TD*%
M02*
