%TF.GenerationSoftware,KiCad,Pcbnew,(5.1.12)-1*%
%TF.CreationDate,2026-01-09T19:54:51+05:30*%
%TF.ProjectId,Aniket_Board,416e696b-6574-45f4-926f-6172642e6b69,rev?*%
%TF.SameCoordinates,Original*%
%TF.FileFunction,Copper,L1,Top*%
%TF.FilePolarity,Positive*%
%FSLAX46Y46*%
G04 Gerber Fmt 4.6, Leading zero omitted, Abs format (unit mm)*
G04 Created by KiCad (PCBNEW (5.1.12)-1) date 2026-01-09 19:54:51*
%MOMM*%
%LPD*%
G01*
G04 APERTURE LIST*
%TA.AperFunction,ComponentPad*%
%ADD10C,0.600000*%
%TD*%
%TA.AperFunction,ComponentPad*%
%ADD11R,1.700000X1.700000*%
%TD*%
%TA.AperFunction,ComponentPad*%
%ADD12O,1.700000X1.700000*%
%TD*%
%TA.AperFunction,SMDPad,CuDef*%
%ADD13R,1.400000X1.200000*%
%TD*%
%TA.AperFunction,SMDPad,CuDef*%
%ADD14R,1.550000X1.300000*%
%TD*%
%TA.AperFunction,SMDPad,CuDef*%
%ADD15R,0.600000X1.450000*%
%TD*%
%TA.AperFunction,SMDPad,CuDef*%
%ADD16R,0.300000X1.450000*%
%TD*%
%TA.AperFunction,ComponentPad*%
%ADD17O,1.000000X2.100000*%
%TD*%
%TA.AperFunction,ComponentPad*%
%ADD18O,1.000000X1.600000*%
%TD*%
%TA.AperFunction,SMDPad,CuDef*%
%ADD19R,0.650000X1.060000*%
%TD*%
%TA.AperFunction,ViaPad*%
%ADD20C,0.800000*%
%TD*%
%TA.AperFunction,Conductor*%
%ADD21C,0.250000*%
%TD*%
%TA.AperFunction,Conductor*%
%ADD22C,0.200000*%
%TD*%
G04 APERTURE END LIST*
%TO.P,U1,57*%
%TO.N,GND*%
%TA.AperFunction,SMDPad,CuDef*%
G36*
G01*
X139070000Y-117256000D02*
X139070000Y-114344000D01*
G75*
G02*
X139214000Y-114200000I144000J0D01*
G01*
X142126000Y-114200000D01*
G75*
G02*
X142270000Y-114344000I0J-144000D01*
G01*
X142270000Y-117256000D01*
G75*
G02*
X142126000Y-117400000I-144000J0D01*
G01*
X139214000Y-117400000D01*
G75*
G02*
X139070000Y-117256000I0J144000D01*
G01*
G37*
%TD.AperFunction*%
D10*
X139395000Y-114525000D03*
X140670000Y-114525000D03*
X141945000Y-114525000D03*
X139395000Y-115800000D03*
X140670000Y-115800000D03*
X141945000Y-115800000D03*
X139395000Y-117075000D03*
X140670000Y-117075000D03*
X141945000Y-117075000D03*
%TO.P,U1,1*%
%TO.N,/+3.3v*%
%TA.AperFunction,SMDPad,CuDef*%
G36*
G01*
X136795000Y-113250000D02*
X136795000Y-113150000D01*
G75*
G02*
X136845000Y-113100000I50000J0D01*
G01*
X137620000Y-113100000D01*
G75*
G02*
X137670000Y-113150000I0J-50000D01*
G01*
X137670000Y-113250000D01*
G75*
G02*
X137620000Y-113300000I-50000J0D01*
G01*
X136845000Y-113300000D01*
G75*
G02*
X136795000Y-113250000I0J50000D01*
G01*
G37*
%TD.AperFunction*%
%TO.P,U1,2*%
%TO.N,/GPIO0*%
%TA.AperFunction,SMDPad,CuDef*%
G36*
G01*
X136795000Y-113650000D02*
X136795000Y-113550000D01*
G75*
G02*
X136845000Y-113500000I50000J0D01*
G01*
X137620000Y-113500000D01*
G75*
G02*
X137670000Y-113550000I0J-50000D01*
G01*
X137670000Y-113650000D01*
G75*
G02*
X137620000Y-113700000I-50000J0D01*
G01*
X136845000Y-113700000D01*
G75*
G02*
X136795000Y-113650000I0J50000D01*
G01*
G37*
%TD.AperFunction*%
%TO.P,U1,3*%
%TO.N,/GPIO1*%
%TA.AperFunction,SMDPad,CuDef*%
G36*
G01*
X136795000Y-114050000D02*
X136795000Y-113950000D01*
G75*
G02*
X136845000Y-113900000I50000J0D01*
G01*
X137620000Y-113900000D01*
G75*
G02*
X137670000Y-113950000I0J-50000D01*
G01*
X137670000Y-114050000D01*
G75*
G02*
X137620000Y-114100000I-50000J0D01*
G01*
X136845000Y-114100000D01*
G75*
G02*
X136795000Y-114050000I0J50000D01*
G01*
G37*
%TD.AperFunction*%
%TO.P,U1,4*%
%TO.N,/GPIO2*%
%TA.AperFunction,SMDPad,CuDef*%
G36*
G01*
X136795000Y-114450000D02*
X136795000Y-114350000D01*
G75*
G02*
X136845000Y-114300000I50000J0D01*
G01*
X137620000Y-114300000D01*
G75*
G02*
X137670000Y-114350000I0J-50000D01*
G01*
X137670000Y-114450000D01*
G75*
G02*
X137620000Y-114500000I-50000J0D01*
G01*
X136845000Y-114500000D01*
G75*
G02*
X136795000Y-114450000I0J50000D01*
G01*
G37*
%TD.AperFunction*%
%TO.P,U1,5*%
%TO.N,/GPIO3*%
%TA.AperFunction,SMDPad,CuDef*%
G36*
G01*
X136795000Y-114850000D02*
X136795000Y-114750000D01*
G75*
G02*
X136845000Y-114700000I50000J0D01*
G01*
X137620000Y-114700000D01*
G75*
G02*
X137670000Y-114750000I0J-50000D01*
G01*
X137670000Y-114850000D01*
G75*
G02*
X137620000Y-114900000I-50000J0D01*
G01*
X136845000Y-114900000D01*
G75*
G02*
X136795000Y-114850000I0J50000D01*
G01*
G37*
%TD.AperFunction*%
%TO.P,U1,6*%
%TO.N,/GPIO4*%
%TA.AperFunction,SMDPad,CuDef*%
G36*
G01*
X136795000Y-115250000D02*
X136795000Y-115150000D01*
G75*
G02*
X136845000Y-115100000I50000J0D01*
G01*
X137620000Y-115100000D01*
G75*
G02*
X137670000Y-115150000I0J-50000D01*
G01*
X137670000Y-115250000D01*
G75*
G02*
X137620000Y-115300000I-50000J0D01*
G01*
X136845000Y-115300000D01*
G75*
G02*
X136795000Y-115250000I0J50000D01*
G01*
G37*
%TD.AperFunction*%
%TO.P,U1,7*%
%TO.N,/GPIO5*%
%TA.AperFunction,SMDPad,CuDef*%
G36*
G01*
X136795000Y-115650000D02*
X136795000Y-115550000D01*
G75*
G02*
X136845000Y-115500000I50000J0D01*
G01*
X137620000Y-115500000D01*
G75*
G02*
X137670000Y-115550000I0J-50000D01*
G01*
X137670000Y-115650000D01*
G75*
G02*
X137620000Y-115700000I-50000J0D01*
G01*
X136845000Y-115700000D01*
G75*
G02*
X136795000Y-115650000I0J50000D01*
G01*
G37*
%TD.AperFunction*%
%TO.P,U1,8*%
%TO.N,/GPIO6*%
%TA.AperFunction,SMDPad,CuDef*%
G36*
G01*
X136795000Y-116050000D02*
X136795000Y-115950000D01*
G75*
G02*
X136845000Y-115900000I50000J0D01*
G01*
X137620000Y-115900000D01*
G75*
G02*
X137670000Y-115950000I0J-50000D01*
G01*
X137670000Y-116050000D01*
G75*
G02*
X137620000Y-116100000I-50000J0D01*
G01*
X136845000Y-116100000D01*
G75*
G02*
X136795000Y-116050000I0J50000D01*
G01*
G37*
%TD.AperFunction*%
%TO.P,U1,9*%
%TO.N,/GPIO7*%
%TA.AperFunction,SMDPad,CuDef*%
G36*
G01*
X136795000Y-116450000D02*
X136795000Y-116350000D01*
G75*
G02*
X136845000Y-116300000I50000J0D01*
G01*
X137620000Y-116300000D01*
G75*
G02*
X137670000Y-116350000I0J-50000D01*
G01*
X137670000Y-116450000D01*
G75*
G02*
X137620000Y-116500000I-50000J0D01*
G01*
X136845000Y-116500000D01*
G75*
G02*
X136795000Y-116450000I0J50000D01*
G01*
G37*
%TD.AperFunction*%
%TO.P,U1,10*%
%TO.N,/+3.3v*%
%TA.AperFunction,SMDPad,CuDef*%
G36*
G01*
X136795000Y-116850000D02*
X136795000Y-116750000D01*
G75*
G02*
X136845000Y-116700000I50000J0D01*
G01*
X137620000Y-116700000D01*
G75*
G02*
X137670000Y-116750000I0J-50000D01*
G01*
X137670000Y-116850000D01*
G75*
G02*
X137620000Y-116900000I-50000J0D01*
G01*
X136845000Y-116900000D01*
G75*
G02*
X136795000Y-116850000I0J50000D01*
G01*
G37*
%TD.AperFunction*%
%TO.P,U1,11*%
%TO.N,/GPIO8*%
%TA.AperFunction,SMDPad,CuDef*%
G36*
G01*
X136795000Y-117250000D02*
X136795000Y-117150000D01*
G75*
G02*
X136845000Y-117100000I50000J0D01*
G01*
X137620000Y-117100000D01*
G75*
G02*
X137670000Y-117150000I0J-50000D01*
G01*
X137670000Y-117250000D01*
G75*
G02*
X137620000Y-117300000I-50000J0D01*
G01*
X136845000Y-117300000D01*
G75*
G02*
X136795000Y-117250000I0J50000D01*
G01*
G37*
%TD.AperFunction*%
%TO.P,U1,12*%
%TO.N,/GPIO9*%
%TA.AperFunction,SMDPad,CuDef*%
G36*
G01*
X136795000Y-117650000D02*
X136795000Y-117550000D01*
G75*
G02*
X136845000Y-117500000I50000J0D01*
G01*
X137620000Y-117500000D01*
G75*
G02*
X137670000Y-117550000I0J-50000D01*
G01*
X137670000Y-117650000D01*
G75*
G02*
X137620000Y-117700000I-50000J0D01*
G01*
X136845000Y-117700000D01*
G75*
G02*
X136795000Y-117650000I0J50000D01*
G01*
G37*
%TD.AperFunction*%
%TO.P,U1,13*%
%TO.N,/GPIO10*%
%TA.AperFunction,SMDPad,CuDef*%
G36*
G01*
X136795000Y-118050000D02*
X136795000Y-117950000D01*
G75*
G02*
X136845000Y-117900000I50000J0D01*
G01*
X137620000Y-117900000D01*
G75*
G02*
X137670000Y-117950000I0J-50000D01*
G01*
X137670000Y-118050000D01*
G75*
G02*
X137620000Y-118100000I-50000J0D01*
G01*
X136845000Y-118100000D01*
G75*
G02*
X136795000Y-118050000I0J50000D01*
G01*
G37*
%TD.AperFunction*%
%TO.P,U1,14*%
%TO.N,/GPIO11*%
%TA.AperFunction,SMDPad,CuDef*%
G36*
G01*
X136795000Y-118450000D02*
X136795000Y-118350000D01*
G75*
G02*
X136845000Y-118300000I50000J0D01*
G01*
X137620000Y-118300000D01*
G75*
G02*
X137670000Y-118350000I0J-50000D01*
G01*
X137670000Y-118450000D01*
G75*
G02*
X137620000Y-118500000I-50000J0D01*
G01*
X136845000Y-118500000D01*
G75*
G02*
X136795000Y-118450000I0J50000D01*
G01*
G37*
%TD.AperFunction*%
%TO.P,U1,15*%
%TO.N,/GPIO12*%
%TA.AperFunction,SMDPad,CuDef*%
G36*
G01*
X137970000Y-119625000D02*
X137970000Y-118850000D01*
G75*
G02*
X138020000Y-118800000I50000J0D01*
G01*
X138120000Y-118800000D01*
G75*
G02*
X138170000Y-118850000I0J-50000D01*
G01*
X138170000Y-119625000D01*
G75*
G02*
X138120000Y-119675000I-50000J0D01*
G01*
X138020000Y-119675000D01*
G75*
G02*
X137970000Y-119625000I0J50000D01*
G01*
G37*
%TD.AperFunction*%
%TO.P,U1,16*%
%TO.N,/GPIO13*%
%TA.AperFunction,SMDPad,CuDef*%
G36*
G01*
X138370000Y-119625000D02*
X138370000Y-118850000D01*
G75*
G02*
X138420000Y-118800000I50000J0D01*
G01*
X138520000Y-118800000D01*
G75*
G02*
X138570000Y-118850000I0J-50000D01*
G01*
X138570000Y-119625000D01*
G75*
G02*
X138520000Y-119675000I-50000J0D01*
G01*
X138420000Y-119675000D01*
G75*
G02*
X138370000Y-119625000I0J50000D01*
G01*
G37*
%TD.AperFunction*%
%TO.P,U1,17*%
%TO.N,/GPIO14*%
%TA.AperFunction,SMDPad,CuDef*%
G36*
G01*
X138770000Y-119625000D02*
X138770000Y-118850000D01*
G75*
G02*
X138820000Y-118800000I50000J0D01*
G01*
X138920000Y-118800000D01*
G75*
G02*
X138970000Y-118850000I0J-50000D01*
G01*
X138970000Y-119625000D01*
G75*
G02*
X138920000Y-119675000I-50000J0D01*
G01*
X138820000Y-119675000D01*
G75*
G02*
X138770000Y-119625000I0J50000D01*
G01*
G37*
%TD.AperFunction*%
%TO.P,U1,18*%
%TO.N,/GPIO15*%
%TA.AperFunction,SMDPad,CuDef*%
G36*
G01*
X139170000Y-119625000D02*
X139170000Y-118850000D01*
G75*
G02*
X139220000Y-118800000I50000J0D01*
G01*
X139320000Y-118800000D01*
G75*
G02*
X139370000Y-118850000I0J-50000D01*
G01*
X139370000Y-119625000D01*
G75*
G02*
X139320000Y-119675000I-50000J0D01*
G01*
X139220000Y-119675000D01*
G75*
G02*
X139170000Y-119625000I0J50000D01*
G01*
G37*
%TD.AperFunction*%
%TO.P,U1,19*%
%TO.N,GND*%
%TA.AperFunction,SMDPad,CuDef*%
G36*
G01*
X139570000Y-119625000D02*
X139570000Y-118850000D01*
G75*
G02*
X139620000Y-118800000I50000J0D01*
G01*
X139720000Y-118800000D01*
G75*
G02*
X139770000Y-118850000I0J-50000D01*
G01*
X139770000Y-119625000D01*
G75*
G02*
X139720000Y-119675000I-50000J0D01*
G01*
X139620000Y-119675000D01*
G75*
G02*
X139570000Y-119625000I0J50000D01*
G01*
G37*
%TD.AperFunction*%
%TO.P,U1,20*%
%TO.N,/XIN*%
%TA.AperFunction,SMDPad,CuDef*%
G36*
G01*
X139970000Y-119625000D02*
X139970000Y-118850000D01*
G75*
G02*
X140020000Y-118800000I50000J0D01*
G01*
X140120000Y-118800000D01*
G75*
G02*
X140170000Y-118850000I0J-50000D01*
G01*
X140170000Y-119625000D01*
G75*
G02*
X140120000Y-119675000I-50000J0D01*
G01*
X140020000Y-119675000D01*
G75*
G02*
X139970000Y-119625000I0J50000D01*
G01*
G37*
%TD.AperFunction*%
%TO.P,U1,21*%
%TO.N,/XOUT*%
%TA.AperFunction,SMDPad,CuDef*%
G36*
G01*
X140370000Y-119625000D02*
X140370000Y-118850000D01*
G75*
G02*
X140420000Y-118800000I50000J0D01*
G01*
X140520000Y-118800000D01*
G75*
G02*
X140570000Y-118850000I0J-50000D01*
G01*
X140570000Y-119625000D01*
G75*
G02*
X140520000Y-119675000I-50000J0D01*
G01*
X140420000Y-119675000D01*
G75*
G02*
X140370000Y-119625000I0J50000D01*
G01*
G37*
%TD.AperFunction*%
%TO.P,U1,22*%
%TO.N,/+3.3v*%
%TA.AperFunction,SMDPad,CuDef*%
G36*
G01*
X140770000Y-119625000D02*
X140770000Y-118850000D01*
G75*
G02*
X140820000Y-118800000I50000J0D01*
G01*
X140920000Y-118800000D01*
G75*
G02*
X140970000Y-118850000I0J-50000D01*
G01*
X140970000Y-119625000D01*
G75*
G02*
X140920000Y-119675000I-50000J0D01*
G01*
X140820000Y-119675000D01*
G75*
G02*
X140770000Y-119625000I0J50000D01*
G01*
G37*
%TD.AperFunction*%
%TO.P,U1,23*%
%TO.N,Net-(C5-Pad1)*%
%TA.AperFunction,SMDPad,CuDef*%
G36*
G01*
X141170000Y-119625000D02*
X141170000Y-118850000D01*
G75*
G02*
X141220000Y-118800000I50000J0D01*
G01*
X141320000Y-118800000D01*
G75*
G02*
X141370000Y-118850000I0J-50000D01*
G01*
X141370000Y-119625000D01*
G75*
G02*
X141320000Y-119675000I-50000J0D01*
G01*
X141220000Y-119675000D01*
G75*
G02*
X141170000Y-119625000I0J50000D01*
G01*
G37*
%TD.AperFunction*%
%TO.P,U1,24*%
%TO.N,/SWCLK*%
%TA.AperFunction,SMDPad,CuDef*%
G36*
G01*
X141570000Y-119625000D02*
X141570000Y-118850000D01*
G75*
G02*
X141620000Y-118800000I50000J0D01*
G01*
X141720000Y-118800000D01*
G75*
G02*
X141770000Y-118850000I0J-50000D01*
G01*
X141770000Y-119625000D01*
G75*
G02*
X141720000Y-119675000I-50000J0D01*
G01*
X141620000Y-119675000D01*
G75*
G02*
X141570000Y-119625000I0J50000D01*
G01*
G37*
%TD.AperFunction*%
%TO.P,U1,25*%
%TO.N,/SWD*%
%TA.AperFunction,SMDPad,CuDef*%
G36*
G01*
X141970000Y-119625000D02*
X141970000Y-118850000D01*
G75*
G02*
X142020000Y-118800000I50000J0D01*
G01*
X142120000Y-118800000D01*
G75*
G02*
X142170000Y-118850000I0J-50000D01*
G01*
X142170000Y-119625000D01*
G75*
G02*
X142120000Y-119675000I-50000J0D01*
G01*
X142020000Y-119675000D01*
G75*
G02*
X141970000Y-119625000I0J50000D01*
G01*
G37*
%TD.AperFunction*%
%TO.P,U1,26*%
%TO.N,Net-(R5-Pad2)*%
%TA.AperFunction,SMDPad,CuDef*%
G36*
G01*
X142370000Y-119625000D02*
X142370000Y-118850000D01*
G75*
G02*
X142420000Y-118800000I50000J0D01*
G01*
X142520000Y-118800000D01*
G75*
G02*
X142570000Y-118850000I0J-50000D01*
G01*
X142570000Y-119625000D01*
G75*
G02*
X142520000Y-119675000I-50000J0D01*
G01*
X142420000Y-119675000D01*
G75*
G02*
X142370000Y-119625000I0J50000D01*
G01*
G37*
%TD.AperFunction*%
%TO.P,U1,27*%
%TO.N,/GPIO16*%
%TA.AperFunction,SMDPad,CuDef*%
G36*
G01*
X142770000Y-119625000D02*
X142770000Y-118850000D01*
G75*
G02*
X142820000Y-118800000I50000J0D01*
G01*
X142920000Y-118800000D01*
G75*
G02*
X142970000Y-118850000I0J-50000D01*
G01*
X142970000Y-119625000D01*
G75*
G02*
X142920000Y-119675000I-50000J0D01*
G01*
X142820000Y-119675000D01*
G75*
G02*
X142770000Y-119625000I0J50000D01*
G01*
G37*
%TD.AperFunction*%
%TO.P,U1,28*%
%TO.N,/GPIO17*%
%TA.AperFunction,SMDPad,CuDef*%
G36*
G01*
X143170000Y-119625000D02*
X143170000Y-118850000D01*
G75*
G02*
X143220000Y-118800000I50000J0D01*
G01*
X143320000Y-118800000D01*
G75*
G02*
X143370000Y-118850000I0J-50000D01*
G01*
X143370000Y-119625000D01*
G75*
G02*
X143320000Y-119675000I-50000J0D01*
G01*
X143220000Y-119675000D01*
G75*
G02*
X143170000Y-119625000I0J50000D01*
G01*
G37*
%TD.AperFunction*%
%TO.P,U1,29*%
%TO.N,/GPIO18*%
%TA.AperFunction,SMDPad,CuDef*%
G36*
G01*
X143670000Y-118450000D02*
X143670000Y-118350000D01*
G75*
G02*
X143720000Y-118300000I50000J0D01*
G01*
X144495000Y-118300000D01*
G75*
G02*
X144545000Y-118350000I0J-50000D01*
G01*
X144545000Y-118450000D01*
G75*
G02*
X144495000Y-118500000I-50000J0D01*
G01*
X143720000Y-118500000D01*
G75*
G02*
X143670000Y-118450000I0J50000D01*
G01*
G37*
%TD.AperFunction*%
%TO.P,U1,30*%
%TO.N,/GPIO19*%
%TA.AperFunction,SMDPad,CuDef*%
G36*
G01*
X143670000Y-118050000D02*
X143670000Y-117950000D01*
G75*
G02*
X143720000Y-117900000I50000J0D01*
G01*
X144495000Y-117900000D01*
G75*
G02*
X144545000Y-117950000I0J-50000D01*
G01*
X144545000Y-118050000D01*
G75*
G02*
X144495000Y-118100000I-50000J0D01*
G01*
X143720000Y-118100000D01*
G75*
G02*
X143670000Y-118050000I0J50000D01*
G01*
G37*
%TD.AperFunction*%
%TO.P,U1,31*%
%TO.N,/GPIO20*%
%TA.AperFunction,SMDPad,CuDef*%
G36*
G01*
X143670000Y-117650000D02*
X143670000Y-117550000D01*
G75*
G02*
X143720000Y-117500000I50000J0D01*
G01*
X144495000Y-117500000D01*
G75*
G02*
X144545000Y-117550000I0J-50000D01*
G01*
X144545000Y-117650000D01*
G75*
G02*
X144495000Y-117700000I-50000J0D01*
G01*
X143720000Y-117700000D01*
G75*
G02*
X143670000Y-117650000I0J50000D01*
G01*
G37*
%TD.AperFunction*%
%TO.P,U1,32*%
%TO.N,/GPIO21*%
%TA.AperFunction,SMDPad,CuDef*%
G36*
G01*
X143670000Y-117250000D02*
X143670000Y-117150000D01*
G75*
G02*
X143720000Y-117100000I50000J0D01*
G01*
X144495000Y-117100000D01*
G75*
G02*
X144545000Y-117150000I0J-50000D01*
G01*
X144545000Y-117250000D01*
G75*
G02*
X144495000Y-117300000I-50000J0D01*
G01*
X143720000Y-117300000D01*
G75*
G02*
X143670000Y-117250000I0J50000D01*
G01*
G37*
%TD.AperFunction*%
%TO.P,U1,33*%
%TO.N,/+3.3v*%
%TA.AperFunction,SMDPad,CuDef*%
G36*
G01*
X143670000Y-116850000D02*
X143670000Y-116750000D01*
G75*
G02*
X143720000Y-116700000I50000J0D01*
G01*
X144495000Y-116700000D01*
G75*
G02*
X144545000Y-116750000I0J-50000D01*
G01*
X144545000Y-116850000D01*
G75*
G02*
X144495000Y-116900000I-50000J0D01*
G01*
X143720000Y-116900000D01*
G75*
G02*
X143670000Y-116850000I0J50000D01*
G01*
G37*
%TD.AperFunction*%
%TO.P,U1,34*%
%TO.N,/GPIO22*%
%TA.AperFunction,SMDPad,CuDef*%
G36*
G01*
X143670000Y-116450000D02*
X143670000Y-116350000D01*
G75*
G02*
X143720000Y-116300000I50000J0D01*
G01*
X144495000Y-116300000D01*
G75*
G02*
X144545000Y-116350000I0J-50000D01*
G01*
X144545000Y-116450000D01*
G75*
G02*
X144495000Y-116500000I-50000J0D01*
G01*
X143720000Y-116500000D01*
G75*
G02*
X143670000Y-116450000I0J50000D01*
G01*
G37*
%TD.AperFunction*%
%TO.P,U1,35*%
%TO.N,Net-(U1-Pad35)*%
%TA.AperFunction,SMDPad,CuDef*%
G36*
G01*
X143670000Y-116050000D02*
X143670000Y-115950000D01*
G75*
G02*
X143720000Y-115900000I50000J0D01*
G01*
X144495000Y-115900000D01*
G75*
G02*
X144545000Y-115950000I0J-50000D01*
G01*
X144545000Y-116050000D01*
G75*
G02*
X144495000Y-116100000I-50000J0D01*
G01*
X143720000Y-116100000D01*
G75*
G02*
X143670000Y-116050000I0J50000D01*
G01*
G37*
%TD.AperFunction*%
%TO.P,U1,36*%
%TO.N,Net-(U1-Pad36)*%
%TA.AperFunction,SMDPad,CuDef*%
G36*
G01*
X143670000Y-115650000D02*
X143670000Y-115550000D01*
G75*
G02*
X143720000Y-115500000I50000J0D01*
G01*
X144495000Y-115500000D01*
G75*
G02*
X144545000Y-115550000I0J-50000D01*
G01*
X144545000Y-115650000D01*
G75*
G02*
X144495000Y-115700000I-50000J0D01*
G01*
X143720000Y-115700000D01*
G75*
G02*
X143670000Y-115650000I0J50000D01*
G01*
G37*
%TD.AperFunction*%
%TO.P,U1,37*%
%TO.N,/GIO25*%
%TA.AperFunction,SMDPad,CuDef*%
G36*
G01*
X143670000Y-115250000D02*
X143670000Y-115150000D01*
G75*
G02*
X143720000Y-115100000I50000J0D01*
G01*
X144495000Y-115100000D01*
G75*
G02*
X144545000Y-115150000I0J-50000D01*
G01*
X144545000Y-115250000D01*
G75*
G02*
X144495000Y-115300000I-50000J0D01*
G01*
X143720000Y-115300000D01*
G75*
G02*
X143670000Y-115250000I0J50000D01*
G01*
G37*
%TD.AperFunction*%
%TO.P,U1,38*%
%TO.N,/GPIO26*%
%TA.AperFunction,SMDPad,CuDef*%
G36*
G01*
X143670000Y-114850000D02*
X143670000Y-114750000D01*
G75*
G02*
X143720000Y-114700000I50000J0D01*
G01*
X144495000Y-114700000D01*
G75*
G02*
X144545000Y-114750000I0J-50000D01*
G01*
X144545000Y-114850000D01*
G75*
G02*
X144495000Y-114900000I-50000J0D01*
G01*
X143720000Y-114900000D01*
G75*
G02*
X143670000Y-114850000I0J50000D01*
G01*
G37*
%TD.AperFunction*%
%TO.P,U1,39*%
%TO.N,/GPIO27*%
%TA.AperFunction,SMDPad,CuDef*%
G36*
G01*
X143670000Y-114450000D02*
X143670000Y-114350000D01*
G75*
G02*
X143720000Y-114300000I50000J0D01*
G01*
X144495000Y-114300000D01*
G75*
G02*
X144545000Y-114350000I0J-50000D01*
G01*
X144545000Y-114450000D01*
G75*
G02*
X144495000Y-114500000I-50000J0D01*
G01*
X143720000Y-114500000D01*
G75*
G02*
X143670000Y-114450000I0J50000D01*
G01*
G37*
%TD.AperFunction*%
%TO.P,U1,40*%
%TO.N,/GPIO28*%
%TA.AperFunction,SMDPad,CuDef*%
G36*
G01*
X143670000Y-114050000D02*
X143670000Y-113950000D01*
G75*
G02*
X143720000Y-113900000I50000J0D01*
G01*
X144495000Y-113900000D01*
G75*
G02*
X144545000Y-113950000I0J-50000D01*
G01*
X144545000Y-114050000D01*
G75*
G02*
X144495000Y-114100000I-50000J0D01*
G01*
X143720000Y-114100000D01*
G75*
G02*
X143670000Y-114050000I0J50000D01*
G01*
G37*
%TD.AperFunction*%
%TO.P,U1,41*%
%TO.N,Net-(U1-Pad41)*%
%TA.AperFunction,SMDPad,CuDef*%
G36*
G01*
X143670000Y-113650000D02*
X143670000Y-113550000D01*
G75*
G02*
X143720000Y-113500000I50000J0D01*
G01*
X144495000Y-113500000D01*
G75*
G02*
X144545000Y-113550000I0J-50000D01*
G01*
X144545000Y-113650000D01*
G75*
G02*
X144495000Y-113700000I-50000J0D01*
G01*
X143720000Y-113700000D01*
G75*
G02*
X143670000Y-113650000I0J50000D01*
G01*
G37*
%TD.AperFunction*%
%TO.P,U1,42*%
%TO.N,/+3.3v*%
%TA.AperFunction,SMDPad,CuDef*%
G36*
G01*
X143670000Y-113250000D02*
X143670000Y-113150000D01*
G75*
G02*
X143720000Y-113100000I50000J0D01*
G01*
X144495000Y-113100000D01*
G75*
G02*
X144545000Y-113150000I0J-50000D01*
G01*
X144545000Y-113250000D01*
G75*
G02*
X144495000Y-113300000I-50000J0D01*
G01*
X143720000Y-113300000D01*
G75*
G02*
X143670000Y-113250000I0J50000D01*
G01*
G37*
%TD.AperFunction*%
%TO.P,U1,43*%
%TA.AperFunction,SMDPad,CuDef*%
G36*
G01*
X143170000Y-112750000D02*
X143170000Y-111975000D01*
G75*
G02*
X143220000Y-111925000I50000J0D01*
G01*
X143320000Y-111925000D01*
G75*
G02*
X143370000Y-111975000I0J-50000D01*
G01*
X143370000Y-112750000D01*
G75*
G02*
X143320000Y-112800000I-50000J0D01*
G01*
X143220000Y-112800000D01*
G75*
G02*
X143170000Y-112750000I0J50000D01*
G01*
G37*
%TD.AperFunction*%
%TO.P,U1,44*%
%TA.AperFunction,SMDPad,CuDef*%
G36*
G01*
X142770000Y-112750000D02*
X142770000Y-111975000D01*
G75*
G02*
X142820000Y-111925000I50000J0D01*
G01*
X142920000Y-111925000D01*
G75*
G02*
X142970000Y-111975000I0J-50000D01*
G01*
X142970000Y-112750000D01*
G75*
G02*
X142920000Y-112800000I-50000J0D01*
G01*
X142820000Y-112800000D01*
G75*
G02*
X142770000Y-112750000I0J50000D01*
G01*
G37*
%TD.AperFunction*%
%TO.P,U1,45*%
%TO.N,Net-(C5-Pad1)*%
%TA.AperFunction,SMDPad,CuDef*%
G36*
G01*
X142370000Y-112750000D02*
X142370000Y-111975000D01*
G75*
G02*
X142420000Y-111925000I50000J0D01*
G01*
X142520000Y-111925000D01*
G75*
G02*
X142570000Y-111975000I0J-50000D01*
G01*
X142570000Y-112750000D01*
G75*
G02*
X142520000Y-112800000I-50000J0D01*
G01*
X142420000Y-112800000D01*
G75*
G02*
X142370000Y-112750000I0J50000D01*
G01*
G37*
%TD.AperFunction*%
%TO.P,U1,46*%
%TO.N,Net-(R2-Pad2)*%
%TA.AperFunction,SMDPad,CuDef*%
G36*
G01*
X141970000Y-112750000D02*
X141970000Y-111975000D01*
G75*
G02*
X142020000Y-111925000I50000J0D01*
G01*
X142120000Y-111925000D01*
G75*
G02*
X142170000Y-111975000I0J-50000D01*
G01*
X142170000Y-112750000D01*
G75*
G02*
X142120000Y-112800000I-50000J0D01*
G01*
X142020000Y-112800000D01*
G75*
G02*
X141970000Y-112750000I0J50000D01*
G01*
G37*
%TD.AperFunction*%
%TO.P,U1,47*%
%TO.N,Net-(R1-Pad2)*%
%TA.AperFunction,SMDPad,CuDef*%
G36*
G01*
X141570000Y-112750000D02*
X141570000Y-111975000D01*
G75*
G02*
X141620000Y-111925000I50000J0D01*
G01*
X141720000Y-111925000D01*
G75*
G02*
X141770000Y-111975000I0J-50000D01*
G01*
X141770000Y-112750000D01*
G75*
G02*
X141720000Y-112800000I-50000J0D01*
G01*
X141620000Y-112800000D01*
G75*
G02*
X141570000Y-112750000I0J50000D01*
G01*
G37*
%TD.AperFunction*%
%TO.P,U1,48*%
%TO.N,/+3.3v*%
%TA.AperFunction,SMDPad,CuDef*%
G36*
G01*
X141170000Y-112750000D02*
X141170000Y-111975000D01*
G75*
G02*
X141220000Y-111925000I50000J0D01*
G01*
X141320000Y-111925000D01*
G75*
G02*
X141370000Y-111975000I0J-50000D01*
G01*
X141370000Y-112750000D01*
G75*
G02*
X141320000Y-112800000I-50000J0D01*
G01*
X141220000Y-112800000D01*
G75*
G02*
X141170000Y-112750000I0J50000D01*
G01*
G37*
%TD.AperFunction*%
%TO.P,U1,49*%
%TA.AperFunction,SMDPad,CuDef*%
G36*
G01*
X140770000Y-112750000D02*
X140770000Y-111975000D01*
G75*
G02*
X140820000Y-111925000I50000J0D01*
G01*
X140920000Y-111925000D01*
G75*
G02*
X140970000Y-111975000I0J-50000D01*
G01*
X140970000Y-112750000D01*
G75*
G02*
X140920000Y-112800000I-50000J0D01*
G01*
X140820000Y-112800000D01*
G75*
G02*
X140770000Y-112750000I0J50000D01*
G01*
G37*
%TD.AperFunction*%
%TO.P,U1,50*%
%TO.N,Net-(C5-Pad1)*%
%TA.AperFunction,SMDPad,CuDef*%
G36*
G01*
X140370000Y-112750000D02*
X140370000Y-111975000D01*
G75*
G02*
X140420000Y-111925000I50000J0D01*
G01*
X140520000Y-111925000D01*
G75*
G02*
X140570000Y-111975000I0J-50000D01*
G01*
X140570000Y-112750000D01*
G75*
G02*
X140520000Y-112800000I-50000J0D01*
G01*
X140420000Y-112800000D01*
G75*
G02*
X140370000Y-112750000I0J50000D01*
G01*
G37*
%TD.AperFunction*%
%TO.P,U1,51*%
%TO.N,/QSPI_SD3*%
%TA.AperFunction,SMDPad,CuDef*%
G36*
G01*
X139970000Y-112750000D02*
X139970000Y-111975000D01*
G75*
G02*
X140020000Y-111925000I50000J0D01*
G01*
X140120000Y-111925000D01*
G75*
G02*
X140170000Y-111975000I0J-50000D01*
G01*
X140170000Y-112750000D01*
G75*
G02*
X140120000Y-112800000I-50000J0D01*
G01*
X140020000Y-112800000D01*
G75*
G02*
X139970000Y-112750000I0J50000D01*
G01*
G37*
%TD.AperFunction*%
%TO.P,U1,52*%
%TO.N,/QSPI_SCLK*%
%TA.AperFunction,SMDPad,CuDef*%
G36*
G01*
X139570000Y-112750000D02*
X139570000Y-111975000D01*
G75*
G02*
X139620000Y-111925000I50000J0D01*
G01*
X139720000Y-111925000D01*
G75*
G02*
X139770000Y-111975000I0J-50000D01*
G01*
X139770000Y-112750000D01*
G75*
G02*
X139720000Y-112800000I-50000J0D01*
G01*
X139620000Y-112800000D01*
G75*
G02*
X139570000Y-112750000I0J50000D01*
G01*
G37*
%TD.AperFunction*%
%TO.P,U1,53*%
%TO.N,/QSPI_SD0*%
%TA.AperFunction,SMDPad,CuDef*%
G36*
G01*
X139170000Y-112750000D02*
X139170000Y-111975000D01*
G75*
G02*
X139220000Y-111925000I50000J0D01*
G01*
X139320000Y-111925000D01*
G75*
G02*
X139370000Y-111975000I0J-50000D01*
G01*
X139370000Y-112750000D01*
G75*
G02*
X139320000Y-112800000I-50000J0D01*
G01*
X139220000Y-112800000D01*
G75*
G02*
X139170000Y-112750000I0J50000D01*
G01*
G37*
%TD.AperFunction*%
%TO.P,U1,54*%
%TO.N,/QSPI_SD2*%
%TA.AperFunction,SMDPad,CuDef*%
G36*
G01*
X138770000Y-112750000D02*
X138770000Y-111975000D01*
G75*
G02*
X138820000Y-111925000I50000J0D01*
G01*
X138920000Y-111925000D01*
G75*
G02*
X138970000Y-111975000I0J-50000D01*
G01*
X138970000Y-112750000D01*
G75*
G02*
X138920000Y-112800000I-50000J0D01*
G01*
X138820000Y-112800000D01*
G75*
G02*
X138770000Y-112750000I0J50000D01*
G01*
G37*
%TD.AperFunction*%
%TO.P,U1,55*%
%TO.N,/QSPI_SD1*%
%TA.AperFunction,SMDPad,CuDef*%
G36*
G01*
X138370000Y-112750000D02*
X138370000Y-111975000D01*
G75*
G02*
X138420000Y-111925000I50000J0D01*
G01*
X138520000Y-111925000D01*
G75*
G02*
X138570000Y-111975000I0J-50000D01*
G01*
X138570000Y-112750000D01*
G75*
G02*
X138520000Y-112800000I-50000J0D01*
G01*
X138420000Y-112800000D01*
G75*
G02*
X138370000Y-112750000I0J50000D01*
G01*
G37*
%TD.AperFunction*%
%TO.P,U1,56*%
%TO.N,/QSPI_SS*%
%TA.AperFunction,SMDPad,CuDef*%
G36*
G01*
X137970000Y-112750000D02*
X137970000Y-111975000D01*
G75*
G02*
X138020000Y-111925000I50000J0D01*
G01*
X138120000Y-111925000D01*
G75*
G02*
X138170000Y-111975000I0J-50000D01*
G01*
X138170000Y-112750000D01*
G75*
G02*
X138120000Y-112800000I-50000J0D01*
G01*
X138020000Y-112800000D01*
G75*
G02*
X137970000Y-112750000I0J50000D01*
G01*
G37*
%TD.AperFunction*%
%TD*%
D11*
%TO.P,J4,1*%
%TO.N,/SWD*%
X112100000Y-124200000D03*
D12*
%TO.P,J4,2*%
%TO.N,GND*%
X114640000Y-124200000D03*
%TO.P,J4,3*%
%TO.N,/SWCLK*%
X117180000Y-124200000D03*
%TD*%
D13*
%TO.P,Y1,4*%
%TO.N,GND*%
X151000000Y-77900000D03*
%TO.P,Y1,3*%
%TO.N,/XOUT*%
X153200000Y-77900000D03*
%TO.P,Y1,2*%
%TO.N,GND*%
X153200000Y-79600000D03*
%TO.P,Y1,1*%
%TO.N,/XIN*%
X151000000Y-79600000D03*
%TD*%
%TO.P,U3,8*%
%TO.N,/+3.3v*%
%TA.AperFunction,SMDPad,CuDef*%
G36*
G01*
X127645000Y-81600000D02*
X127345000Y-81600000D01*
G75*
G02*
X127195000Y-81450000I0J150000D01*
G01*
X127195000Y-80150000D01*
G75*
G02*
X127345000Y-80000000I150000J0D01*
G01*
X127645000Y-80000000D01*
G75*
G02*
X127795000Y-80150000I0J-150000D01*
G01*
X127795000Y-81450000D01*
G75*
G02*
X127645000Y-81600000I-150000J0D01*
G01*
G37*
%TD.AperFunction*%
%TO.P,U3,7*%
%TO.N,/QSPI_SD3*%
%TA.AperFunction,SMDPad,CuDef*%
G36*
G01*
X128915000Y-81600000D02*
X128615000Y-81600000D01*
G75*
G02*
X128465000Y-81450000I0J150000D01*
G01*
X128465000Y-80150000D01*
G75*
G02*
X128615000Y-80000000I150000J0D01*
G01*
X128915000Y-80000000D01*
G75*
G02*
X129065000Y-80150000I0J-150000D01*
G01*
X129065000Y-81450000D01*
G75*
G02*
X128915000Y-81600000I-150000J0D01*
G01*
G37*
%TD.AperFunction*%
%TO.P,U3,6*%
%TO.N,/QSPI_SCLK*%
%TA.AperFunction,SMDPad,CuDef*%
G36*
G01*
X130185000Y-81600000D02*
X129885000Y-81600000D01*
G75*
G02*
X129735000Y-81450000I0J150000D01*
G01*
X129735000Y-80150000D01*
G75*
G02*
X129885000Y-80000000I150000J0D01*
G01*
X130185000Y-80000000D01*
G75*
G02*
X130335000Y-80150000I0J-150000D01*
G01*
X130335000Y-81450000D01*
G75*
G02*
X130185000Y-81600000I-150000J0D01*
G01*
G37*
%TD.AperFunction*%
%TO.P,U3,5*%
%TO.N,/QSPI_SD0*%
%TA.AperFunction,SMDPad,CuDef*%
G36*
G01*
X131455000Y-81600000D02*
X131155000Y-81600000D01*
G75*
G02*
X131005000Y-81450000I0J150000D01*
G01*
X131005000Y-80150000D01*
G75*
G02*
X131155000Y-80000000I150000J0D01*
G01*
X131455000Y-80000000D01*
G75*
G02*
X131605000Y-80150000I0J-150000D01*
G01*
X131605000Y-81450000D01*
G75*
G02*
X131455000Y-81600000I-150000J0D01*
G01*
G37*
%TD.AperFunction*%
%TO.P,U3,4*%
%TO.N,GND*%
%TA.AperFunction,SMDPad,CuDef*%
G36*
G01*
X131455000Y-88800000D02*
X131155000Y-88800000D01*
G75*
G02*
X131005000Y-88650000I0J150000D01*
G01*
X131005000Y-87350000D01*
G75*
G02*
X131155000Y-87200000I150000J0D01*
G01*
X131455000Y-87200000D01*
G75*
G02*
X131605000Y-87350000I0J-150000D01*
G01*
X131605000Y-88650000D01*
G75*
G02*
X131455000Y-88800000I-150000J0D01*
G01*
G37*
%TD.AperFunction*%
%TO.P,U3,3*%
%TO.N,/QSPI_SD2*%
%TA.AperFunction,SMDPad,CuDef*%
G36*
G01*
X130185000Y-88800000D02*
X129885000Y-88800000D01*
G75*
G02*
X129735000Y-88650000I0J150000D01*
G01*
X129735000Y-87350000D01*
G75*
G02*
X129885000Y-87200000I150000J0D01*
G01*
X130185000Y-87200000D01*
G75*
G02*
X130335000Y-87350000I0J-150000D01*
G01*
X130335000Y-88650000D01*
G75*
G02*
X130185000Y-88800000I-150000J0D01*
G01*
G37*
%TD.AperFunction*%
%TO.P,U3,2*%
%TO.N,/QSPI_SD1*%
%TA.AperFunction,SMDPad,CuDef*%
G36*
G01*
X128915000Y-88800000D02*
X128615000Y-88800000D01*
G75*
G02*
X128465000Y-88650000I0J150000D01*
G01*
X128465000Y-87350000D01*
G75*
G02*
X128615000Y-87200000I150000J0D01*
G01*
X128915000Y-87200000D01*
G75*
G02*
X129065000Y-87350000I0J-150000D01*
G01*
X129065000Y-88650000D01*
G75*
G02*
X128915000Y-88800000I-150000J0D01*
G01*
G37*
%TD.AperFunction*%
%TO.P,U3,1*%
%TO.N,/QSPI_SS*%
%TA.AperFunction,SMDPad,CuDef*%
G36*
G01*
X127645000Y-88800000D02*
X127345000Y-88800000D01*
G75*
G02*
X127195000Y-88650000I0J150000D01*
G01*
X127195000Y-87350000D01*
G75*
G02*
X127345000Y-87200000I150000J0D01*
G01*
X127645000Y-87200000D01*
G75*
G02*
X127795000Y-87350000I0J-150000D01*
G01*
X127795000Y-88650000D01*
G75*
G02*
X127645000Y-88800000I-150000J0D01*
G01*
G37*
%TD.AperFunction*%
%TD*%
D14*
%TO.P,SW2,2*%
%TO.N,Net-(R6-Pad2)*%
X134780000Y-129950000D03*
%TO.P,SW2,1*%
%TO.N,GND*%
X134780000Y-125450000D03*
X126820000Y-125450000D03*
%TO.P,SW2,2*%
%TO.N,Net-(R6-Pad2)*%
X126820000Y-129950000D03*
%TD*%
%TO.P,R8,2*%
%TO.N,Net-(D1-Pad2)*%
%TA.AperFunction,SMDPad,CuDef*%
G36*
G01*
X161680000Y-72980002D02*
X161680000Y-72079998D01*
G75*
G02*
X161929998Y-71830000I249998J0D01*
G01*
X162455002Y-71830000D01*
G75*
G02*
X162705000Y-72079998I0J-249998D01*
G01*
X162705000Y-72980002D01*
G75*
G02*
X162455002Y-73230000I-249998J0D01*
G01*
X161929998Y-73230000D01*
G75*
G02*
X161680000Y-72980002I0J249998D01*
G01*
G37*
%TD.AperFunction*%
%TO.P,R8,1*%
%TO.N,/GIO25*%
%TA.AperFunction,SMDPad,CuDef*%
G36*
G01*
X159855000Y-72980002D02*
X159855000Y-72079998D01*
G75*
G02*
X160104998Y-71830000I249998J0D01*
G01*
X160630002Y-71830000D01*
G75*
G02*
X160880000Y-72079998I0J-249998D01*
G01*
X160880000Y-72980002D01*
G75*
G02*
X160630002Y-73230000I-249998J0D01*
G01*
X160104998Y-73230000D01*
G75*
G02*
X159855000Y-72980002I0J249998D01*
G01*
G37*
%TD.AperFunction*%
%TD*%
%TO.P,R7,2*%
%TO.N,/QSPI_SS*%
%TA.AperFunction,SMDPad,CuDef*%
G36*
G01*
X127100000Y-67749998D02*
X127100000Y-68650002D01*
G75*
G02*
X126850002Y-68900000I-249998J0D01*
G01*
X126324998Y-68900000D01*
G75*
G02*
X126075000Y-68650002I0J249998D01*
G01*
X126075000Y-67749998D01*
G75*
G02*
X126324998Y-67500000I249998J0D01*
G01*
X126850002Y-67500000D01*
G75*
G02*
X127100000Y-67749998I0J-249998D01*
G01*
G37*
%TD.AperFunction*%
%TO.P,R7,1*%
%TO.N,/+3.3v*%
%TA.AperFunction,SMDPad,CuDef*%
G36*
G01*
X128925000Y-67749998D02*
X128925000Y-68650002D01*
G75*
G02*
X128675002Y-68900000I-249998J0D01*
G01*
X128149998Y-68900000D01*
G75*
G02*
X127900000Y-68650002I0J249998D01*
G01*
X127900000Y-67749998D01*
G75*
G02*
X128149998Y-67500000I249998J0D01*
G01*
X128675002Y-67500000D01*
G75*
G02*
X128925000Y-67749998I0J-249998D01*
G01*
G37*
%TD.AperFunction*%
%TD*%
%TO.P,R6,2*%
%TO.N,Net-(R6-Pad2)*%
%TA.AperFunction,SMDPad,CuDef*%
G36*
G01*
X121800000Y-63649998D02*
X121800000Y-64550002D01*
G75*
G02*
X121550002Y-64800000I-249998J0D01*
G01*
X121024998Y-64800000D01*
G75*
G02*
X120775000Y-64550002I0J249998D01*
G01*
X120775000Y-63649998D01*
G75*
G02*
X121024998Y-63400000I249998J0D01*
G01*
X121550002Y-63400000D01*
G75*
G02*
X121800000Y-63649998I0J-249998D01*
G01*
G37*
%TD.AperFunction*%
%TO.P,R6,1*%
%TO.N,/QSPI_SS*%
%TA.AperFunction,SMDPad,CuDef*%
G36*
G01*
X123625000Y-63649998D02*
X123625000Y-64550002D01*
G75*
G02*
X123375002Y-64800000I-249998J0D01*
G01*
X122849998Y-64800000D01*
G75*
G02*
X122600000Y-64550002I0J249998D01*
G01*
X122600000Y-63649998D01*
G75*
G02*
X122849998Y-63400000I249998J0D01*
G01*
X123375002Y-63400000D01*
G75*
G02*
X123625000Y-63649998I0J-249998D01*
G01*
G37*
%TD.AperFunction*%
%TD*%
D12*
%TO.P,J3,20*%
%TO.N,/GPIO16*%
X167900000Y-128180000D03*
%TO.P,J3,19*%
%TO.N,/GPIO17*%
X167900000Y-125640000D03*
%TO.P,J3,18*%
%TO.N,/+5v*%
X167900000Y-123100000D03*
%TO.P,J3,17*%
%TO.N,/GPIO18*%
X167900000Y-120560000D03*
%TO.P,J3,16*%
%TO.N,/GPIO19*%
X167900000Y-118020000D03*
%TO.P,J3,15*%
%TO.N,/GPIO20*%
X167900000Y-115480000D03*
%TO.P,J3,14*%
%TO.N,/GPIO21*%
X167900000Y-112940000D03*
%TO.P,J3,13*%
%TO.N,/+5v*%
X167900000Y-110400000D03*
%TO.P,J3,12*%
%TO.N,/GPIO22*%
X167900000Y-107860000D03*
%TO.P,J3,11*%
%TO.N,/GPIO26*%
X167900000Y-105320000D03*
%TO.P,J3,10*%
%TO.N,/GPIO27*%
X167900000Y-102780000D03*
%TO.P,J3,9*%
%TO.N,/GPIO28*%
X167900000Y-100240000D03*
%TO.P,J3,8*%
%TO.N,/+5v*%
X167900000Y-97700000D03*
%TO.P,J3,7*%
%TO.N,/+3.3v*%
X167900000Y-95160000D03*
%TO.P,J3,6*%
%TO.N,/+5v*%
X167900000Y-92620000D03*
%TO.P,J3,5*%
%TO.N,/+3.3v*%
X167900000Y-90080000D03*
%TO.P,J3,4*%
%TO.N,Net-(J3-Pad4)*%
X167900000Y-87540000D03*
%TO.P,J3,3*%
%TO.N,Net-(J3-Pad3)*%
X167900000Y-85000000D03*
%TO.P,J3,2*%
%TO.N,Net-(J3-Pad2)*%
X167900000Y-82460000D03*
D11*
%TO.P,J3,1*%
%TO.N,Net-(J3-Pad1)*%
X167900000Y-79920000D03*
%TD*%
D12*
%TO.P,J2,20*%
%TO.N,/GPIO15*%
X118300000Y-114300000D03*
%TO.P,J2,19*%
%TO.N,/GPIO14*%
X118300000Y-111760000D03*
%TO.P,J2,18*%
%TO.N,GND*%
X118300000Y-109220000D03*
%TO.P,J2,17*%
%TO.N,/GPIO13*%
X118300000Y-106680000D03*
%TO.P,J2,16*%
%TO.N,/GPIO12*%
X118300000Y-104140000D03*
%TO.P,J2,15*%
%TO.N,/GPIO11*%
X118300000Y-101600000D03*
%TO.P,J2,14*%
%TO.N,/GPIO10*%
X118300000Y-99060000D03*
%TO.P,J2,13*%
%TO.N,GND*%
X118300000Y-96520000D03*
%TO.P,J2,12*%
%TO.N,/GPIO9*%
X118300000Y-93980000D03*
%TO.P,J2,11*%
%TO.N,/GPIO8*%
X118300000Y-91440000D03*
%TO.P,J2,10*%
%TO.N,/GPIO7*%
X118300000Y-88900000D03*
%TO.P,J2,9*%
%TO.N,/GPIO6*%
X118300000Y-86360000D03*
%TO.P,J2,8*%
%TO.N,GND*%
X118300000Y-83820000D03*
%TO.P,J2,7*%
%TO.N,/GPIO5*%
X118300000Y-81280000D03*
%TO.P,J2,6*%
%TO.N,/GPIO4*%
X118300000Y-78740000D03*
%TO.P,J2,5*%
%TO.N,/GPIO3*%
X118300000Y-76200000D03*
%TO.P,J2,4*%
%TO.N,/GPIO2*%
X118300000Y-73660000D03*
%TO.P,J2,3*%
%TO.N,GND*%
X118300000Y-71120000D03*
%TO.P,J2,2*%
%TO.N,/GPIO1*%
X118300000Y-68580000D03*
D11*
%TO.P,J2,1*%
%TO.N,/GPIO0*%
X118300000Y-66040000D03*
%TD*%
%TO.P,D1,2*%
%TO.N,Net-(D1-Pad2)*%
%TA.AperFunction,SMDPad,CuDef*%
G36*
G01*
X157320000Y-70081250D02*
X157320000Y-69168750D01*
G75*
G02*
X157563750Y-68925000I243750J0D01*
G01*
X158051250Y-68925000D01*
G75*
G02*
X158295000Y-69168750I0J-243750D01*
G01*
X158295000Y-70081250D01*
G75*
G02*
X158051250Y-70325000I-243750J0D01*
G01*
X157563750Y-70325000D01*
G75*
G02*
X157320000Y-70081250I0J243750D01*
G01*
G37*
%TD.AperFunction*%
%TO.P,D1,1*%
%TO.N,GND*%
%TA.AperFunction,SMDPad,CuDef*%
G36*
G01*
X155445000Y-70081250D02*
X155445000Y-69168750D01*
G75*
G02*
X155688750Y-68925000I243750J0D01*
G01*
X156176250Y-68925000D01*
G75*
G02*
X156420000Y-69168750I0J-243750D01*
G01*
X156420000Y-70081250D01*
G75*
G02*
X156176250Y-70325000I-243750J0D01*
G01*
X155688750Y-70325000D01*
G75*
G02*
X155445000Y-70081250I0J243750D01*
G01*
G37*
%TD.AperFunction*%
%TD*%
%TO.P,C7,2*%
%TO.N,GND*%
%TA.AperFunction,SMDPad,CuDef*%
G36*
G01*
X152850000Y-70085000D02*
X152850000Y-69135000D01*
G75*
G02*
X153100000Y-68885000I250000J0D01*
G01*
X153600000Y-68885000D01*
G75*
G02*
X153850000Y-69135000I0J-250000D01*
G01*
X153850000Y-70085000D01*
G75*
G02*
X153600000Y-70335000I-250000J0D01*
G01*
X153100000Y-70335000D01*
G75*
G02*
X152850000Y-70085000I0J250000D01*
G01*
G37*
%TD.AperFunction*%
%TO.P,C7,1*%
%TO.N,/+3.3v*%
%TA.AperFunction,SMDPad,CuDef*%
G36*
G01*
X150950000Y-70085000D02*
X150950000Y-69135000D01*
G75*
G02*
X151200000Y-68885000I250000J0D01*
G01*
X151700000Y-68885000D01*
G75*
G02*
X151950000Y-69135000I0J-250000D01*
G01*
X151950000Y-70085000D01*
G75*
G02*
X151700000Y-70335000I-250000J0D01*
G01*
X151200000Y-70335000D01*
G75*
G02*
X150950000Y-70085000I0J250000D01*
G01*
G37*
%TD.AperFunction*%
%TD*%
%TO.P,C6,2*%
%TO.N,GND*%
%TA.AperFunction,SMDPad,CuDef*%
G36*
G01*
X166200000Y-67075000D02*
X166200000Y-66125000D01*
G75*
G02*
X166450000Y-65875000I250000J0D01*
G01*
X166950000Y-65875000D01*
G75*
G02*
X167200000Y-66125000I0J-250000D01*
G01*
X167200000Y-67075000D01*
G75*
G02*
X166950000Y-67325000I-250000J0D01*
G01*
X166450000Y-67325000D01*
G75*
G02*
X166200000Y-67075000I0J250000D01*
G01*
G37*
%TD.AperFunction*%
%TO.P,C6,1*%
%TO.N,Net-(C5-Pad1)*%
%TA.AperFunction,SMDPad,CuDef*%
G36*
G01*
X164300000Y-67075000D02*
X164300000Y-66125000D01*
G75*
G02*
X164550000Y-65875000I250000J0D01*
G01*
X165050000Y-65875000D01*
G75*
G02*
X165300000Y-66125000I0J-250000D01*
G01*
X165300000Y-67075000D01*
G75*
G02*
X165050000Y-67325000I-250000J0D01*
G01*
X164550000Y-67325000D01*
G75*
G02*
X164300000Y-67075000I0J250000D01*
G01*
G37*
%TD.AperFunction*%
%TD*%
%TO.P,C5,2*%
%TO.N,GND*%
%TA.AperFunction,SMDPad,CuDef*%
G36*
G01*
X161975000Y-82950000D02*
X161025000Y-82950000D01*
G75*
G02*
X160775000Y-82700000I0J250000D01*
G01*
X160775000Y-82200000D01*
G75*
G02*
X161025000Y-81950000I250000J0D01*
G01*
X161975000Y-81950000D01*
G75*
G02*
X162225000Y-82200000I0J-250000D01*
G01*
X162225000Y-82700000D01*
G75*
G02*
X161975000Y-82950000I-250000J0D01*
G01*
G37*
%TD.AperFunction*%
%TO.P,C5,1*%
%TO.N,Net-(C5-Pad1)*%
%TA.AperFunction,SMDPad,CuDef*%
G36*
G01*
X161975000Y-84850000D02*
X161025000Y-84850000D01*
G75*
G02*
X160775000Y-84600000I0J250000D01*
G01*
X160775000Y-84100000D01*
G75*
G02*
X161025000Y-83850000I250000J0D01*
G01*
X161975000Y-83850000D01*
G75*
G02*
X162225000Y-84100000I0J-250000D01*
G01*
X162225000Y-84600000D01*
G75*
G02*
X161975000Y-84850000I-250000J0D01*
G01*
G37*
%TD.AperFunction*%
%TD*%
%TO.P,C4,2*%
%TO.N,GND*%
%TA.AperFunction,SMDPad,CuDef*%
G36*
G01*
X154350000Y-73775000D02*
X154350000Y-72825000D01*
G75*
G02*
X154600000Y-72575000I250000J0D01*
G01*
X155100000Y-72575000D01*
G75*
G02*
X155350000Y-72825000I0J-250000D01*
G01*
X155350000Y-73775000D01*
G75*
G02*
X155100000Y-74025000I-250000J0D01*
G01*
X154600000Y-74025000D01*
G75*
G02*
X154350000Y-73775000I0J250000D01*
G01*
G37*
%TD.AperFunction*%
%TO.P,C4,1*%
%TO.N,/XOUT*%
%TA.AperFunction,SMDPad,CuDef*%
G36*
G01*
X152450000Y-73775000D02*
X152450000Y-72825000D01*
G75*
G02*
X152700000Y-72575000I250000J0D01*
G01*
X153200000Y-72575000D01*
G75*
G02*
X153450000Y-72825000I0J-250000D01*
G01*
X153450000Y-73775000D01*
G75*
G02*
X153200000Y-74025000I-250000J0D01*
G01*
X152700000Y-74025000D01*
G75*
G02*
X152450000Y-73775000I0J250000D01*
G01*
G37*
%TD.AperFunction*%
%TD*%
%TO.P,C3,2*%
%TO.N,GND*%
%TA.AperFunction,SMDPad,CuDef*%
G36*
G01*
X145125000Y-77850000D02*
X144175000Y-77850000D01*
G75*
G02*
X143925000Y-77600000I0J250000D01*
G01*
X143925000Y-77100000D01*
G75*
G02*
X144175000Y-76850000I250000J0D01*
G01*
X145125000Y-76850000D01*
G75*
G02*
X145375000Y-77100000I0J-250000D01*
G01*
X145375000Y-77600000D01*
G75*
G02*
X145125000Y-77850000I-250000J0D01*
G01*
G37*
%TD.AperFunction*%
%TO.P,C3,1*%
%TO.N,/XIN*%
%TA.AperFunction,SMDPad,CuDef*%
G36*
G01*
X145125000Y-79750000D02*
X144175000Y-79750000D01*
G75*
G02*
X143925000Y-79500000I0J250000D01*
G01*
X143925000Y-79000000D01*
G75*
G02*
X144175000Y-78750000I250000J0D01*
G01*
X145125000Y-78750000D01*
G75*
G02*
X145375000Y-79000000I0J-250000D01*
G01*
X145375000Y-79500000D01*
G75*
G02*
X145125000Y-79750000I-250000J0D01*
G01*
G37*
%TD.AperFunction*%
%TD*%
D14*
%TO.P,SW1,2*%
%TO.N,Net-(R5-Pad1)*%
X145380000Y-129950000D03*
%TO.P,SW1,1*%
%TO.N,GND*%
X145380000Y-125450000D03*
X137420000Y-125450000D03*
%TO.P,SW1,2*%
%TO.N,Net-(R5-Pad1)*%
X137420000Y-129950000D03*
%TD*%
%TO.P,R5,2*%
%TO.N,Net-(R5-Pad2)*%
%TA.AperFunction,SMDPad,CuDef*%
G36*
G01*
X151000000Y-129650002D02*
X151000000Y-128749998D01*
G75*
G02*
X151249998Y-128500000I249998J0D01*
G01*
X151775002Y-128500000D01*
G75*
G02*
X152025000Y-128749998I0J-249998D01*
G01*
X152025000Y-129650002D01*
G75*
G02*
X151775002Y-129900000I-249998J0D01*
G01*
X151249998Y-129900000D01*
G75*
G02*
X151000000Y-129650002I0J249998D01*
G01*
G37*
%TD.AperFunction*%
%TO.P,R5,1*%
%TO.N,Net-(R5-Pad1)*%
%TA.AperFunction,SMDPad,CuDef*%
G36*
G01*
X149175000Y-129650002D02*
X149175000Y-128749998D01*
G75*
G02*
X149424998Y-128500000I249998J0D01*
G01*
X149950002Y-128500000D01*
G75*
G02*
X150200000Y-128749998I0J-249998D01*
G01*
X150200000Y-129650002D01*
G75*
G02*
X149950002Y-129900000I-249998J0D01*
G01*
X149424998Y-129900000D01*
G75*
G02*
X149175000Y-129650002I0J249998D01*
G01*
G37*
%TD.AperFunction*%
%TD*%
%TO.P,C2,2*%
%TO.N,GND*%
%TA.AperFunction,SMDPad,CuDef*%
G36*
G01*
X156300000Y-103275000D02*
X156300000Y-102325000D01*
G75*
G02*
X156550000Y-102075000I250000J0D01*
G01*
X157050000Y-102075000D01*
G75*
G02*
X157300000Y-102325000I0J-250000D01*
G01*
X157300000Y-103275000D01*
G75*
G02*
X157050000Y-103525000I-250000J0D01*
G01*
X156550000Y-103525000D01*
G75*
G02*
X156300000Y-103275000I0J250000D01*
G01*
G37*
%TD.AperFunction*%
%TO.P,C2,1*%
%TO.N,/+3.3v*%
%TA.AperFunction,SMDPad,CuDef*%
G36*
G01*
X154400000Y-103275000D02*
X154400000Y-102325000D01*
G75*
G02*
X154650000Y-102075000I250000J0D01*
G01*
X155150000Y-102075000D01*
G75*
G02*
X155400000Y-102325000I0J-250000D01*
G01*
X155400000Y-103275000D01*
G75*
G02*
X155150000Y-103525000I-250000J0D01*
G01*
X154650000Y-103525000D01*
G75*
G02*
X154400000Y-103275000I0J250000D01*
G01*
G37*
%TD.AperFunction*%
%TD*%
%TO.P,C1,2*%
%TO.N,GND*%
%TA.AperFunction,SMDPad,CuDef*%
G36*
G01*
X174550000Y-92475000D02*
X174550000Y-91525000D01*
G75*
G02*
X174800000Y-91275000I250000J0D01*
G01*
X175300000Y-91275000D01*
G75*
G02*
X175550000Y-91525000I0J-250000D01*
G01*
X175550000Y-92475000D01*
G75*
G02*
X175300000Y-92725000I-250000J0D01*
G01*
X174800000Y-92725000D01*
G75*
G02*
X174550000Y-92475000I0J250000D01*
G01*
G37*
%TD.AperFunction*%
%TO.P,C1,1*%
%TO.N,/+5v*%
%TA.AperFunction,SMDPad,CuDef*%
G36*
G01*
X172650000Y-92475000D02*
X172650000Y-91525000D01*
G75*
G02*
X172900000Y-91275000I250000J0D01*
G01*
X173400000Y-91275000D01*
G75*
G02*
X173650000Y-91525000I0J-250000D01*
G01*
X173650000Y-92475000D01*
G75*
G02*
X173400000Y-92725000I-250000J0D01*
G01*
X172900000Y-92725000D01*
G75*
G02*
X172650000Y-92475000I0J250000D01*
G01*
G37*
%TD.AperFunction*%
%TD*%
%TO.P,R4,1*%
%TO.N,GND*%
%TA.AperFunction,SMDPad,CuDef*%
G36*
G01*
X187625000Y-103549998D02*
X187625000Y-104450002D01*
G75*
G02*
X187375002Y-104700000I-249998J0D01*
G01*
X186849998Y-104700000D01*
G75*
G02*
X186600000Y-104450002I0J249998D01*
G01*
X186600000Y-103549998D01*
G75*
G02*
X186849998Y-103300000I249998J0D01*
G01*
X187375002Y-103300000D01*
G75*
G02*
X187625000Y-103549998I0J-249998D01*
G01*
G37*
%TD.AperFunction*%
%TO.P,R4,2*%
%TO.N,Net-(J1-PadB5)*%
%TA.AperFunction,SMDPad,CuDef*%
G36*
G01*
X185800000Y-103549998D02*
X185800000Y-104450002D01*
G75*
G02*
X185550002Y-104700000I-249998J0D01*
G01*
X185024998Y-104700000D01*
G75*
G02*
X184775000Y-104450002I0J249998D01*
G01*
X184775000Y-103549998D01*
G75*
G02*
X185024998Y-103300000I249998J0D01*
G01*
X185550002Y-103300000D01*
G75*
G02*
X185800000Y-103549998I0J-249998D01*
G01*
G37*
%TD.AperFunction*%
%TD*%
%TO.P,R3,2*%
%TO.N,Net-(J1-PadA5)*%
%TA.AperFunction,SMDPad,CuDef*%
G36*
G01*
X173800000Y-95949998D02*
X173800000Y-96850002D01*
G75*
G02*
X173550002Y-97100000I-249998J0D01*
G01*
X173024998Y-97100000D01*
G75*
G02*
X172775000Y-96850002I0J249998D01*
G01*
X172775000Y-95949998D01*
G75*
G02*
X173024998Y-95700000I249998J0D01*
G01*
X173550002Y-95700000D01*
G75*
G02*
X173800000Y-95949998I0J-249998D01*
G01*
G37*
%TD.AperFunction*%
%TO.P,R3,1*%
%TO.N,GND*%
%TA.AperFunction,SMDPad,CuDef*%
G36*
G01*
X175625000Y-95949998D02*
X175625000Y-96850002D01*
G75*
G02*
X175375002Y-97100000I-249998J0D01*
G01*
X174849998Y-97100000D01*
G75*
G02*
X174600000Y-96850002I0J249998D01*
G01*
X174600000Y-95949998D01*
G75*
G02*
X174849998Y-95700000I249998J0D01*
G01*
X175375002Y-95700000D01*
G75*
G02*
X175625000Y-95949998I0J-249998D01*
G01*
G37*
%TD.AperFunction*%
%TD*%
%TO.P,R2,2*%
%TO.N,Net-(R2-Pad2)*%
%TA.AperFunction,SMDPad,CuDef*%
G36*
G01*
X176750002Y-108000000D02*
X175849998Y-108000000D01*
G75*
G02*
X175600000Y-107750002I0J249998D01*
G01*
X175600000Y-107224998D01*
G75*
G02*
X175849998Y-106975000I249998J0D01*
G01*
X176750002Y-106975000D01*
G75*
G02*
X177000000Y-107224998I0J-249998D01*
G01*
X177000000Y-107750002D01*
G75*
G02*
X176750002Y-108000000I-249998J0D01*
G01*
G37*
%TD.AperFunction*%
%TO.P,R2,1*%
%TO.N,/D-*%
%TA.AperFunction,SMDPad,CuDef*%
G36*
G01*
X176750002Y-109825000D02*
X175849998Y-109825000D01*
G75*
G02*
X175600000Y-109575002I0J249998D01*
G01*
X175600000Y-109049998D01*
G75*
G02*
X175849998Y-108800000I249998J0D01*
G01*
X176750002Y-108800000D01*
G75*
G02*
X177000000Y-109049998I0J-249998D01*
G01*
X177000000Y-109575002D01*
G75*
G02*
X176750002Y-109825000I-249998J0D01*
G01*
G37*
%TD.AperFunction*%
%TD*%
%TO.P,R1,2*%
%TO.N,Net-(R1-Pad2)*%
%TA.AperFunction,SMDPad,CuDef*%
G36*
G01*
X181550002Y-105112500D02*
X180649998Y-105112500D01*
G75*
G02*
X180400000Y-104862502I0J249998D01*
G01*
X180400000Y-104337498D01*
G75*
G02*
X180649998Y-104087500I249998J0D01*
G01*
X181550002Y-104087500D01*
G75*
G02*
X181800000Y-104337498I0J-249998D01*
G01*
X181800000Y-104862502D01*
G75*
G02*
X181550002Y-105112500I-249998J0D01*
G01*
G37*
%TD.AperFunction*%
%TO.P,R1,1*%
%TO.N,/D+*%
%TA.AperFunction,SMDPad,CuDef*%
G36*
G01*
X181550002Y-106937500D02*
X180649998Y-106937500D01*
G75*
G02*
X180400000Y-106687502I0J249998D01*
G01*
X180400000Y-106162498D01*
G75*
G02*
X180649998Y-105912500I249998J0D01*
G01*
X181550002Y-105912500D01*
G75*
G02*
X181800000Y-106162498I0J-249998D01*
G01*
X181800000Y-106687502D01*
G75*
G02*
X181550002Y-106937500I-249998J0D01*
G01*
G37*
%TD.AperFunction*%
%TD*%
D15*
%TO.P,J1,B1*%
%TO.N,GND*%
X179450000Y-122455000D03*
%TO.P,J1,A9*%
%TO.N,/+5v*%
X178650000Y-122455000D03*
%TO.P,J1,B9*%
X173750000Y-122455000D03*
%TO.P,J1,B12*%
%TO.N,GND*%
X172950000Y-122455000D03*
%TO.P,J1,A1*%
X172950000Y-122455000D03*
%TO.P,J1,A4*%
%TO.N,/+5v*%
X173750000Y-122455000D03*
%TO.P,J1,B4*%
X178650000Y-122455000D03*
%TO.P,J1,A12*%
%TO.N,GND*%
X179450000Y-122455000D03*
D16*
%TO.P,J1,B8*%
%TO.N,Net-(J1-PadB8)*%
X174450000Y-122455000D03*
%TO.P,J1,A5*%
%TO.N,Net-(J1-PadA5)*%
X174950000Y-122455000D03*
%TO.P,J1,B7*%
%TO.N,/D-*%
X175450000Y-122455000D03*
%TO.P,J1,A7*%
X176450000Y-122455000D03*
%TO.P,J1,B6*%
%TO.N,/D+*%
X176950000Y-122455000D03*
%TO.P,J1,A8*%
%TO.N,Net-(J1-PadA8)*%
X177450000Y-122455000D03*
%TO.P,J1,B5*%
%TO.N,Net-(J1-PadB5)*%
X177950000Y-122455000D03*
%TO.P,J1,A6*%
%TO.N,/D+*%
X175950000Y-122455000D03*
D17*
%TO.P,J1,S1*%
%TO.N,GND*%
X180520000Y-123370000D03*
X171880000Y-123370000D03*
D18*
X171880000Y-127550000D03*
X180520000Y-127550000D03*
%TD*%
D19*
%TO.P,U2,5*%
%TO.N,/+3.3v*%
X137750000Y-81700000D03*
%TO.P,U2,4*%
%TO.N,Net-(U2-Pad4)*%
X139650000Y-81700000D03*
%TO.P,U2,3*%
%TO.N,/+5v*%
X139650000Y-83900000D03*
%TO.P,U2,2*%
%TO.N,GND*%
X138700000Y-83900000D03*
%TO.P,U2,1*%
%TO.N,/+5v*%
X137750000Y-83900000D03*
%TD*%
D20*
%TO.N,GND*%
X147700000Y-131000000D03*
X147500000Y-127900000D03*
X137300000Y-123400000D03*
X128200000Y-85700000D03*
X134000000Y-86900000D03*
X137900000Y-85900000D03*
X156600000Y-105900000D03*
X115600000Y-121100000D03*
X117500000Y-119100000D03*
%TO.N,Net-(R1-Pad2)*%
X141170000Y-111200000D03*
X178100000Y-105500000D03*
%TO.N,Net-(R2-Pad2)*%
X142200000Y-110700000D03*
X174200000Y-107600000D03*
%TO.N,/+5v*%
X141200000Y-83700000D03*
%TO.N,/+3.3v*%
X135500000Y-74700000D03*
X130400000Y-70800000D03*
%TO.N,/XIN*%
X141800000Y-123400000D03*
X145500000Y-113200000D03*
X152500000Y-96000000D03*
X150700000Y-91900000D03*
%TO.N,/XOUT*%
X141770000Y-121500003D03*
X150200000Y-72700000D03*
%TO.N,Net-(C5-Pad1)*%
X141770000Y-120500000D03*
X140850000Y-107950000D03*
X162500000Y-67700000D03*
X159100000Y-84200000D03*
X144400000Y-101900000D03*
X141900000Y-104500000D03*
%TO.N,Net-(D1-Pad2)*%
X161900000Y-74900000D03*
X160800000Y-69400000D03*
%TO.N,/D-*%
X176300000Y-110900000D03*
X179000000Y-116800000D03*
%TO.N,/GPIO26*%
X150299990Y-111800000D03*
X160600000Y-110400000D03*
%TO.N,/GPIO27*%
X155200000Y-107200000D03*
%TO.N,/GPIO28*%
X144422460Y-111798374D03*
X154100000Y-104100000D03*
X165300000Y-100200000D03*
X142826833Y-113811379D03*
%TO.N,/SWCLK*%
X141553536Y-118157490D03*
%TO.N,/SWD*%
X143000000Y-118200000D03*
%TD*%
D21*
%TO.N,GND*%
X145380000Y-125450000D02*
X137420000Y-125450000D01*
X137420000Y-125450000D02*
X134780000Y-125450000D01*
X126820000Y-125450000D02*
X134780000Y-125450000D01*
X126820000Y-125450000D02*
X126250000Y-125450000D01*
X126250000Y-125450000D02*
X118000000Y-117200000D01*
X116400000Y-117200000D02*
X115600000Y-116400000D01*
X115600000Y-111920000D02*
X118300000Y-109220000D01*
X115600000Y-116400000D02*
X115600000Y-111920000D01*
D22*
X180520000Y-127550000D02*
X180520000Y-123370000D01*
X179605000Y-122455000D02*
X180520000Y-123370000D01*
X179450000Y-122455000D02*
X179605000Y-122455000D01*
X172035000Y-123370000D02*
X172950000Y-122455000D01*
X171880000Y-123370000D02*
X172035000Y-123370000D01*
X171880000Y-123370000D02*
X171880000Y-127550000D01*
X172684999Y-124200001D02*
X172684999Y-123615001D01*
X173009999Y-124525001D02*
X172684999Y-124200001D01*
X179390001Y-124525001D02*
X173009999Y-124525001D01*
X179715001Y-124200001D02*
X179390001Y-124525001D01*
X179715001Y-123599999D02*
X179715001Y-124200001D01*
X179450000Y-123334998D02*
X179715001Y-123599999D01*
X179450000Y-122455000D02*
X179450000Y-123334998D01*
X172950000Y-123350000D02*
X172950000Y-122455000D01*
X172684999Y-123615001D02*
X172950000Y-123350000D01*
X179450000Y-122455000D02*
X179450000Y-121650000D01*
X179450000Y-121650000D02*
X183500000Y-117600000D01*
X183500000Y-117600000D02*
X183500000Y-110800000D01*
X187112500Y-107187500D02*
X187112500Y-104000000D01*
X183500000Y-110800000D02*
X187112500Y-107187500D01*
X187112500Y-104000000D02*
X186900000Y-104000000D01*
X186900000Y-104000000D02*
X181000000Y-98100000D01*
X181000000Y-98100000D02*
X178000000Y-98100000D01*
X176300000Y-96400000D02*
X175112500Y-96400000D01*
X178000000Y-98100000D02*
X176300000Y-96400000D01*
X171880000Y-123370000D02*
X171880000Y-128620000D01*
X169500000Y-131000000D02*
X147700000Y-131000000D01*
X171880000Y-128620000D02*
X169500000Y-131000000D01*
X145380000Y-125780000D02*
X145380000Y-125450000D01*
X147500000Y-127900000D02*
X145380000Y-125780000D01*
X137420000Y-123520000D02*
X137300000Y-123400000D01*
X137420000Y-125450000D02*
X137420000Y-123520000D01*
X175050000Y-96337500D02*
X175112500Y-96400000D01*
X175050000Y-92000000D02*
X175050000Y-96337500D01*
X117149999Y-72270001D02*
X118300000Y-71120000D01*
X117149999Y-82669999D02*
X117149999Y-72270001D01*
X118300000Y-83820000D02*
X117149999Y-82669999D01*
X117149999Y-95369999D02*
X118300000Y-96520000D01*
X117149999Y-84970001D02*
X117149999Y-95369999D01*
X118300000Y-83820000D02*
X117149999Y-84970001D01*
X117149999Y-97670001D02*
X118300000Y-96520000D01*
X117149999Y-108069999D02*
X117149999Y-97670001D01*
X118300000Y-109220000D02*
X117149999Y-108069999D01*
X129171412Y-85700000D02*
X131305000Y-87833588D01*
X131305000Y-87833588D02*
X131305000Y-88000000D01*
X128200000Y-85700000D02*
X129171412Y-85700000D01*
X132900000Y-88000000D02*
X134000000Y-86900000D01*
X131305000Y-88000000D02*
X132900000Y-88000000D01*
X138700000Y-84400000D02*
X138700000Y-83900000D01*
X138700000Y-84630000D02*
X140470000Y-86400000D01*
X138700000Y-83900000D02*
X138700000Y-84630000D01*
X140470000Y-86400000D02*
X140700000Y-86400000D01*
X140700000Y-86400000D02*
X142200000Y-84900000D01*
X142200000Y-79800000D02*
X144650000Y-77350000D01*
X142200000Y-84900000D02*
X142200000Y-79800000D01*
X138700000Y-85100000D02*
X138700000Y-83900000D01*
X137900000Y-85900000D02*
X138700000Y-85100000D01*
X156600000Y-103000000D02*
X156800000Y-102800000D01*
X156600000Y-105900000D02*
X156600000Y-103000000D01*
X150450000Y-77350000D02*
X151000000Y-77900000D01*
X144650000Y-77350000D02*
X150450000Y-77350000D01*
X154850000Y-74050000D02*
X151000000Y-77900000D01*
X154850000Y-73300000D02*
X154850000Y-74050000D01*
X154850000Y-70707500D02*
X155932500Y-69625000D01*
X154850000Y-73300000D02*
X154850000Y-70707500D01*
X153365000Y-69625000D02*
X153350000Y-69610000D01*
X155932500Y-69625000D02*
X153365000Y-69625000D01*
X162674990Y-70625010D02*
X166700000Y-66600000D01*
X156932510Y-70625010D02*
X162674990Y-70625010D01*
X155932500Y-69625000D02*
X156932510Y-70625010D01*
X156050000Y-82450000D02*
X153200000Y-79600000D01*
X161500000Y-82450000D02*
X156050000Y-82450000D01*
X151400000Y-77900000D02*
X151000000Y-77900000D01*
X153100000Y-79600000D02*
X151400000Y-77900000D01*
X153200000Y-79600000D02*
X153100000Y-79600000D01*
X139670000Y-119237500D02*
X139670000Y-121530000D01*
X137665698Y-123400000D02*
X137300000Y-123400000D01*
X139365698Y-121700000D02*
X137665698Y-123400000D01*
X139500000Y-121700000D02*
X139365698Y-121700000D01*
X139670000Y-121530000D02*
X139500000Y-121700000D01*
X114640000Y-122060000D02*
X115600000Y-121100000D01*
X114640000Y-124200000D02*
X114640000Y-122060000D01*
X117500000Y-117500000D02*
X117200000Y-117200000D01*
X117500000Y-119100000D02*
X117500000Y-117500000D01*
D21*
X117200000Y-117200000D02*
X116400000Y-117200000D01*
X118000000Y-117200000D02*
X117200000Y-117200000D01*
D22*
%TO.N,Net-(J1-PadA5)*%
X174950000Y-122455000D02*
X174950000Y-110050000D01*
X173287500Y-108387500D02*
X173287500Y-96400000D01*
X174950000Y-110050000D02*
X173287500Y-108387500D01*
%TO.N,Net-(J1-PadB5)*%
X177950000Y-121650000D02*
X177950000Y-122455000D01*
X182100000Y-117500000D02*
X177950000Y-121650000D01*
X182100000Y-109675000D02*
X182100000Y-117500000D01*
X185287500Y-106487500D02*
X182100000Y-109675000D01*
X185287500Y-104000000D02*
X185287500Y-106487500D01*
%TO.N,Net-(R1-Pad2)*%
X141670000Y-111700000D02*
X141170000Y-111200000D01*
X141670000Y-112362500D02*
X141670000Y-111700000D01*
X179000000Y-104600000D02*
X181100000Y-104600000D01*
X178100000Y-105500000D02*
X179000000Y-104600000D01*
%TO.N,Net-(R2-Pad2)*%
X142070000Y-110830000D02*
X142200000Y-110700000D01*
X142070000Y-112362500D02*
X142070000Y-110830000D01*
X176187500Y-107600000D02*
X176300000Y-107487500D01*
X174200000Y-107600000D02*
X176187500Y-107600000D01*
%TO.N,Net-(R5-Pad2)*%
X151512500Y-129012500D02*
X151512500Y-129200000D01*
X142470000Y-119237500D02*
X142470000Y-122470000D01*
X142470000Y-122470000D02*
X144000000Y-124000000D01*
X146312500Y-124000000D02*
X151512500Y-129200000D01*
X144000000Y-124000000D02*
X146312500Y-124000000D01*
D21*
%TO.N,Net-(R5-Pad1)*%
X146130000Y-129200000D02*
X145380000Y-129950000D01*
X149687500Y-129200000D02*
X146130000Y-129200000D01*
X137420000Y-129950000D02*
X145380000Y-129950000D01*
D22*
%TO.N,/+5v*%
X173935001Y-123735001D02*
X173935001Y-122640001D01*
X174324991Y-124124991D02*
X173935001Y-123735001D01*
X177905009Y-124124991D02*
X174324991Y-124124991D01*
X173935001Y-122640001D02*
X173750000Y-122455000D01*
X178650000Y-123380000D02*
X177905009Y-124124991D01*
X178650000Y-122455000D02*
X178650000Y-123380000D01*
X167900000Y-97250000D02*
X167900000Y-97700000D01*
X139650000Y-83454998D02*
X139650000Y-83900000D01*
X139265001Y-83069999D02*
X139650000Y-83454998D01*
X137850001Y-83069999D02*
X139265001Y-83069999D01*
X137750000Y-83170000D02*
X137850001Y-83069999D01*
X137750000Y-83900000D02*
X137750000Y-83170000D01*
X171400000Y-101200000D02*
X167900000Y-97700000D01*
X171400000Y-108300000D02*
X171400000Y-101200000D01*
X139850000Y-83700000D02*
X139650000Y-83900000D01*
X141200000Y-83700000D02*
X139850000Y-83700000D01*
X170005000Y-94725000D02*
X167900000Y-92620000D01*
X170425000Y-94725000D02*
X170005000Y-94725000D01*
X173150000Y-92000000D02*
X170425000Y-94725000D01*
X170425000Y-94725000D02*
X167900000Y-97250000D01*
X169900000Y-108400000D02*
X167900000Y-110400000D01*
X171500000Y-108400000D02*
X169900000Y-108400000D01*
X173750000Y-110650000D02*
X171500000Y-108400000D01*
X171500000Y-108400000D02*
X171400000Y-108300000D01*
X167900000Y-123100000D02*
X171100000Y-119900000D01*
X171100000Y-119900000D02*
X172300000Y-119900000D01*
X173050000Y-119150000D02*
X173750000Y-119150000D01*
X172300000Y-119900000D02*
X173050000Y-119150000D01*
X173750000Y-119150000D02*
X173750000Y-110650000D01*
X173750000Y-122455000D02*
X173750000Y-119150000D01*
%TO.N,/+3.3v*%
X137232500Y-116800000D02*
X137900000Y-116800000D01*
X138700000Y-116800000D02*
X137232500Y-116800000D01*
X140870000Y-112894990D02*
X140870000Y-112362500D01*
X140564990Y-113200000D02*
X140870000Y-112894990D01*
X141205010Y-112894990D02*
X141210020Y-112900000D01*
X140870000Y-112894990D02*
X141205010Y-112894990D01*
X141270000Y-112830000D02*
X141270000Y-112362500D01*
X141210020Y-112889980D02*
X141270000Y-112830000D01*
X141210020Y-112900000D02*
X141210020Y-112889980D01*
X142870000Y-112894990D02*
X142870000Y-112362500D01*
X142664980Y-113100010D02*
X142870000Y-112894990D01*
X141420050Y-113100010D02*
X142664980Y-113100010D01*
X141210020Y-112889980D02*
X141420050Y-113100010D01*
X143270000Y-112800000D02*
X143270000Y-112362500D01*
X142969990Y-113100010D02*
X143270000Y-112800000D01*
X142664980Y-113100010D02*
X142969990Y-113100010D01*
X143600000Y-113200000D02*
X144107500Y-113200000D01*
X143500010Y-113100010D02*
X143600000Y-113200000D01*
X142969990Y-113100010D02*
X143300010Y-113100010D01*
X143300010Y-113100010D02*
X143500010Y-113100010D01*
X138700000Y-117369926D02*
X138700000Y-116800000D01*
X136800000Y-83380000D02*
X136800000Y-90634302D01*
X137750000Y-82430000D02*
X136800000Y-83380000D01*
X137750000Y-81700000D02*
X137750000Y-82430000D01*
X136800000Y-90634302D02*
X139200000Y-93034302D01*
X139200000Y-93034302D02*
X139200000Y-93500000D01*
X142750000Y-97050000D02*
X142750000Y-102800000D01*
X139200000Y-93500000D02*
X142750000Y-97050000D01*
X137750000Y-76950000D02*
X135500000Y-74700000D01*
X137750000Y-81700000D02*
X137750000Y-76950000D01*
X128412500Y-68812500D02*
X128412500Y-68200000D01*
X143900010Y-103950010D02*
X142750000Y-102800000D01*
X143900010Y-111332490D02*
X143900010Y-103950010D01*
X142870000Y-112362500D02*
X143900010Y-111332490D01*
X145050020Y-102800000D02*
X143900010Y-103950010D01*
X154900000Y-102800000D02*
X145050020Y-102800000D01*
X140870000Y-119237500D02*
X140870000Y-118670000D01*
X140870000Y-118670000D02*
X140600000Y-118400000D01*
X139730074Y-118400000D02*
X138700000Y-117369926D01*
X140600000Y-118400000D02*
X139730074Y-118400000D01*
X138600000Y-114130074D02*
X138600000Y-113200000D01*
X138700000Y-114230074D02*
X138600000Y-114130074D01*
X138700000Y-116800000D02*
X138700000Y-114230074D01*
X138600000Y-113200000D02*
X140564990Y-113200000D01*
X137232500Y-113200000D02*
X138600000Y-113200000D01*
X166749999Y-94009999D02*
X167900000Y-95160000D01*
X166749999Y-91230001D02*
X166749999Y-94009999D01*
X167900000Y-90080000D02*
X166749999Y-91230001D01*
%TO.N,/XIN*%
X145000000Y-79600000D02*
X144650000Y-79250000D01*
X151000000Y-79600000D02*
X145000000Y-79600000D01*
X140070000Y-121730000D02*
X139900000Y-121900000D01*
X140070000Y-119237500D02*
X140070000Y-121730000D01*
X140300000Y-121900000D02*
X141800000Y-123400000D01*
X139900000Y-121900000D02*
X140300000Y-121900000D01*
X155700010Y-99200010D02*
X152500000Y-96000000D01*
X155700010Y-103565675D02*
X155700010Y-99200010D01*
X146065685Y-113200000D02*
X155700010Y-103565675D01*
X145500000Y-113200000D02*
X146065685Y-113200000D01*
X150700000Y-79900000D02*
X151000000Y-79600000D01*
X150700000Y-91900000D02*
X150700000Y-79900000D01*
%TO.N,/XOUT*%
X159570010Y-71529990D02*
X153200000Y-77900000D01*
X165770010Y-71529990D02*
X159570010Y-71529990D01*
X167500010Y-69799990D02*
X165770010Y-71529990D01*
X167500010Y-65897176D02*
X167500010Y-69799990D01*
X167177824Y-65574990D02*
X167500010Y-65897176D01*
X155882176Y-65574990D02*
X167177824Y-65574990D01*
X152451171Y-69005995D02*
X155882176Y-65574990D01*
X152451171Y-72801171D02*
X152451171Y-69005995D01*
X152950000Y-73300000D02*
X152451171Y-72801171D01*
X140470000Y-120200003D02*
X141770000Y-121500003D01*
X140470000Y-119237500D02*
X140470000Y-120200003D01*
X152350000Y-72700000D02*
X152950000Y-73300000D01*
X150200000Y-72700000D02*
X152350000Y-72700000D01*
%TO.N,Net-(C5-Pad1)*%
X143200000Y-110100000D02*
X143500000Y-110400000D01*
X143500000Y-110400000D02*
X143500000Y-110500000D01*
X142470000Y-111830010D02*
X142470000Y-112362500D01*
X142600000Y-111700010D02*
X142470000Y-111830010D01*
X142600000Y-111400000D02*
X142600000Y-111700010D01*
X143500000Y-110500000D02*
X142600000Y-111400000D01*
X143200000Y-110100000D02*
X143200000Y-109000000D01*
X143200000Y-109000000D02*
X143100000Y-108900000D01*
X143100000Y-108900000D02*
X143100000Y-107600000D01*
X142200000Y-106700000D02*
X142100000Y-106700000D01*
X140470000Y-108804301D02*
X140470000Y-110430000D01*
X140400000Y-108734301D02*
X140470000Y-108804301D01*
X140400000Y-108400000D02*
X140400000Y-108734301D01*
X140470000Y-110430000D02*
X140470000Y-110330000D01*
X140470000Y-112362500D02*
X140470000Y-110430000D01*
X141270000Y-120000000D02*
X141770000Y-120500000D01*
X141270000Y-119237500D02*
X141270000Y-120000000D01*
X140850000Y-107950000D02*
X140400000Y-108400000D01*
X142100000Y-106700000D02*
X140850000Y-107950000D01*
X163600000Y-66600000D02*
X162500000Y-67700000D01*
X164800000Y-66600000D02*
X163600000Y-66600000D01*
X161350000Y-84200000D02*
X161500000Y-84350000D01*
X159100000Y-84200000D02*
X161350000Y-84200000D01*
X159100000Y-87200000D02*
X144400000Y-101900000D01*
X159100000Y-84200000D02*
X159100000Y-87200000D01*
X141900000Y-106400000D02*
X142500000Y-107000000D01*
X141900000Y-104500000D02*
X141900000Y-106400000D01*
X142500000Y-107000000D02*
X142200000Y-106700000D01*
X143100000Y-107600000D02*
X142500000Y-107000000D01*
%TO.N,/+3.3v*%
X127495000Y-80000000D02*
X137885000Y-69610000D01*
X127495000Y-80800000D02*
X127495000Y-80000000D01*
X167347999Y-98850001D02*
X166749999Y-98252001D01*
X168212003Y-98850001D02*
X167347999Y-98850001D01*
X169050001Y-99687999D02*
X168212003Y-98850001D01*
X166749999Y-96310001D02*
X167900000Y-95160000D01*
X169050001Y-108412001D02*
X169050001Y-99687999D01*
X168452001Y-109010001D02*
X169050001Y-108412001D01*
X167347999Y-109010001D02*
X168452001Y-109010001D01*
X166257990Y-110100010D02*
X167347999Y-109010001D01*
X166749999Y-98252001D02*
X166749999Y-96310001D01*
X163599990Y-110100010D02*
X166257990Y-110100010D01*
X156900000Y-116800000D02*
X163599990Y-110100010D01*
X144107500Y-116800000D02*
X156900000Y-116800000D01*
X129300000Y-69700000D02*
X137920000Y-69700000D01*
X138010000Y-69610000D02*
X151450000Y-69610000D01*
X137920000Y-69700000D02*
X138010000Y-69610000D01*
X137885000Y-69610000D02*
X138010000Y-69610000D01*
X130400000Y-70800000D02*
X129300000Y-69700000D01*
X129300000Y-69700000D02*
X128412500Y-68812500D01*
%TO.N,Net-(D1-Pad2)*%
X162192500Y-74607500D02*
X161900000Y-74900000D01*
X162192500Y-72530000D02*
X162192500Y-74607500D01*
X158032500Y-69400000D02*
X157807500Y-69625000D01*
X160800000Y-69400000D02*
X158032500Y-69400000D01*
%TO.N,/D-*%
X176450000Y-123370002D02*
X176450000Y-122455000D01*
X176340001Y-123480001D02*
X176450000Y-123370002D01*
X175550001Y-123480001D02*
X176340001Y-123480001D01*
X175450000Y-123380000D02*
X175550001Y-123480001D01*
X175450000Y-122455000D02*
X175450000Y-123380000D01*
X176300000Y-109312500D02*
X176300000Y-110900000D01*
X179000000Y-116800000D02*
X176800000Y-119000000D01*
X176450000Y-121350000D02*
X176450000Y-122455000D01*
X176800000Y-121000000D02*
X176450000Y-121350000D01*
X176800000Y-119000000D02*
X176800000Y-121000000D01*
%TO.N,/D+*%
X175950000Y-122455000D02*
X175950000Y-112950000D01*
X181100000Y-107800000D02*
X181100000Y-106425000D01*
X179700001Y-110400001D02*
X179100000Y-109800000D01*
X179700001Y-118665697D02*
X179700001Y-110400001D01*
X176950000Y-121415698D02*
X179700001Y-118665697D01*
X176950000Y-122455000D02*
X176950000Y-121415698D01*
X179100000Y-109800000D02*
X181100000Y-107800000D01*
X175950000Y-112950000D02*
X179100000Y-109800000D01*
%TO.N,/GPIO15*%
X139270000Y-119237500D02*
X139270000Y-121230000D01*
X139270000Y-121230000D02*
X138900000Y-121600000D01*
X125600000Y-121600000D02*
X118300000Y-114300000D01*
X138900000Y-121600000D02*
X125600000Y-121600000D01*
%TO.N,/GPIO14*%
X138870000Y-119237500D02*
X138870000Y-120730000D01*
X138870000Y-120730000D02*
X138600000Y-121000000D01*
X119450001Y-112910001D02*
X118300000Y-111760000D01*
X119450001Y-114350001D02*
X119450001Y-112910001D01*
X126100000Y-121000000D02*
X119450001Y-114350001D01*
X138600000Y-121000000D02*
X126100000Y-121000000D01*
%TO.N,/GPIO13*%
X138470000Y-119237500D02*
X138470000Y-120229990D01*
X138099990Y-120600000D02*
X126265698Y-120600000D01*
X138470000Y-120229990D02*
X138099990Y-120600000D01*
X126265698Y-120600000D02*
X122200000Y-116534302D01*
X122200000Y-110580000D02*
X118300000Y-106680000D01*
X122200000Y-116534302D02*
X122200000Y-110580000D01*
%TO.N,/GPIO12*%
X138070000Y-119237500D02*
X138070000Y-119829990D01*
X137799990Y-120100000D02*
X126331396Y-120100000D01*
X138070000Y-119829990D02*
X137799990Y-120100000D01*
X126331396Y-120100000D02*
X122600010Y-116368614D01*
X122600010Y-108440010D02*
X118300000Y-104140000D01*
X122600010Y-116368614D02*
X122600010Y-108440010D01*
%TO.N,/GPIO11*%
X134262002Y-118400000D02*
X136000000Y-118400000D01*
X118300000Y-102437998D02*
X134262002Y-118400000D01*
X118300000Y-101600000D02*
X118300000Y-102437998D01*
X136000000Y-118400000D02*
X135100000Y-118400000D01*
X137232500Y-118400000D02*
X136000000Y-118400000D01*
%TO.N,/GPIO10*%
X118300000Y-99897998D02*
X118300000Y-99060000D01*
X119450001Y-100210001D02*
X118300000Y-99060000D01*
X119450001Y-102350001D02*
X119450001Y-101649999D01*
X135100000Y-118000000D02*
X119450001Y-102350001D01*
X137232500Y-118000000D02*
X135100000Y-118000000D01*
X119450001Y-101649999D02*
X119450001Y-100210001D01*
X119450001Y-101850001D02*
X119450001Y-101649999D01*
%TO.N,/GPIO9*%
X121300000Y-96980000D02*
X118300000Y-93980000D01*
X121300000Y-102332300D02*
X121300000Y-102300000D01*
X121300000Y-101200000D02*
X121300000Y-96980000D01*
X121300000Y-102300000D02*
X121300000Y-101200000D01*
X135400000Y-117600000D02*
X121300000Y-103500000D01*
X121300000Y-103500000D02*
X121300000Y-103000000D01*
X137232500Y-117600000D02*
X135400000Y-117600000D01*
X121300000Y-103000000D02*
X121300000Y-101200000D01*
X121300000Y-103134302D02*
X121300000Y-103000000D01*
%TO.N,/GPIO8*%
X119450001Y-92590001D02*
X118300000Y-91440000D01*
X119450001Y-94250001D02*
X119450001Y-92590001D01*
X121700010Y-96500010D02*
X119450001Y-94250001D01*
X135634302Y-117200000D02*
X121700010Y-103265708D01*
X121700010Y-103265708D02*
X121700010Y-102800010D01*
X137232500Y-117200000D02*
X135634302Y-117200000D01*
X121700010Y-102800010D02*
X121700010Y-96500010D01*
X121700010Y-102968614D02*
X121700010Y-102800010D01*
%TO.N,/GPIO7*%
X122100020Y-95300020D02*
X120200000Y-93400000D01*
X120200000Y-90800000D02*
X118300000Y-88900000D01*
X120200000Y-93400000D02*
X120200000Y-90800000D01*
X122100020Y-103100020D02*
X122100020Y-102500020D01*
X137232500Y-116400000D02*
X135400000Y-116400000D01*
X135400000Y-116400000D02*
X122100020Y-103100020D01*
X122100020Y-102500020D02*
X122100020Y-95300020D01*
X122100020Y-102802926D02*
X122100020Y-102500020D01*
%TO.N,/GPIO6*%
X122500030Y-94000030D02*
X120900000Y-92400000D01*
X120900000Y-88960000D02*
X118300000Y-86360000D01*
X120900000Y-92400000D02*
X120900000Y-88960000D01*
X122500030Y-102900030D02*
X122500030Y-101799970D01*
X135600000Y-116000000D02*
X122500030Y-102900030D01*
X137232500Y-116000000D02*
X135600000Y-116000000D01*
X122500030Y-101799970D02*
X122500030Y-94000030D01*
X122500030Y-102637238D02*
X122500030Y-101799970D01*
%TO.N,/GPIO5*%
X135834301Y-115600000D02*
X136400000Y-115600000D01*
X122900040Y-102665739D02*
X135834301Y-115600000D01*
X122900040Y-93834341D02*
X122900040Y-102665739D01*
X121300010Y-92234311D02*
X122900040Y-93834341D01*
X121300010Y-87500010D02*
X121300010Y-92234311D01*
X121100000Y-87300000D02*
X121300010Y-87500010D01*
X120900000Y-87300000D02*
X121100000Y-87300000D01*
X119800000Y-82780000D02*
X119800000Y-86200000D01*
X118300000Y-81280000D02*
X119800000Y-82780000D01*
X119800000Y-86200000D02*
X120900000Y-87300000D01*
X136400000Y-115600000D02*
X136028490Y-115600000D01*
X137232500Y-115600000D02*
X136400000Y-115600000D01*
%TO.N,/GPIO4*%
X123300050Y-93668652D02*
X121700020Y-92068622D01*
X120465699Y-86100000D02*
X120265698Y-86100000D01*
X121700020Y-87334321D02*
X120465699Y-86100000D01*
X121700020Y-92068622D02*
X121700020Y-87334321D01*
X120265698Y-86100000D02*
X120265698Y-81765698D01*
X120265698Y-81765698D02*
X119400000Y-80900000D01*
X119400000Y-79840000D02*
X118300000Y-78740000D01*
X119400000Y-80900000D02*
X119400000Y-79840000D01*
X123300050Y-102500050D02*
X123300050Y-102199950D01*
X136000000Y-115200000D02*
X123300050Y-102500050D01*
X137232500Y-115200000D02*
X136000000Y-115200000D01*
X123300050Y-102199950D02*
X123300050Y-93668652D01*
X123300050Y-102305862D02*
X123300050Y-102199950D01*
%TO.N,/GPIO3*%
X122100030Y-91900030D02*
X122100030Y-86899970D01*
X123700060Y-93500060D02*
X122100030Y-91900030D01*
X120665708Y-85465648D02*
X120665708Y-77865708D01*
X122100030Y-86899970D02*
X120665708Y-85465648D01*
X119000000Y-76200000D02*
X118300000Y-76200000D01*
X120665708Y-77865708D02*
X119000000Y-76200000D01*
X123700060Y-102000060D02*
X123700060Y-101700060D01*
X137232500Y-114800000D02*
X136359886Y-114800000D01*
X123700060Y-101700060D02*
X123700060Y-93500060D01*
X123700060Y-101900060D02*
X123700060Y-101700060D01*
X123700060Y-102331458D02*
X123700060Y-101900060D01*
X136168602Y-114800000D02*
X123700060Y-102331458D01*
X137232500Y-114800000D02*
X136168602Y-114800000D01*
%TO.N,/GPIO2*%
X137232500Y-114400000D02*
X137000000Y-114400000D01*
X137232500Y-114400000D02*
X136525584Y-114400000D01*
X136334301Y-114400000D02*
X137232500Y-114400000D01*
X124100070Y-93334371D02*
X124100070Y-102165769D01*
X122665698Y-91900000D02*
X124100070Y-93334371D01*
X124100070Y-102165769D02*
X136334301Y-114400000D01*
X122665698Y-86499980D02*
X122665698Y-91900000D01*
X121100000Y-84934282D02*
X122665698Y-86499980D01*
X119700000Y-76200000D02*
X121100000Y-77600000D01*
X121100000Y-77600000D02*
X121100000Y-84934282D01*
X119700000Y-75060000D02*
X119700000Y-76200000D01*
X118300000Y-73660000D02*
X119700000Y-75060000D01*
%TO.N,/GPIO1*%
X124500080Y-93100080D02*
X123200000Y-91800000D01*
X123200000Y-91800000D02*
X123200000Y-86400000D01*
X122600000Y-85800000D02*
X122531416Y-85800000D01*
X123200000Y-86400000D02*
X122600000Y-85800000D01*
X121500010Y-84768594D02*
X121500010Y-77400010D01*
X122531416Y-85800000D02*
X121500010Y-84768594D01*
X121300000Y-77200000D02*
X121300000Y-77100000D01*
X121500010Y-77400010D02*
X121300000Y-77200000D01*
X120100010Y-75900010D02*
X120100010Y-74500010D01*
X121300000Y-77100000D02*
X120100010Y-75900010D01*
X119450001Y-73850001D02*
X119450001Y-72849999D01*
X120100010Y-74500010D02*
X119450001Y-73850001D01*
X119450001Y-72849999D02*
X119600000Y-72700000D01*
X119600000Y-69880000D02*
X118300000Y-68580000D01*
X119600000Y-72700000D02*
X119600000Y-69880000D01*
X124500080Y-102000080D02*
X124500080Y-101500080D01*
X136500000Y-114000000D02*
X124500080Y-102000080D01*
X137232500Y-114000000D02*
X136500000Y-114000000D01*
X124500080Y-101500080D02*
X124500080Y-93100080D01*
X124500080Y-101634382D02*
X124500080Y-101500080D01*
%TO.N,/GPIO0*%
X137232500Y-113600000D02*
X136700000Y-113600000D01*
X136494990Y-113394990D02*
X136494990Y-112594990D01*
X136700000Y-113600000D02*
X136494990Y-113394990D01*
X136494990Y-112594990D02*
X125300000Y-101400000D01*
X125300000Y-101400000D02*
X125300000Y-93300000D01*
X125300000Y-93300000D02*
X123600000Y-91600000D01*
X123600000Y-86234302D02*
X122000000Y-84634302D01*
X123600000Y-91600000D02*
X123600000Y-86234302D01*
X122000000Y-77000000D02*
X120500020Y-75500020D01*
X122000000Y-84634302D02*
X122000000Y-77000000D01*
X120500020Y-75500020D02*
X120500020Y-67200020D01*
X119460020Y-67200020D02*
X118300000Y-66040000D01*
X120500020Y-67200020D02*
X119460020Y-67200020D01*
%TO.N,/GPIO16*%
X142870000Y-119237500D02*
X142870000Y-122304302D01*
X144165688Y-123599990D02*
X150299990Y-123599990D01*
X142870000Y-122304302D02*
X144165688Y-123599990D01*
X154880000Y-128180000D02*
X167900000Y-128180000D01*
X150299990Y-123599990D02*
X154880000Y-128180000D01*
%TO.N,/GPIO17*%
X143270000Y-119237500D02*
X143270000Y-122070000D01*
X143270000Y-122070000D02*
X144300000Y-123100000D01*
X144300000Y-123100000D02*
X151200000Y-123100000D01*
X153740000Y-125640000D02*
X167900000Y-125640000D01*
X151200000Y-123100000D02*
X153740000Y-125640000D01*
%TO.N,/GPIO18*%
X144107500Y-118400000D02*
X145200000Y-118400000D01*
X145200000Y-118400000D02*
X147700000Y-120900000D01*
X167560000Y-120900000D02*
X167900000Y-120560000D01*
X147700000Y-120900000D02*
X167560000Y-120900000D01*
%TO.N,/GPIO19*%
X167880000Y-118000000D02*
X167900000Y-118020000D01*
X144107500Y-118000000D02*
X167880000Y-118000000D01*
%TO.N,/GPIO20*%
X160320000Y-115480000D02*
X167900000Y-115480000D01*
X158200000Y-117600000D02*
X160320000Y-115480000D01*
X144107500Y-117600000D02*
X158200000Y-117600000D01*
%TO.N,/GPIO21*%
X144107500Y-117200000D02*
X157200000Y-117200000D01*
X161460000Y-112940000D02*
X167900000Y-112940000D01*
X157200000Y-117200000D02*
X161460000Y-112940000D01*
%TO.N,/GPIO22*%
X166060000Y-109700000D02*
X167900000Y-107860000D01*
X150900000Y-116400000D02*
X151500000Y-115800000D01*
X144107500Y-116400000D02*
X150900000Y-116400000D01*
X166060000Y-109700000D02*
X162900000Y-109700000D01*
X161300000Y-111300000D02*
X151500000Y-111300000D01*
X162900000Y-109700000D02*
X161300000Y-111300000D01*
X151500000Y-115800000D02*
X151500000Y-111300000D01*
%TO.N,/GPIO26*%
X150234301Y-111800000D02*
X150299990Y-111800000D01*
X147234301Y-114800000D02*
X150234301Y-111800000D01*
X144107500Y-114800000D02*
X147234301Y-114800000D01*
X165680000Y-105320000D02*
X167900000Y-105320000D01*
X160600000Y-110400000D02*
X165680000Y-105320000D01*
%TO.N,/GPIO27*%
X144107500Y-114400000D02*
X144100000Y-114400000D01*
X152734301Y-107200000D02*
X155200000Y-107200000D01*
X145534301Y-114400000D02*
X152734301Y-107200000D01*
X144100000Y-114400000D02*
X145534301Y-114400000D01*
%TO.N,/GPIO28*%
X146401626Y-111798374D02*
X154100000Y-104100000D01*
X144422460Y-111798374D02*
X146401626Y-111798374D01*
X167860000Y-100200000D02*
X167900000Y-100240000D01*
X165300000Y-100200000D02*
X167860000Y-100200000D01*
X143015454Y-114000000D02*
X144107500Y-114000000D01*
X142826833Y-113811379D02*
X143015454Y-114000000D01*
D21*
%TO.N,Net-(R6-Pad2)*%
X126820000Y-129950000D02*
X134780000Y-129950000D01*
D22*
X115174990Y-118304990D02*
X126820000Y-129950000D01*
X115174990Y-66925008D02*
X115174990Y-118304990D01*
X117999998Y-64100000D02*
X115174990Y-66925008D01*
X121287500Y-64100000D02*
X117999998Y-64100000D01*
%TO.N,/QSPI_SS*%
X127495000Y-88000000D02*
X127495000Y-89105000D01*
X127495000Y-89105000D02*
X124500000Y-86110000D01*
X124500000Y-86110000D02*
X124500000Y-65487500D01*
X127495000Y-90795000D02*
X127495000Y-88000000D01*
X131600000Y-97400000D02*
X131600000Y-94900000D01*
X133700000Y-99500000D02*
X131600000Y-97400000D01*
X131600000Y-94900000D02*
X127495000Y-90795000D01*
X137000000Y-105100000D02*
X133700000Y-101800000D01*
X133700000Y-101800000D02*
X133700000Y-99500000D01*
X137000000Y-108965698D02*
X137000000Y-105100000D01*
X137900000Y-109865698D02*
X137000000Y-108965698D01*
X137900000Y-112192500D02*
X137900000Y-109865698D01*
X138070000Y-112362500D02*
X137900000Y-112192500D01*
X126587500Y-67575000D02*
X124406250Y-65393750D01*
X126587500Y-68200000D02*
X126587500Y-67575000D01*
X124406250Y-65393750D02*
X123112500Y-64100000D01*
X124500000Y-65487500D02*
X124406250Y-65393750D01*
%TO.N,/GIO25*%
X160367500Y-72530000D02*
X160367500Y-77867500D01*
X160367500Y-77867500D02*
X163200000Y-80700000D01*
X163200000Y-100336002D02*
X160000000Y-103536002D01*
X163200000Y-80700000D02*
X163200000Y-100336002D01*
X160000000Y-103536002D02*
X160000000Y-104400000D01*
X150999990Y-114899990D02*
X151099990Y-114999990D01*
X150999990Y-109500010D02*
X150999990Y-114899990D01*
X151099990Y-114999990D02*
X147600010Y-114999990D01*
X147600010Y-114999990D02*
X147400000Y-115200000D01*
X144800000Y-115200000D02*
X144107500Y-115200000D01*
X147400000Y-115200000D02*
X144800000Y-115200000D01*
X145100000Y-115200000D02*
X144800000Y-115200000D01*
X154899990Y-109500010D02*
X155850000Y-108550000D01*
X150999990Y-109500010D02*
X154899990Y-109500010D01*
X155850000Y-108550000D02*
X155700000Y-108700000D01*
X160000000Y-104400000D02*
X155850000Y-108550000D01*
%TO.N,/QSPI_SD3*%
X128765000Y-80000000D02*
X130765000Y-78000000D01*
X128765000Y-80800000D02*
X128765000Y-80000000D01*
X130765000Y-78000000D02*
X135000000Y-78000000D01*
X135000000Y-78000000D02*
X136400000Y-79400000D01*
X136400000Y-79400000D02*
X136400000Y-90800000D01*
X136400000Y-90800000D02*
X137800000Y-92200000D01*
X137800000Y-92200000D02*
X137800000Y-99500000D01*
X137800000Y-99500000D02*
X139200000Y-100900000D01*
X139200000Y-100900000D02*
X139200000Y-108100000D01*
X140070000Y-108970000D02*
X140070000Y-112362500D01*
X139200000Y-108100000D02*
X140070000Y-108970000D01*
%TO.N,/QSPI_SCLK*%
X138800000Y-108265698D02*
X138800000Y-101065698D01*
X139670000Y-109135698D02*
X138800000Y-108265698D01*
X139670000Y-112362500D02*
X139670000Y-109135698D01*
X137400000Y-99665698D02*
X137400000Y-92365698D01*
X138800000Y-101065698D02*
X137400000Y-99665698D01*
X137400000Y-92365698D02*
X135999990Y-90965689D01*
X135999990Y-90965689D02*
X135999990Y-79565688D01*
X134834302Y-78400000D02*
X130930698Y-78400000D01*
X135999990Y-79565688D02*
X134834302Y-78400000D01*
X130035000Y-79295698D02*
X130035000Y-80800000D01*
X130930698Y-78400000D02*
X130035000Y-79295698D01*
%TO.N,/QSPI_SD0*%
X139270000Y-109301396D02*
X139270000Y-112362500D01*
X131400000Y-79100000D02*
X134900000Y-79100000D01*
X134900000Y-79100000D02*
X135599980Y-79799980D01*
X135599980Y-79799980D02*
X135599980Y-91199980D01*
X131305000Y-79195000D02*
X131400000Y-79100000D01*
X136900000Y-92500000D02*
X136900000Y-97900000D01*
X136999990Y-97999990D02*
X136999990Y-99831387D01*
X135599980Y-91199980D02*
X136900000Y-92500000D01*
X136900000Y-97900000D02*
X136999990Y-97999990D01*
X136999990Y-99831387D02*
X137234312Y-100065708D01*
X138399990Y-101231386D02*
X138399990Y-108431387D01*
X137234312Y-100065708D02*
X138399990Y-101231386D01*
X131305000Y-80800000D02*
X131305000Y-79195000D01*
X138399990Y-108431387D02*
X139270000Y-109301396D01*
%TO.N,/QSPI_SD2*%
X130035000Y-89435000D02*
X130035000Y-88000000D01*
X134500000Y-96065699D02*
X134500000Y-93900000D01*
X136599980Y-98165679D02*
X134500000Y-96065699D01*
X134500000Y-93900000D02*
X130035000Y-89435000D01*
X137999980Y-101397074D02*
X136599980Y-99997076D01*
X136599980Y-99997076D02*
X136599980Y-98165679D01*
X137999980Y-108597076D02*
X137999980Y-101397074D01*
X138870000Y-109467094D02*
X137999980Y-108597076D01*
X138870000Y-112362500D02*
X138870000Y-109467094D01*
%TO.N,/QSPI_SD1*%
X128765000Y-88000000D02*
X128765000Y-89865000D01*
X128765000Y-89865000D02*
X133600000Y-94700000D01*
X133600000Y-94700000D02*
X133600000Y-97100000D01*
X133600000Y-97100000D02*
X135200000Y-98700000D01*
X135200000Y-98700000D02*
X135200000Y-100100000D01*
X135200000Y-100100000D02*
X137500000Y-102400000D01*
X137500000Y-102400000D02*
X137500000Y-108900000D01*
X137500000Y-108900000D02*
X138400000Y-109800000D01*
X138470000Y-111270000D02*
X138470000Y-112362500D01*
X138400000Y-111200000D02*
X138470000Y-111270000D01*
X138400000Y-109800000D02*
X138400000Y-111200000D01*
%TO.N,/SWCLK*%
X141670000Y-118273954D02*
X141553536Y-118157490D01*
X141670000Y-119237500D02*
X141670000Y-118273954D01*
%TO.N,/SWD*%
X142070000Y-119237500D02*
X142070000Y-118630000D01*
X142500000Y-118200000D02*
X143000000Y-118200000D01*
X142070000Y-118630000D02*
X142500000Y-118200000D01*
%TD*%
M02*
