%TF.GenerationSoftware,KiCad,Pcbnew,(5.1.12)-1*%
%TF.CreationDate,2026-01-09T19:54:51+05:30*%
%TF.ProjectId,Aniket_Board,416e696b-6574-45f4-926f-6172642e6b69,rev?*%
%TF.SameCoordinates,Original*%
%TF.FileFunction,Legend,Top*%
%TF.FilePolarity,Positive*%
%FSLAX46Y46*%
G04 Gerber Fmt 4.6, Leading zero omitted, Abs format (unit mm)*
G04 Created by KiCad (PCBNEW (5.1.12)-1) date 2026-01-09 19:54:51*
%MOMM*%
%LPD*%
G01*
G04 APERTURE LIST*
%ADD10C,0.150000*%
%ADD11C,0.300000*%
%ADD12C,0.500000*%
%ADD13C,0.120000*%
G04 APERTURE END LIST*
D10*
X140047619Y-133652380D02*
X139714285Y-133176190D01*
X139476190Y-133652380D02*
X139476190Y-132652380D01*
X139857142Y-132652380D01*
X139952380Y-132700000D01*
X140000000Y-132747619D01*
X140047619Y-132842857D01*
X140047619Y-132985714D01*
X140000000Y-133080952D01*
X139952380Y-133128571D01*
X139857142Y-133176190D01*
X139476190Y-133176190D01*
X140476190Y-133128571D02*
X140809523Y-133128571D01*
X140952380Y-133652380D02*
X140476190Y-133652380D01*
X140476190Y-132652380D01*
X140952380Y-132652380D01*
X141333333Y-133604761D02*
X141476190Y-133652380D01*
X141714285Y-133652380D01*
X141809523Y-133604761D01*
X141857142Y-133557142D01*
X141904761Y-133461904D01*
X141904761Y-133366666D01*
X141857142Y-133271428D01*
X141809523Y-133223809D01*
X141714285Y-133176190D01*
X141523809Y-133128571D01*
X141428571Y-133080952D01*
X141380952Y-133033333D01*
X141333333Y-132938095D01*
X141333333Y-132842857D01*
X141380952Y-132747619D01*
X141428571Y-132700000D01*
X141523809Y-132652380D01*
X141761904Y-132652380D01*
X141904761Y-132700000D01*
X142333333Y-133128571D02*
X142666666Y-133128571D01*
X142809523Y-133652380D02*
X142333333Y-133652380D01*
X142333333Y-132652380D01*
X142809523Y-132652380D01*
X143095238Y-132652380D02*
X143666666Y-132652380D01*
X143380952Y-133652380D02*
X143380952Y-132652380D01*
X129742857Y-133128571D02*
X129885714Y-133176190D01*
X129933333Y-133223809D01*
X129980952Y-133319047D01*
X129980952Y-133461904D01*
X129933333Y-133557142D01*
X129885714Y-133604761D01*
X129790476Y-133652380D01*
X129409523Y-133652380D01*
X129409523Y-132652380D01*
X129742857Y-132652380D01*
X129838095Y-132700000D01*
X129885714Y-132747619D01*
X129933333Y-132842857D01*
X129933333Y-132938095D01*
X129885714Y-133033333D01*
X129838095Y-133080952D01*
X129742857Y-133128571D01*
X129409523Y-133128571D01*
X130600000Y-132652380D02*
X130790476Y-132652380D01*
X130885714Y-132700000D01*
X130980952Y-132795238D01*
X131028571Y-132985714D01*
X131028571Y-133319047D01*
X130980952Y-133509523D01*
X130885714Y-133604761D01*
X130790476Y-133652380D01*
X130600000Y-133652380D01*
X130504761Y-133604761D01*
X130409523Y-133509523D01*
X130361904Y-133319047D01*
X130361904Y-132985714D01*
X130409523Y-132795238D01*
X130504761Y-132700000D01*
X130600000Y-132652380D01*
X131647619Y-132652380D02*
X131838095Y-132652380D01*
X131933333Y-132700000D01*
X132028571Y-132795238D01*
X132076190Y-132985714D01*
X132076190Y-133319047D01*
X132028571Y-133509523D01*
X131933333Y-133604761D01*
X131838095Y-133652380D01*
X131647619Y-133652380D01*
X131552380Y-133604761D01*
X131457142Y-133509523D01*
X131409523Y-133319047D01*
X131409523Y-132985714D01*
X131457142Y-132795238D01*
X131552380Y-132700000D01*
X131647619Y-132652380D01*
X132361904Y-132652380D02*
X132933333Y-132652380D01*
X132647619Y-133652380D02*
X132647619Y-132652380D01*
X164709523Y-122452380D02*
X164233333Y-122452380D01*
X164185714Y-122928571D01*
X164233333Y-122880952D01*
X164328571Y-122833333D01*
X164566666Y-122833333D01*
X164661904Y-122880952D01*
X164709523Y-122928571D01*
X164757142Y-123023809D01*
X164757142Y-123261904D01*
X164709523Y-123357142D01*
X164661904Y-123404761D01*
X164566666Y-123452380D01*
X164328571Y-123452380D01*
X164233333Y-123404761D01*
X164185714Y-123357142D01*
X165042857Y-122452380D02*
X165376190Y-123452380D01*
X165709523Y-122452380D01*
X164509523Y-110152380D02*
X164033333Y-110152380D01*
X163985714Y-110628571D01*
X164033333Y-110580952D01*
X164128571Y-110533333D01*
X164366666Y-110533333D01*
X164461904Y-110580952D01*
X164509523Y-110628571D01*
X164557142Y-110723809D01*
X164557142Y-110961904D01*
X164509523Y-111057142D01*
X164461904Y-111104761D01*
X164366666Y-111152380D01*
X164128571Y-111152380D01*
X164033333Y-111104761D01*
X163985714Y-111057142D01*
X164842857Y-110152380D02*
X165176190Y-111152380D01*
X165509523Y-110152380D01*
X164038095Y-107447619D02*
X164085714Y-107400000D01*
X164180952Y-107352380D01*
X164419047Y-107352380D01*
X164514285Y-107400000D01*
X164561904Y-107447619D01*
X164609523Y-107542857D01*
X164609523Y-107638095D01*
X164561904Y-107780952D01*
X163990476Y-108352380D01*
X164609523Y-108352380D01*
X164990476Y-107447619D02*
X165038095Y-107400000D01*
X165133333Y-107352380D01*
X165371428Y-107352380D01*
X165466666Y-107400000D01*
X165514285Y-107447619D01*
X165561904Y-107542857D01*
X165561904Y-107638095D01*
X165514285Y-107780952D01*
X164942857Y-108352380D01*
X165561904Y-108352380D01*
X162623809Y-89952380D02*
X163242857Y-89952380D01*
X162909523Y-90333333D01*
X163052380Y-90333333D01*
X163147619Y-90380952D01*
X163195238Y-90428571D01*
X163242857Y-90523809D01*
X163242857Y-90761904D01*
X163195238Y-90857142D01*
X163147619Y-90904761D01*
X163052380Y-90952380D01*
X162766666Y-90952380D01*
X162671428Y-90904761D01*
X162623809Y-90857142D01*
X163671428Y-90857142D02*
X163719047Y-90904761D01*
X163671428Y-90952380D01*
X163623809Y-90904761D01*
X163671428Y-90857142D01*
X163671428Y-90952380D01*
X164052380Y-89952380D02*
X164671428Y-89952380D01*
X164338095Y-90333333D01*
X164480952Y-90333333D01*
X164576190Y-90380952D01*
X164623809Y-90428571D01*
X164671428Y-90523809D01*
X164671428Y-90761904D01*
X164623809Y-90857142D01*
X164576190Y-90904761D01*
X164480952Y-90952380D01*
X164195238Y-90952380D01*
X164100000Y-90904761D01*
X164052380Y-90857142D01*
X164957142Y-89952380D02*
X165290476Y-90952380D01*
X165623809Y-89952380D01*
X164709523Y-92352380D02*
X164233333Y-92352380D01*
X164185714Y-92828571D01*
X164233333Y-92780952D01*
X164328571Y-92733333D01*
X164566666Y-92733333D01*
X164661904Y-92780952D01*
X164709523Y-92828571D01*
X164757142Y-92923809D01*
X164757142Y-93161904D01*
X164709523Y-93257142D01*
X164661904Y-93304761D01*
X164566666Y-93352380D01*
X164328571Y-93352380D01*
X164233333Y-93304761D01*
X164185714Y-93257142D01*
X165042857Y-92352380D02*
X165376190Y-93352380D01*
X165709523Y-92352380D01*
X162923809Y-94652380D02*
X163542857Y-94652380D01*
X163209523Y-95033333D01*
X163352380Y-95033333D01*
X163447619Y-95080952D01*
X163495238Y-95128571D01*
X163542857Y-95223809D01*
X163542857Y-95461904D01*
X163495238Y-95557142D01*
X163447619Y-95604761D01*
X163352380Y-95652380D01*
X163066666Y-95652380D01*
X162971428Y-95604761D01*
X162923809Y-95557142D01*
X163971428Y-95557142D02*
X164019047Y-95604761D01*
X163971428Y-95652380D01*
X163923809Y-95604761D01*
X163971428Y-95557142D01*
X163971428Y-95652380D01*
X164352380Y-94652380D02*
X164971428Y-94652380D01*
X164638095Y-95033333D01*
X164780952Y-95033333D01*
X164876190Y-95080952D01*
X164923809Y-95128571D01*
X164971428Y-95223809D01*
X164971428Y-95461904D01*
X164923809Y-95557142D01*
X164876190Y-95604761D01*
X164780952Y-95652380D01*
X164495238Y-95652380D01*
X164400000Y-95604761D01*
X164352380Y-95557142D01*
X165257142Y-94652380D02*
X165590476Y-95652380D01*
X165923809Y-94652380D01*
X164709523Y-97152380D02*
X164233333Y-97152380D01*
X164185714Y-97628571D01*
X164233333Y-97580952D01*
X164328571Y-97533333D01*
X164566666Y-97533333D01*
X164661904Y-97580952D01*
X164709523Y-97628571D01*
X164757142Y-97723809D01*
X164757142Y-97961904D01*
X164709523Y-98057142D01*
X164661904Y-98104761D01*
X164566666Y-98152380D01*
X164328571Y-98152380D01*
X164233333Y-98104761D01*
X164185714Y-98057142D01*
X165042857Y-97152380D02*
X165376190Y-98152380D01*
X165709523Y-97152380D01*
X164185714Y-100466666D02*
X164661904Y-100466666D01*
X164090476Y-100752380D02*
X164423809Y-99752380D01*
X164757142Y-100752380D01*
X165042857Y-99847619D02*
X165090476Y-99800000D01*
X165185714Y-99752380D01*
X165423809Y-99752380D01*
X165519047Y-99800000D01*
X165566666Y-99847619D01*
X165614285Y-99942857D01*
X165614285Y-100038095D01*
X165566666Y-100180952D01*
X164995238Y-100752380D01*
X165614285Y-100752380D01*
X164085714Y-103066666D02*
X164561904Y-103066666D01*
X163990476Y-103352380D02*
X164323809Y-102352380D01*
X164657142Y-103352380D01*
X165514285Y-103352380D02*
X164942857Y-103352380D01*
X165228571Y-103352380D02*
X165228571Y-102352380D01*
X165133333Y-102495238D01*
X165038095Y-102590476D01*
X164942857Y-102638095D01*
X164085714Y-105666666D02*
X164561904Y-105666666D01*
X163990476Y-105952380D02*
X164323809Y-104952380D01*
X164657142Y-105952380D01*
X165180952Y-104952380D02*
X165276190Y-104952380D01*
X165371428Y-105000000D01*
X165419047Y-105047619D01*
X165466666Y-105142857D01*
X165514285Y-105333333D01*
X165514285Y-105571428D01*
X165466666Y-105761904D01*
X165419047Y-105857142D01*
X165371428Y-105904761D01*
X165276190Y-105952380D01*
X165180952Y-105952380D01*
X165085714Y-105904761D01*
X165038095Y-105857142D01*
X164990476Y-105761904D01*
X164942857Y-105571428D01*
X164942857Y-105333333D01*
X164990476Y-105142857D01*
X165038095Y-105047619D01*
X165085714Y-105000000D01*
X165180952Y-104952380D01*
X163838095Y-112347619D02*
X163885714Y-112300000D01*
X163980952Y-112252380D01*
X164219047Y-112252380D01*
X164314285Y-112300000D01*
X164361904Y-112347619D01*
X164409523Y-112442857D01*
X164409523Y-112538095D01*
X164361904Y-112680952D01*
X163790476Y-113252380D01*
X164409523Y-113252380D01*
X165361904Y-113252380D02*
X164790476Y-113252380D01*
X165076190Y-113252380D02*
X165076190Y-112252380D01*
X164980952Y-112395238D01*
X164885714Y-112490476D01*
X164790476Y-112538095D01*
X163838095Y-115047619D02*
X163885714Y-115000000D01*
X163980952Y-114952380D01*
X164219047Y-114952380D01*
X164314285Y-115000000D01*
X164361904Y-115047619D01*
X164409523Y-115142857D01*
X164409523Y-115238095D01*
X164361904Y-115380952D01*
X163790476Y-115952380D01*
X164409523Y-115952380D01*
X165028571Y-114952380D02*
X165123809Y-114952380D01*
X165219047Y-115000000D01*
X165266666Y-115047619D01*
X165314285Y-115142857D01*
X165361904Y-115333333D01*
X165361904Y-115571428D01*
X165314285Y-115761904D01*
X165266666Y-115857142D01*
X165219047Y-115904761D01*
X165123809Y-115952380D01*
X165028571Y-115952380D01*
X164933333Y-115904761D01*
X164885714Y-115857142D01*
X164838095Y-115761904D01*
X164790476Y-115571428D01*
X164790476Y-115333333D01*
X164838095Y-115142857D01*
X164885714Y-115047619D01*
X164933333Y-115000000D01*
X165028571Y-114952380D01*
X164409523Y-118452380D02*
X163838095Y-118452380D01*
X164123809Y-118452380D02*
X164123809Y-117452380D01*
X164028571Y-117595238D01*
X163933333Y-117690476D01*
X163838095Y-117738095D01*
X164885714Y-118452380D02*
X165076190Y-118452380D01*
X165171428Y-118404761D01*
X165219047Y-118357142D01*
X165314285Y-118214285D01*
X165361904Y-118023809D01*
X165361904Y-117642857D01*
X165314285Y-117547619D01*
X165266666Y-117500000D01*
X165171428Y-117452380D01*
X164980952Y-117452380D01*
X164885714Y-117500000D01*
X164838095Y-117547619D01*
X164790476Y-117642857D01*
X164790476Y-117880952D01*
X164838095Y-117976190D01*
X164885714Y-118023809D01*
X164980952Y-118071428D01*
X165171428Y-118071428D01*
X165266666Y-118023809D01*
X165314285Y-117976190D01*
X165361904Y-117880952D01*
X164509523Y-121152380D02*
X163938095Y-121152380D01*
X164223809Y-121152380D02*
X164223809Y-120152380D01*
X164128571Y-120295238D01*
X164033333Y-120390476D01*
X163938095Y-120438095D01*
X165080952Y-120580952D02*
X164985714Y-120533333D01*
X164938095Y-120485714D01*
X164890476Y-120390476D01*
X164890476Y-120342857D01*
X164938095Y-120247619D01*
X164985714Y-120200000D01*
X165080952Y-120152380D01*
X165271428Y-120152380D01*
X165366666Y-120200000D01*
X165414285Y-120247619D01*
X165461904Y-120342857D01*
X165461904Y-120390476D01*
X165414285Y-120485714D01*
X165366666Y-120533333D01*
X165271428Y-120580952D01*
X165080952Y-120580952D01*
X164985714Y-120628571D01*
X164938095Y-120676190D01*
X164890476Y-120771428D01*
X164890476Y-120961904D01*
X164938095Y-121057142D01*
X164985714Y-121104761D01*
X165080952Y-121152380D01*
X165271428Y-121152380D01*
X165366666Y-121104761D01*
X165414285Y-121057142D01*
X165461904Y-120961904D01*
X165461904Y-120771428D01*
X165414285Y-120676190D01*
X165366666Y-120628571D01*
X165271428Y-120580952D01*
X164709523Y-126052380D02*
X164138095Y-126052380D01*
X164423809Y-126052380D02*
X164423809Y-125052380D01*
X164328571Y-125195238D01*
X164233333Y-125290476D01*
X164138095Y-125338095D01*
X165042857Y-125052380D02*
X165709523Y-125052380D01*
X165280952Y-126052380D01*
X164809523Y-128652380D02*
X164238095Y-128652380D01*
X164523809Y-128652380D02*
X164523809Y-127652380D01*
X164428571Y-127795238D01*
X164333333Y-127890476D01*
X164238095Y-127938095D01*
X165666666Y-127652380D02*
X165476190Y-127652380D01*
X165380952Y-127700000D01*
X165333333Y-127747619D01*
X165238095Y-127890476D01*
X165190476Y-128080952D01*
X165190476Y-128461904D01*
X165238095Y-128557142D01*
X165285714Y-128604761D01*
X165380952Y-128652380D01*
X165571428Y-128652380D01*
X165666666Y-128604761D01*
X165714285Y-128557142D01*
X165761904Y-128461904D01*
X165761904Y-128223809D01*
X165714285Y-128128571D01*
X165666666Y-128080952D01*
X165571428Y-128033333D01*
X165380952Y-128033333D01*
X165285714Y-128080952D01*
X165238095Y-128128571D01*
X165190476Y-128223809D01*
X114609523Y-114952380D02*
X114038095Y-114952380D01*
X114323809Y-114952380D02*
X114323809Y-113952380D01*
X114228571Y-114095238D01*
X114133333Y-114190476D01*
X114038095Y-114238095D01*
X115514285Y-113952380D02*
X115038095Y-113952380D01*
X114990476Y-114428571D01*
X115038095Y-114380952D01*
X115133333Y-114333333D01*
X115371428Y-114333333D01*
X115466666Y-114380952D01*
X115514285Y-114428571D01*
X115561904Y-114523809D01*
X115561904Y-114761904D01*
X115514285Y-114857142D01*
X115466666Y-114904761D01*
X115371428Y-114952380D01*
X115133333Y-114952380D01*
X115038095Y-114904761D01*
X114990476Y-114857142D01*
X114609523Y-112452380D02*
X114038095Y-112452380D01*
X114323809Y-112452380D02*
X114323809Y-111452380D01*
X114228571Y-111595238D01*
X114133333Y-111690476D01*
X114038095Y-111738095D01*
X115466666Y-111785714D02*
X115466666Y-112452380D01*
X115228571Y-111404761D02*
X114990476Y-112119047D01*
X115609523Y-112119047D01*
X113838095Y-109000000D02*
X113742857Y-108952380D01*
X113600000Y-108952380D01*
X113457142Y-109000000D01*
X113361904Y-109095238D01*
X113314285Y-109190476D01*
X113266666Y-109380952D01*
X113266666Y-109523809D01*
X113314285Y-109714285D01*
X113361904Y-109809523D01*
X113457142Y-109904761D01*
X113600000Y-109952380D01*
X113695238Y-109952380D01*
X113838095Y-109904761D01*
X113885714Y-109857142D01*
X113885714Y-109523809D01*
X113695238Y-109523809D01*
X114314285Y-109952380D02*
X114314285Y-108952380D01*
X114885714Y-109952380D01*
X114885714Y-108952380D01*
X115361904Y-109952380D02*
X115361904Y-108952380D01*
X115600000Y-108952380D01*
X115742857Y-109000000D01*
X115838095Y-109095238D01*
X115885714Y-109190476D01*
X115933333Y-109380952D01*
X115933333Y-109523809D01*
X115885714Y-109714285D01*
X115838095Y-109809523D01*
X115742857Y-109904761D01*
X115600000Y-109952380D01*
X115361904Y-109952380D01*
X114409523Y-107252380D02*
X113838095Y-107252380D01*
X114123809Y-107252380D02*
X114123809Y-106252380D01*
X114028571Y-106395238D01*
X113933333Y-106490476D01*
X113838095Y-106538095D01*
X114742857Y-106252380D02*
X115361904Y-106252380D01*
X115028571Y-106633333D01*
X115171428Y-106633333D01*
X115266666Y-106680952D01*
X115314285Y-106728571D01*
X115361904Y-106823809D01*
X115361904Y-107061904D01*
X115314285Y-107157142D01*
X115266666Y-107204761D01*
X115171428Y-107252380D01*
X114885714Y-107252380D01*
X114790476Y-107204761D01*
X114742857Y-107157142D01*
X114509523Y-104552380D02*
X113938095Y-104552380D01*
X114223809Y-104552380D02*
X114223809Y-103552380D01*
X114128571Y-103695238D01*
X114033333Y-103790476D01*
X113938095Y-103838095D01*
X114890476Y-103647619D02*
X114938095Y-103600000D01*
X115033333Y-103552380D01*
X115271428Y-103552380D01*
X115366666Y-103600000D01*
X115414285Y-103647619D01*
X115461904Y-103742857D01*
X115461904Y-103838095D01*
X115414285Y-103980952D01*
X114842857Y-104552380D01*
X115461904Y-104552380D01*
X114609523Y-102152380D02*
X114038095Y-102152380D01*
X114323809Y-102152380D02*
X114323809Y-101152380D01*
X114228571Y-101295238D01*
X114133333Y-101390476D01*
X114038095Y-101438095D01*
X115561904Y-102152380D02*
X114990476Y-102152380D01*
X115276190Y-102152380D02*
X115276190Y-101152380D01*
X115180952Y-101295238D01*
X115085714Y-101390476D01*
X114990476Y-101438095D01*
X114509523Y-99752380D02*
X113938095Y-99752380D01*
X114223809Y-99752380D02*
X114223809Y-98752380D01*
X114128571Y-98895238D01*
X114033333Y-98990476D01*
X113938095Y-99038095D01*
X115128571Y-98752380D02*
X115223809Y-98752380D01*
X115319047Y-98800000D01*
X115366666Y-98847619D01*
X115414285Y-98942857D01*
X115461904Y-99133333D01*
X115461904Y-99371428D01*
X115414285Y-99561904D01*
X115366666Y-99657142D01*
X115319047Y-99704761D01*
X115223809Y-99752380D01*
X115128571Y-99752380D01*
X115033333Y-99704761D01*
X114985714Y-99657142D01*
X114938095Y-99561904D01*
X114890476Y-99371428D01*
X114890476Y-99133333D01*
X114938095Y-98942857D01*
X114985714Y-98847619D01*
X115033333Y-98800000D01*
X115128571Y-98752380D01*
X113738095Y-96200000D02*
X113642857Y-96152380D01*
X113500000Y-96152380D01*
X113357142Y-96200000D01*
X113261904Y-96295238D01*
X113214285Y-96390476D01*
X113166666Y-96580952D01*
X113166666Y-96723809D01*
X113214285Y-96914285D01*
X113261904Y-97009523D01*
X113357142Y-97104761D01*
X113500000Y-97152380D01*
X113595238Y-97152380D01*
X113738095Y-97104761D01*
X113785714Y-97057142D01*
X113785714Y-96723809D01*
X113595238Y-96723809D01*
X114214285Y-97152380D02*
X114214285Y-96152380D01*
X114785714Y-97152380D01*
X114785714Y-96152380D01*
X115261904Y-97152380D02*
X115261904Y-96152380D01*
X115500000Y-96152380D01*
X115642857Y-96200000D01*
X115738095Y-96295238D01*
X115785714Y-96390476D01*
X115833333Y-96580952D01*
X115833333Y-96723809D01*
X115785714Y-96914285D01*
X115738095Y-97009523D01*
X115642857Y-97104761D01*
X115500000Y-97152380D01*
X115261904Y-97152380D01*
X114709523Y-94452380D02*
X114900000Y-94452380D01*
X114995238Y-94404761D01*
X115042857Y-94357142D01*
X115138095Y-94214285D01*
X115185714Y-94023809D01*
X115185714Y-93642857D01*
X115138095Y-93547619D01*
X115090476Y-93500000D01*
X114995238Y-93452380D01*
X114804761Y-93452380D01*
X114709523Y-93500000D01*
X114661904Y-93547619D01*
X114614285Y-93642857D01*
X114614285Y-93880952D01*
X114661904Y-93976190D01*
X114709523Y-94023809D01*
X114804761Y-94071428D01*
X114995238Y-94071428D01*
X115090476Y-94023809D01*
X115138095Y-93976190D01*
X115185714Y-93880952D01*
X114804761Y-91680952D02*
X114709523Y-91633333D01*
X114661904Y-91585714D01*
X114614285Y-91490476D01*
X114614285Y-91442857D01*
X114661904Y-91347619D01*
X114709523Y-91300000D01*
X114804761Y-91252380D01*
X114995238Y-91252380D01*
X115090476Y-91300000D01*
X115138095Y-91347619D01*
X115185714Y-91442857D01*
X115185714Y-91490476D01*
X115138095Y-91585714D01*
X115090476Y-91633333D01*
X114995238Y-91680952D01*
X114804761Y-91680952D01*
X114709523Y-91728571D01*
X114661904Y-91776190D01*
X114614285Y-91871428D01*
X114614285Y-92061904D01*
X114661904Y-92157142D01*
X114709523Y-92204761D01*
X114804761Y-92252380D01*
X114995238Y-92252380D01*
X115090476Y-92204761D01*
X115138095Y-92157142D01*
X115185714Y-92061904D01*
X115185714Y-91871428D01*
X115138095Y-91776190D01*
X115090476Y-91728571D01*
X114995238Y-91680952D01*
X114566666Y-88752380D02*
X115233333Y-88752380D01*
X114804761Y-89752380D01*
X115090476Y-86052380D02*
X114900000Y-86052380D01*
X114804761Y-86100000D01*
X114757142Y-86147619D01*
X114661904Y-86290476D01*
X114614285Y-86480952D01*
X114614285Y-86861904D01*
X114661904Y-86957142D01*
X114709523Y-87004761D01*
X114804761Y-87052380D01*
X114995238Y-87052380D01*
X115090476Y-87004761D01*
X115138095Y-86957142D01*
X115185714Y-86861904D01*
X115185714Y-86623809D01*
X115138095Y-86528571D01*
X115090476Y-86480952D01*
X114995238Y-86433333D01*
X114804761Y-86433333D01*
X114709523Y-86480952D01*
X114661904Y-86528571D01*
X114614285Y-86623809D01*
X114138095Y-83600000D02*
X114042857Y-83552380D01*
X113900000Y-83552380D01*
X113757142Y-83600000D01*
X113661904Y-83695238D01*
X113614285Y-83790476D01*
X113566666Y-83980952D01*
X113566666Y-84123809D01*
X113614285Y-84314285D01*
X113661904Y-84409523D01*
X113757142Y-84504761D01*
X113900000Y-84552380D01*
X113995238Y-84552380D01*
X114138095Y-84504761D01*
X114185714Y-84457142D01*
X114185714Y-84123809D01*
X113995238Y-84123809D01*
X114614285Y-84552380D02*
X114614285Y-83552380D01*
X115185714Y-84552380D01*
X115185714Y-83552380D01*
X115661904Y-84552380D02*
X115661904Y-83552380D01*
X115900000Y-83552380D01*
X116042857Y-83600000D01*
X116138095Y-83695238D01*
X116185714Y-83790476D01*
X116233333Y-83980952D01*
X116233333Y-84123809D01*
X116185714Y-84314285D01*
X116138095Y-84409523D01*
X116042857Y-84504761D01*
X115900000Y-84552380D01*
X115661904Y-84552380D01*
X115438095Y-80752380D02*
X114961904Y-80752380D01*
X114914285Y-81228571D01*
X114961904Y-81180952D01*
X115057142Y-81133333D01*
X115295238Y-81133333D01*
X115390476Y-81180952D01*
X115438095Y-81228571D01*
X115485714Y-81323809D01*
X115485714Y-81561904D01*
X115438095Y-81657142D01*
X115390476Y-81704761D01*
X115295238Y-81752380D01*
X115057142Y-81752380D01*
X114961904Y-81704761D01*
X114914285Y-81657142D01*
X115190476Y-78585714D02*
X115190476Y-79252380D01*
X114952380Y-78204761D02*
X114714285Y-78919047D01*
X115333333Y-78919047D01*
X114814285Y-73147619D02*
X114861904Y-73100000D01*
X114957142Y-73052380D01*
X115195238Y-73052380D01*
X115290476Y-73100000D01*
X115338095Y-73147619D01*
X115385714Y-73242857D01*
X115385714Y-73338095D01*
X115338095Y-73480952D01*
X114766666Y-74052380D01*
X115385714Y-74052380D01*
X114766666Y-75652380D02*
X115385714Y-75652380D01*
X115052380Y-76033333D01*
X115195238Y-76033333D01*
X115290476Y-76080952D01*
X115338095Y-76128571D01*
X115385714Y-76223809D01*
X115385714Y-76461904D01*
X115338095Y-76557142D01*
X115290476Y-76604761D01*
X115195238Y-76652380D01*
X114909523Y-76652380D01*
X114814285Y-76604761D01*
X114766666Y-76557142D01*
X114138095Y-70700000D02*
X114042857Y-70652380D01*
X113900000Y-70652380D01*
X113757142Y-70700000D01*
X113661904Y-70795238D01*
X113614285Y-70890476D01*
X113566666Y-71080952D01*
X113566666Y-71223809D01*
X113614285Y-71414285D01*
X113661904Y-71509523D01*
X113757142Y-71604761D01*
X113900000Y-71652380D01*
X113995238Y-71652380D01*
X114138095Y-71604761D01*
X114185714Y-71557142D01*
X114185714Y-71223809D01*
X113995238Y-71223809D01*
X114614285Y-71652380D02*
X114614285Y-70652380D01*
X115185714Y-71652380D01*
X115185714Y-70652380D01*
X115661904Y-71652380D02*
X115661904Y-70652380D01*
X115900000Y-70652380D01*
X116042857Y-70700000D01*
X116138095Y-70795238D01*
X116185714Y-70890476D01*
X116233333Y-71080952D01*
X116233333Y-71223809D01*
X116185714Y-71414285D01*
X116138095Y-71509523D01*
X116042857Y-71604761D01*
X115900000Y-71652380D01*
X115661904Y-71652380D01*
X115385714Y-68952380D02*
X114814285Y-68952380D01*
X115100000Y-68952380D02*
X115100000Y-67952380D01*
X115004761Y-68095238D01*
X114909523Y-68190476D01*
X114814285Y-68238095D01*
X115052380Y-65452380D02*
X115147619Y-65452380D01*
X115242857Y-65500000D01*
X115290476Y-65547619D01*
X115338095Y-65642857D01*
X115385714Y-65833333D01*
X115385714Y-66071428D01*
X115338095Y-66261904D01*
X115290476Y-66357142D01*
X115242857Y-66404761D01*
X115147619Y-66452380D01*
X115052380Y-66452380D01*
X114957142Y-66404761D01*
X114909523Y-66357142D01*
X114861904Y-66261904D01*
X114814285Y-66071428D01*
X114814285Y-65833333D01*
X114861904Y-65642857D01*
X114909523Y-65547619D01*
X114957142Y-65500000D01*
X115052380Y-65452380D01*
D11*
X179093928Y-71478571D02*
X179281428Y-69978571D01*
X179852857Y-69978571D01*
X179986785Y-70050000D01*
X180049285Y-70121428D01*
X180102857Y-70264285D01*
X180076071Y-70478571D01*
X179986785Y-70621428D01*
X179906428Y-70692857D01*
X179754642Y-70764285D01*
X179183214Y-70764285D01*
X180593928Y-71478571D02*
X180718928Y-70478571D01*
X180781428Y-69978571D02*
X180701071Y-70050000D01*
X180763571Y-70121428D01*
X180843928Y-70050000D01*
X180781428Y-69978571D01*
X180763571Y-70121428D01*
D12*
X169804761Y-68133333D02*
X170757142Y-68133333D01*
X169614285Y-68704761D02*
X170280952Y-66704761D01*
X170947619Y-68704761D01*
X171614285Y-67371428D02*
X171614285Y-68704761D01*
X171614285Y-67561904D02*
X171709523Y-67466666D01*
X171900000Y-67371428D01*
X172185714Y-67371428D01*
X172376190Y-67466666D01*
X172471428Y-67657142D01*
X172471428Y-68704761D01*
X173423809Y-68704761D02*
X173423809Y-67371428D01*
X173423809Y-66704761D02*
X173328571Y-66800000D01*
X173423809Y-66895238D01*
X173519047Y-66800000D01*
X173423809Y-66704761D01*
X173423809Y-66895238D01*
X174376190Y-68704761D02*
X174376190Y-66704761D01*
X174566666Y-67942857D02*
X175138095Y-68704761D01*
X175138095Y-67371428D02*
X174376190Y-68133333D01*
X176757142Y-68609523D02*
X176566666Y-68704761D01*
X176185714Y-68704761D01*
X175995238Y-68609523D01*
X175900000Y-68419047D01*
X175900000Y-67657142D01*
X175995238Y-67466666D01*
X176185714Y-67371428D01*
X176566666Y-67371428D01*
X176757142Y-67466666D01*
X176852380Y-67657142D01*
X176852380Y-67847619D01*
X175900000Y-68038095D01*
X177423809Y-67371428D02*
X178185714Y-67371428D01*
X177709523Y-66704761D02*
X177709523Y-68419047D01*
X177804761Y-68609523D01*
X177995238Y-68704761D01*
X178185714Y-68704761D01*
D13*
%TO.C,U1*%
X137710000Y-112190000D02*
X137060000Y-112190000D01*
X144280000Y-119410000D02*
X144280000Y-118760000D01*
X143630000Y-119410000D02*
X144280000Y-119410000D01*
X137060000Y-119410000D02*
X137060000Y-118760000D01*
X137710000Y-119410000D02*
X137060000Y-119410000D01*
X144280000Y-112190000D02*
X144280000Y-112840000D01*
X143630000Y-112190000D02*
X144280000Y-112190000D01*
%TO.C,Y1*%
X150100000Y-77100000D02*
X150100000Y-80400000D01*
X150100000Y-80400000D02*
X154100000Y-80400000D01*
%TO.C,U3*%
X132125000Y-84400000D02*
X132125000Y-81675000D01*
X132125000Y-81675000D02*
X131865000Y-81675000D01*
X132125000Y-84400000D02*
X132125000Y-87125000D01*
X132125000Y-87125000D02*
X131865000Y-87125000D01*
X126675000Y-84400000D02*
X126675000Y-81675000D01*
X126675000Y-81675000D02*
X126935000Y-81675000D01*
X126675000Y-84400000D02*
X126675000Y-87125000D01*
X126675000Y-87125000D02*
X126935000Y-87125000D01*
X126935000Y-87125000D02*
X126935000Y-88800000D01*
%TO.C,SW2*%
X134030000Y-124470000D02*
X134030000Y-124500000D01*
X134030000Y-130930000D02*
X134030000Y-130900000D01*
X127570000Y-130930000D02*
X127570000Y-130900000D01*
X127570000Y-124500000D02*
X127570000Y-124470000D01*
X134030000Y-126400000D02*
X134030000Y-129000000D01*
X127570000Y-124470000D02*
X134030000Y-124470000D01*
X127570000Y-126400000D02*
X127570000Y-129000000D01*
X127570000Y-130930000D02*
X134030000Y-130930000D01*
%TO.C,R8*%
X161052936Y-71795000D02*
X161507064Y-71795000D01*
X161052936Y-73265000D02*
X161507064Y-73265000D01*
%TO.C,R7*%
X127727064Y-68935000D02*
X127272936Y-68935000D01*
X127727064Y-67465000D02*
X127272936Y-67465000D01*
%TO.C,R6*%
X122427064Y-64835000D02*
X121972936Y-64835000D01*
X122427064Y-63365000D02*
X121972936Y-63365000D01*
%TO.C,J3*%
X166570000Y-129510000D02*
X169230000Y-129510000D01*
X166570000Y-81190000D02*
X166570000Y-129510000D01*
X169230000Y-81190000D02*
X169230000Y-129510000D01*
X166570000Y-81190000D02*
X169230000Y-81190000D01*
X166570000Y-79920000D02*
X166570000Y-78590000D01*
X166570000Y-78590000D02*
X167900000Y-78590000D01*
%TO.C,J2*%
X116970000Y-115630000D02*
X119630000Y-115630000D01*
X116970000Y-67310000D02*
X116970000Y-115630000D01*
X119630000Y-67310000D02*
X119630000Y-115630000D01*
X116970000Y-67310000D02*
X119630000Y-67310000D01*
X116970000Y-66040000D02*
X116970000Y-64710000D01*
X116970000Y-64710000D02*
X118300000Y-64710000D01*
%TO.C,D1*%
X157870000Y-68665000D02*
X155185000Y-68665000D01*
X155185000Y-68665000D02*
X155185000Y-70585000D01*
X155185000Y-70585000D02*
X157870000Y-70585000D01*
%TO.C,C7*%
X152138748Y-68875000D02*
X152661252Y-68875000D01*
X152138748Y-70345000D02*
X152661252Y-70345000D01*
%TO.C,C6*%
X165488748Y-65865000D02*
X166011252Y-65865000D01*
X165488748Y-67335000D02*
X166011252Y-67335000D01*
%TO.C,C5*%
X160765000Y-83661252D02*
X160765000Y-83138748D01*
X162235000Y-83661252D02*
X162235000Y-83138748D01*
%TO.C,C4*%
X153638748Y-72565000D02*
X154161252Y-72565000D01*
X153638748Y-74035000D02*
X154161252Y-74035000D01*
%TO.C,C3*%
X143915000Y-78561252D02*
X143915000Y-78038748D01*
X145385000Y-78561252D02*
X145385000Y-78038748D01*
%TO.C,SW1*%
X138170000Y-130930000D02*
X144630000Y-130930000D01*
X138170000Y-126400000D02*
X138170000Y-129000000D01*
X138170000Y-124470000D02*
X144630000Y-124470000D01*
X144630000Y-126400000D02*
X144630000Y-129000000D01*
X138170000Y-124500000D02*
X138170000Y-124470000D01*
X138170000Y-130930000D02*
X138170000Y-130900000D01*
X144630000Y-130930000D02*
X144630000Y-130900000D01*
X144630000Y-124470000D02*
X144630000Y-124500000D01*
%TO.C,R5*%
X150372936Y-129935000D02*
X150827064Y-129935000D01*
X150372936Y-128465000D02*
X150827064Y-128465000D01*
%TO.C,C2*%
X155588748Y-103535000D02*
X156111252Y-103535000D01*
X155588748Y-102065000D02*
X156111252Y-102065000D01*
%TO.C,C1*%
X173838748Y-92735000D02*
X174361252Y-92735000D01*
X173838748Y-91265000D02*
X174361252Y-91265000D01*
%TO.C,R4*%
X186427064Y-103265000D02*
X185972936Y-103265000D01*
X186427064Y-104735000D02*
X185972936Y-104735000D01*
%TO.C,R3*%
X174427064Y-97135000D02*
X173972936Y-97135000D01*
X174427064Y-95665000D02*
X173972936Y-95665000D01*
%TO.C,R2*%
X175565000Y-108627064D02*
X175565000Y-108172936D01*
X177035000Y-108627064D02*
X177035000Y-108172936D01*
%TO.C,R1*%
X180365000Y-105739564D02*
X180365000Y-105285436D01*
X181835000Y-105739564D02*
X181835000Y-105285436D01*
%TO.C,J1*%
X171500000Y-128500000D02*
X171500000Y-130400000D01*
X171500000Y-124600000D02*
X171500000Y-126600000D01*
X180900000Y-128500000D02*
X180900000Y-130400000D01*
X180900000Y-124600000D02*
X180900000Y-126600000D01*
X171500000Y-130400000D02*
X180900000Y-130400000D01*
%TO.C,U2*%
X140310000Y-83700000D02*
X140310000Y-81900000D01*
X137090000Y-81900000D02*
X137090000Y-84350000D01*
%TO.C,U1*%
D10*
X139908095Y-110432380D02*
X139908095Y-111241904D01*
X139955714Y-111337142D01*
X140003333Y-111384761D01*
X140098571Y-111432380D01*
X140289047Y-111432380D01*
X140384285Y-111384761D01*
X140431904Y-111337142D01*
X140479523Y-111241904D01*
X140479523Y-110432380D01*
X141479523Y-111432380D02*
X140908095Y-111432380D01*
X141193809Y-111432380D02*
X141193809Y-110432380D01*
X141098571Y-110575238D01*
X141003333Y-110670476D01*
X140908095Y-110718095D01*
%TO.C,Y1*%
X151623809Y-76276190D02*
X151623809Y-76752380D01*
X151290476Y-75752380D02*
X151623809Y-76276190D01*
X151957142Y-75752380D01*
X152814285Y-76752380D02*
X152242857Y-76752380D01*
X152528571Y-76752380D02*
X152528571Y-75752380D01*
X152433333Y-75895238D01*
X152338095Y-75990476D01*
X152242857Y-76038095D01*
%TO.C,U3*%
X125292380Y-85161904D02*
X126101904Y-85161904D01*
X126197142Y-85114285D01*
X126244761Y-85066666D01*
X126292380Y-84971428D01*
X126292380Y-84780952D01*
X126244761Y-84685714D01*
X126197142Y-84638095D01*
X126101904Y-84590476D01*
X125292380Y-84590476D01*
X125292380Y-84209523D02*
X125292380Y-83590476D01*
X125673333Y-83923809D01*
X125673333Y-83780952D01*
X125720952Y-83685714D01*
X125768571Y-83638095D01*
X125863809Y-83590476D01*
X126101904Y-83590476D01*
X126197142Y-83638095D01*
X126244761Y-83685714D01*
X126292380Y-83780952D01*
X126292380Y-84066666D01*
X126244761Y-84161904D01*
X126197142Y-84209523D01*
%TO.C,SW2*%
X129466666Y-124054761D02*
X129609523Y-124102380D01*
X129847619Y-124102380D01*
X129942857Y-124054761D01*
X129990476Y-124007142D01*
X130038095Y-123911904D01*
X130038095Y-123816666D01*
X129990476Y-123721428D01*
X129942857Y-123673809D01*
X129847619Y-123626190D01*
X129657142Y-123578571D01*
X129561904Y-123530952D01*
X129514285Y-123483333D01*
X129466666Y-123388095D01*
X129466666Y-123292857D01*
X129514285Y-123197619D01*
X129561904Y-123150000D01*
X129657142Y-123102380D01*
X129895238Y-123102380D01*
X130038095Y-123150000D01*
X130371428Y-123102380D02*
X130609523Y-124102380D01*
X130800000Y-123388095D01*
X130990476Y-124102380D01*
X131228571Y-123102380D01*
X131561904Y-123197619D02*
X131609523Y-123150000D01*
X131704761Y-123102380D01*
X131942857Y-123102380D01*
X132038095Y-123150000D01*
X132085714Y-123197619D01*
X132133333Y-123292857D01*
X132133333Y-123388095D01*
X132085714Y-123530952D01*
X131514285Y-124102380D01*
X132133333Y-124102380D01*
%TO.C,R8*%
X161113333Y-71332380D02*
X160780000Y-70856190D01*
X160541904Y-71332380D02*
X160541904Y-70332380D01*
X160922857Y-70332380D01*
X161018095Y-70380000D01*
X161065714Y-70427619D01*
X161113333Y-70522857D01*
X161113333Y-70665714D01*
X161065714Y-70760952D01*
X161018095Y-70808571D01*
X160922857Y-70856190D01*
X160541904Y-70856190D01*
X161684761Y-70760952D02*
X161589523Y-70713333D01*
X161541904Y-70665714D01*
X161494285Y-70570476D01*
X161494285Y-70522857D01*
X161541904Y-70427619D01*
X161589523Y-70380000D01*
X161684761Y-70332380D01*
X161875238Y-70332380D01*
X161970476Y-70380000D01*
X162018095Y-70427619D01*
X162065714Y-70522857D01*
X162065714Y-70570476D01*
X162018095Y-70665714D01*
X161970476Y-70713333D01*
X161875238Y-70760952D01*
X161684761Y-70760952D01*
X161589523Y-70808571D01*
X161541904Y-70856190D01*
X161494285Y-70951428D01*
X161494285Y-71141904D01*
X161541904Y-71237142D01*
X161589523Y-71284761D01*
X161684761Y-71332380D01*
X161875238Y-71332380D01*
X161970476Y-71284761D01*
X162018095Y-71237142D01*
X162065714Y-71141904D01*
X162065714Y-70951428D01*
X162018095Y-70856190D01*
X161970476Y-70808571D01*
X161875238Y-70760952D01*
%TO.C,R7*%
X127333333Y-70302380D02*
X127000000Y-69826190D01*
X126761904Y-70302380D02*
X126761904Y-69302380D01*
X127142857Y-69302380D01*
X127238095Y-69350000D01*
X127285714Y-69397619D01*
X127333333Y-69492857D01*
X127333333Y-69635714D01*
X127285714Y-69730952D01*
X127238095Y-69778571D01*
X127142857Y-69826190D01*
X126761904Y-69826190D01*
X127666666Y-69302380D02*
X128333333Y-69302380D01*
X127904761Y-70302380D01*
%TO.C,R6*%
X122033333Y-66202380D02*
X121700000Y-65726190D01*
X121461904Y-66202380D02*
X121461904Y-65202380D01*
X121842857Y-65202380D01*
X121938095Y-65250000D01*
X121985714Y-65297619D01*
X122033333Y-65392857D01*
X122033333Y-65535714D01*
X121985714Y-65630952D01*
X121938095Y-65678571D01*
X121842857Y-65726190D01*
X121461904Y-65726190D01*
X122890476Y-65202380D02*
X122700000Y-65202380D01*
X122604761Y-65250000D01*
X122557142Y-65297619D01*
X122461904Y-65440476D01*
X122414285Y-65630952D01*
X122414285Y-66011904D01*
X122461904Y-66107142D01*
X122509523Y-66154761D01*
X122604761Y-66202380D01*
X122795238Y-66202380D01*
X122890476Y-66154761D01*
X122938095Y-66107142D01*
X122985714Y-66011904D01*
X122985714Y-65773809D01*
X122938095Y-65678571D01*
X122890476Y-65630952D01*
X122795238Y-65583333D01*
X122604761Y-65583333D01*
X122509523Y-65630952D01*
X122461904Y-65678571D01*
X122414285Y-65773809D01*
%TO.C,J3*%
X167566666Y-77042380D02*
X167566666Y-77756666D01*
X167519047Y-77899523D01*
X167423809Y-77994761D01*
X167280952Y-78042380D01*
X167185714Y-78042380D01*
X167947619Y-77042380D02*
X168566666Y-77042380D01*
X168233333Y-77423333D01*
X168376190Y-77423333D01*
X168471428Y-77470952D01*
X168519047Y-77518571D01*
X168566666Y-77613809D01*
X168566666Y-77851904D01*
X168519047Y-77947142D01*
X168471428Y-77994761D01*
X168376190Y-78042380D01*
X168090476Y-78042380D01*
X167995238Y-77994761D01*
X167947619Y-77947142D01*
%TO.C,J2*%
X117966666Y-63162380D02*
X117966666Y-63876666D01*
X117919047Y-64019523D01*
X117823809Y-64114761D01*
X117680952Y-64162380D01*
X117585714Y-64162380D01*
X118395238Y-63257619D02*
X118442857Y-63210000D01*
X118538095Y-63162380D01*
X118776190Y-63162380D01*
X118871428Y-63210000D01*
X118919047Y-63257619D01*
X118966666Y-63352857D01*
X118966666Y-63448095D01*
X118919047Y-63590952D01*
X118347619Y-64162380D01*
X118966666Y-64162380D01*
%TO.C,D1*%
X156131904Y-68427380D02*
X156131904Y-67427380D01*
X156370000Y-67427380D01*
X156512857Y-67475000D01*
X156608095Y-67570238D01*
X156655714Y-67665476D01*
X156703333Y-67855952D01*
X156703333Y-67998809D01*
X156655714Y-68189285D01*
X156608095Y-68284523D01*
X156512857Y-68379761D01*
X156370000Y-68427380D01*
X156131904Y-68427380D01*
X157655714Y-68427380D02*
X157084285Y-68427380D01*
X157370000Y-68427380D02*
X157370000Y-67427380D01*
X157274761Y-67570238D01*
X157179523Y-67665476D01*
X157084285Y-67713095D01*
%TO.C,C7*%
X152233333Y-68287142D02*
X152185714Y-68334761D01*
X152042857Y-68382380D01*
X151947619Y-68382380D01*
X151804761Y-68334761D01*
X151709523Y-68239523D01*
X151661904Y-68144285D01*
X151614285Y-67953809D01*
X151614285Y-67810952D01*
X151661904Y-67620476D01*
X151709523Y-67525238D01*
X151804761Y-67430000D01*
X151947619Y-67382380D01*
X152042857Y-67382380D01*
X152185714Y-67430000D01*
X152233333Y-67477619D01*
X152566666Y-67382380D02*
X153233333Y-67382380D01*
X152804761Y-68382380D01*
%TO.C,C6*%
X165583333Y-65277142D02*
X165535714Y-65324761D01*
X165392857Y-65372380D01*
X165297619Y-65372380D01*
X165154761Y-65324761D01*
X165059523Y-65229523D01*
X165011904Y-65134285D01*
X164964285Y-64943809D01*
X164964285Y-64800952D01*
X165011904Y-64610476D01*
X165059523Y-64515238D01*
X165154761Y-64420000D01*
X165297619Y-64372380D01*
X165392857Y-64372380D01*
X165535714Y-64420000D01*
X165583333Y-64467619D01*
X166440476Y-64372380D02*
X166250000Y-64372380D01*
X166154761Y-64420000D01*
X166107142Y-64467619D01*
X166011904Y-64610476D01*
X165964285Y-64800952D01*
X165964285Y-65181904D01*
X166011904Y-65277142D01*
X166059523Y-65324761D01*
X166154761Y-65372380D01*
X166345238Y-65372380D01*
X166440476Y-65324761D01*
X166488095Y-65277142D01*
X166535714Y-65181904D01*
X166535714Y-64943809D01*
X166488095Y-64848571D01*
X166440476Y-64800952D01*
X166345238Y-64753333D01*
X166154761Y-64753333D01*
X166059523Y-64800952D01*
X166011904Y-64848571D01*
X165964285Y-64943809D01*
%TO.C,C5*%
X160177142Y-83566666D02*
X160224761Y-83614285D01*
X160272380Y-83757142D01*
X160272380Y-83852380D01*
X160224761Y-83995238D01*
X160129523Y-84090476D01*
X160034285Y-84138095D01*
X159843809Y-84185714D01*
X159700952Y-84185714D01*
X159510476Y-84138095D01*
X159415238Y-84090476D01*
X159320000Y-83995238D01*
X159272380Y-83852380D01*
X159272380Y-83757142D01*
X159320000Y-83614285D01*
X159367619Y-83566666D01*
X159272380Y-82661904D02*
X159272380Y-83138095D01*
X159748571Y-83185714D01*
X159700952Y-83138095D01*
X159653333Y-83042857D01*
X159653333Y-82804761D01*
X159700952Y-82709523D01*
X159748571Y-82661904D01*
X159843809Y-82614285D01*
X160081904Y-82614285D01*
X160177142Y-82661904D01*
X160224761Y-82709523D01*
X160272380Y-82804761D01*
X160272380Y-83042857D01*
X160224761Y-83138095D01*
X160177142Y-83185714D01*
%TO.C,C4*%
X153733333Y-71977142D02*
X153685714Y-72024761D01*
X153542857Y-72072380D01*
X153447619Y-72072380D01*
X153304761Y-72024761D01*
X153209523Y-71929523D01*
X153161904Y-71834285D01*
X153114285Y-71643809D01*
X153114285Y-71500952D01*
X153161904Y-71310476D01*
X153209523Y-71215238D01*
X153304761Y-71120000D01*
X153447619Y-71072380D01*
X153542857Y-71072380D01*
X153685714Y-71120000D01*
X153733333Y-71167619D01*
X154590476Y-71405714D02*
X154590476Y-72072380D01*
X154352380Y-71024761D02*
X154114285Y-71739047D01*
X154733333Y-71739047D01*
%TO.C,C3*%
X143327142Y-78466666D02*
X143374761Y-78514285D01*
X143422380Y-78657142D01*
X143422380Y-78752380D01*
X143374761Y-78895238D01*
X143279523Y-78990476D01*
X143184285Y-79038095D01*
X142993809Y-79085714D01*
X142850952Y-79085714D01*
X142660476Y-79038095D01*
X142565238Y-78990476D01*
X142470000Y-78895238D01*
X142422380Y-78752380D01*
X142422380Y-78657142D01*
X142470000Y-78514285D01*
X142517619Y-78466666D01*
X142422380Y-78133333D02*
X142422380Y-77514285D01*
X142803333Y-77847619D01*
X142803333Y-77704761D01*
X142850952Y-77609523D01*
X142898571Y-77561904D01*
X142993809Y-77514285D01*
X143231904Y-77514285D01*
X143327142Y-77561904D01*
X143374761Y-77609523D01*
X143422380Y-77704761D01*
X143422380Y-77990476D01*
X143374761Y-78085714D01*
X143327142Y-78133333D01*
%TO.C,SW1*%
X140066666Y-124054761D02*
X140209523Y-124102380D01*
X140447619Y-124102380D01*
X140542857Y-124054761D01*
X140590476Y-124007142D01*
X140638095Y-123911904D01*
X140638095Y-123816666D01*
X140590476Y-123721428D01*
X140542857Y-123673809D01*
X140447619Y-123626190D01*
X140257142Y-123578571D01*
X140161904Y-123530952D01*
X140114285Y-123483333D01*
X140066666Y-123388095D01*
X140066666Y-123292857D01*
X140114285Y-123197619D01*
X140161904Y-123150000D01*
X140257142Y-123102380D01*
X140495238Y-123102380D01*
X140638095Y-123150000D01*
X140971428Y-123102380D02*
X141209523Y-124102380D01*
X141400000Y-123388095D01*
X141590476Y-124102380D01*
X141828571Y-123102380D01*
X142733333Y-124102380D02*
X142161904Y-124102380D01*
X142447619Y-124102380D02*
X142447619Y-123102380D01*
X142352380Y-123245238D01*
X142257142Y-123340476D01*
X142161904Y-123388095D01*
%TO.C,R5*%
X150433333Y-128002380D02*
X150100000Y-127526190D01*
X149861904Y-128002380D02*
X149861904Y-127002380D01*
X150242857Y-127002380D01*
X150338095Y-127050000D01*
X150385714Y-127097619D01*
X150433333Y-127192857D01*
X150433333Y-127335714D01*
X150385714Y-127430952D01*
X150338095Y-127478571D01*
X150242857Y-127526190D01*
X149861904Y-127526190D01*
X151338095Y-127002380D02*
X150861904Y-127002380D01*
X150814285Y-127478571D01*
X150861904Y-127430952D01*
X150957142Y-127383333D01*
X151195238Y-127383333D01*
X151290476Y-127430952D01*
X151338095Y-127478571D01*
X151385714Y-127573809D01*
X151385714Y-127811904D01*
X151338095Y-127907142D01*
X151290476Y-127954761D01*
X151195238Y-128002380D01*
X150957142Y-128002380D01*
X150861904Y-127954761D01*
X150814285Y-127907142D01*
%TO.C,C2*%
X155683333Y-101477142D02*
X155635714Y-101524761D01*
X155492857Y-101572380D01*
X155397619Y-101572380D01*
X155254761Y-101524761D01*
X155159523Y-101429523D01*
X155111904Y-101334285D01*
X155064285Y-101143809D01*
X155064285Y-101000952D01*
X155111904Y-100810476D01*
X155159523Y-100715238D01*
X155254761Y-100620000D01*
X155397619Y-100572380D01*
X155492857Y-100572380D01*
X155635714Y-100620000D01*
X155683333Y-100667619D01*
X156064285Y-100667619D02*
X156111904Y-100620000D01*
X156207142Y-100572380D01*
X156445238Y-100572380D01*
X156540476Y-100620000D01*
X156588095Y-100667619D01*
X156635714Y-100762857D01*
X156635714Y-100858095D01*
X156588095Y-101000952D01*
X156016666Y-101572380D01*
X156635714Y-101572380D01*
%TO.C,C1*%
X173933333Y-90677142D02*
X173885714Y-90724761D01*
X173742857Y-90772380D01*
X173647619Y-90772380D01*
X173504761Y-90724761D01*
X173409523Y-90629523D01*
X173361904Y-90534285D01*
X173314285Y-90343809D01*
X173314285Y-90200952D01*
X173361904Y-90010476D01*
X173409523Y-89915238D01*
X173504761Y-89820000D01*
X173647619Y-89772380D01*
X173742857Y-89772380D01*
X173885714Y-89820000D01*
X173933333Y-89867619D01*
X174885714Y-90772380D02*
X174314285Y-90772380D01*
X174600000Y-90772380D02*
X174600000Y-89772380D01*
X174504761Y-89915238D01*
X174409523Y-90010476D01*
X174314285Y-90058095D01*
%TO.C,R4*%
X186033333Y-106102380D02*
X185700000Y-105626190D01*
X185461904Y-106102380D02*
X185461904Y-105102380D01*
X185842857Y-105102380D01*
X185938095Y-105150000D01*
X185985714Y-105197619D01*
X186033333Y-105292857D01*
X186033333Y-105435714D01*
X185985714Y-105530952D01*
X185938095Y-105578571D01*
X185842857Y-105626190D01*
X185461904Y-105626190D01*
X186890476Y-105435714D02*
X186890476Y-106102380D01*
X186652380Y-105054761D02*
X186414285Y-105769047D01*
X187033333Y-105769047D01*
%TO.C,R3*%
X174033333Y-98502380D02*
X173700000Y-98026190D01*
X173461904Y-98502380D02*
X173461904Y-97502380D01*
X173842857Y-97502380D01*
X173938095Y-97550000D01*
X173985714Y-97597619D01*
X174033333Y-97692857D01*
X174033333Y-97835714D01*
X173985714Y-97930952D01*
X173938095Y-97978571D01*
X173842857Y-98026190D01*
X173461904Y-98026190D01*
X174366666Y-97502380D02*
X174985714Y-97502380D01*
X174652380Y-97883333D01*
X174795238Y-97883333D01*
X174890476Y-97930952D01*
X174938095Y-97978571D01*
X174985714Y-98073809D01*
X174985714Y-98311904D01*
X174938095Y-98407142D01*
X174890476Y-98454761D01*
X174795238Y-98502380D01*
X174509523Y-98502380D01*
X174414285Y-98454761D01*
X174366666Y-98407142D01*
%TO.C,R2*%
X175102380Y-108566666D02*
X174626190Y-108900000D01*
X175102380Y-109138095D02*
X174102380Y-109138095D01*
X174102380Y-108757142D01*
X174150000Y-108661904D01*
X174197619Y-108614285D01*
X174292857Y-108566666D01*
X174435714Y-108566666D01*
X174530952Y-108614285D01*
X174578571Y-108661904D01*
X174626190Y-108757142D01*
X174626190Y-109138095D01*
X174197619Y-108185714D02*
X174150000Y-108138095D01*
X174102380Y-108042857D01*
X174102380Y-107804761D01*
X174150000Y-107709523D01*
X174197619Y-107661904D01*
X174292857Y-107614285D01*
X174388095Y-107614285D01*
X174530952Y-107661904D01*
X175102380Y-108233333D01*
X175102380Y-107614285D01*
%TO.C,R1*%
X179902380Y-105679166D02*
X179426190Y-106012500D01*
X179902380Y-106250595D02*
X178902380Y-106250595D01*
X178902380Y-105869642D01*
X178950000Y-105774404D01*
X178997619Y-105726785D01*
X179092857Y-105679166D01*
X179235714Y-105679166D01*
X179330952Y-105726785D01*
X179378571Y-105774404D01*
X179426190Y-105869642D01*
X179426190Y-106250595D01*
X179902380Y-104726785D02*
X179902380Y-105298214D01*
X179902380Y-105012500D02*
X178902380Y-105012500D01*
X179045238Y-105107738D01*
X179140476Y-105202976D01*
X179188095Y-105298214D01*
%TO.C,J1*%
X175866666Y-120307380D02*
X175866666Y-121021666D01*
X175819047Y-121164523D01*
X175723809Y-121259761D01*
X175580952Y-121307380D01*
X175485714Y-121307380D01*
X176866666Y-121307380D02*
X176295238Y-121307380D01*
X176580952Y-121307380D02*
X176580952Y-120307380D01*
X176485714Y-120450238D01*
X176390476Y-120545476D01*
X176295238Y-120593095D01*
%TO.C,U2*%
X135252380Y-83561904D02*
X136061904Y-83561904D01*
X136157142Y-83514285D01*
X136204761Y-83466666D01*
X136252380Y-83371428D01*
X136252380Y-83180952D01*
X136204761Y-83085714D01*
X136157142Y-83038095D01*
X136061904Y-82990476D01*
X135252380Y-82990476D01*
X135347619Y-82561904D02*
X135300000Y-82514285D01*
X135252380Y-82419047D01*
X135252380Y-82180952D01*
X135300000Y-82085714D01*
X135347619Y-82038095D01*
X135442857Y-81990476D01*
X135538095Y-81990476D01*
X135680952Y-82038095D01*
X136252380Y-82609523D01*
X136252380Y-81990476D01*
%TD*%
M02*
