%TF.GenerationSoftware,KiCad,Pcbnew,(5.1.12)-1*%
%TF.CreationDate,2026-01-09T19:54:51+05:30*%
%TF.ProjectId,Aniket_Board,416e696b-6574-45f4-926f-6172642e6b69,rev?*%
%TF.SameCoordinates,Original*%
%TF.FileFunction,Profile,NP*%
%FSLAX46Y46*%
G04 Gerber Fmt 4.6, Leading zero omitted, Abs format (unit mm)*
G04 Created by KiCad (PCBNEW (5.1.12)-1) date 2026-01-09 19:54:51*
%MOMM*%
%LPD*%
G01*
G04 APERTURE LIST*
%TA.AperFunction,Profile*%
%ADD10C,0.050000*%
%TD*%
G04 APERTURE END LIST*
D10*
X110000000Y-134100000D02*
X189900000Y-134100000D01*
X108100000Y-132200000D02*
X108100000Y-130100000D01*
X191800000Y-132200000D02*
X191800000Y-130100000D01*
X115800000Y-61200000D02*
X109900000Y-61200000D01*
X125600000Y-61200000D02*
X115800000Y-61200000D01*
X140000000Y-61200000D02*
X125600000Y-61200000D01*
X151700000Y-61200000D02*
X140000000Y-61200000D01*
X164000000Y-61200000D02*
X151700000Y-61200000D01*
X178300000Y-61200000D02*
X164000000Y-61200000D01*
X189800000Y-61200000D02*
X178300000Y-61200000D01*
X110000000Y-134100000D02*
G75*
G02*
X108100000Y-132200000I0J1900000D01*
G01*
X108100000Y-97400000D02*
X108000000Y-80600000D01*
X108000000Y-80600000D02*
X108100000Y-65900000D01*
X108100000Y-65900000D02*
X108000000Y-63100000D01*
X108100000Y-130100000D02*
X108000000Y-113200000D01*
X108000000Y-63100000D02*
G75*
G02*
X109900000Y-61200000I1900000J0D01*
G01*
X108000000Y-113200000D02*
X108100000Y-97400000D01*
X191700000Y-127300000D02*
X191800000Y-130100000D01*
X191800000Y-112600000D02*
X191700000Y-127300000D01*
X191700000Y-95800000D02*
X191800000Y-112600000D01*
X191800000Y-80000000D02*
X191700000Y-95800000D01*
X191700000Y-63100000D02*
X191800000Y-80000000D01*
X191800000Y-132200000D02*
G75*
G02*
X189900000Y-134100000I-1900000J0D01*
G01*
X189800000Y-61200000D02*
G75*
G02*
X191700000Y-63100000I0J-1900000D01*
G01*
M02*
