%TF.GenerationSoftware,KiCad,Pcbnew,(5.1.12)-1*%
%TF.CreationDate,2026-01-09T19:54:51+05:30*%
%TF.ProjectId,Aniket_Board,416e696b-6574-45f4-926f-6172642e6b69,rev?*%
%TF.SameCoordinates,Original*%
%TF.FileFunction,Soldermask,Bot*%
%TF.FilePolarity,Negative*%
%FSLAX46Y46*%
G04 Gerber Fmt 4.6, Leading zero omitted, Abs format (unit mm)*
G04 Created by KiCad (PCBNEW (5.1.12)-1) date 2026-01-09 19:54:51*
%MOMM*%
%LPD*%
G01*
G04 APERTURE LIST*
%ADD10R,1.700000X1.700000*%
%ADD11O,1.700000X1.700000*%
%ADD12O,1.000000X2.100000*%
%ADD13C,0.650000*%
%ADD14O,1.000000X1.600000*%
G04 APERTURE END LIST*
D10*
%TO.C,J4*%
X112100000Y-124200000D03*
D11*
X114640000Y-124200000D03*
X117180000Y-124200000D03*
%TD*%
%TO.C,J3*%
X167900000Y-128180000D03*
X167900000Y-125640000D03*
X167900000Y-123100000D03*
X167900000Y-120560000D03*
X167900000Y-118020000D03*
X167900000Y-115480000D03*
X167900000Y-112940000D03*
X167900000Y-110400000D03*
X167900000Y-107860000D03*
X167900000Y-105320000D03*
X167900000Y-102780000D03*
X167900000Y-100240000D03*
X167900000Y-97700000D03*
X167900000Y-95160000D03*
X167900000Y-92620000D03*
X167900000Y-90080000D03*
X167900000Y-87540000D03*
X167900000Y-85000000D03*
X167900000Y-82460000D03*
D10*
X167900000Y-79920000D03*
%TD*%
D11*
%TO.C,J2*%
X118300000Y-114300000D03*
X118300000Y-111760000D03*
X118300000Y-109220000D03*
X118300000Y-106680000D03*
X118300000Y-104140000D03*
X118300000Y-101600000D03*
X118300000Y-99060000D03*
X118300000Y-96520000D03*
X118300000Y-93980000D03*
X118300000Y-91440000D03*
X118300000Y-88900000D03*
X118300000Y-86360000D03*
X118300000Y-83820000D03*
X118300000Y-81280000D03*
X118300000Y-78740000D03*
X118300000Y-76200000D03*
X118300000Y-73660000D03*
X118300000Y-71120000D03*
X118300000Y-68580000D03*
D10*
X118300000Y-66040000D03*
%TD*%
D12*
%TO.C,J1*%
X180520000Y-123370000D03*
X171880000Y-123370000D03*
D13*
X173310000Y-123900000D03*
D14*
X171880000Y-127550000D03*
D13*
X179090000Y-123900000D03*
D14*
X180520000Y-127550000D03*
%TD*%
M02*
