%TF.GenerationSoftware,KiCad,Pcbnew,(5.1.12)-1*%
%TF.CreationDate,2026-01-09T19:54:51+05:30*%
%TF.ProjectId,Aniket_Board,416e696b-6574-45f4-926f-6172642e6b69,rev?*%
%TF.SameCoordinates,Original*%
%TF.FileFunction,Copper,L2,Bot*%
%TF.FilePolarity,Positive*%
%FSLAX46Y46*%
G04 Gerber Fmt 4.6, Leading zero omitted, Abs format (unit mm)*
G04 Created by KiCad (PCBNEW (5.1.12)-1) date 2026-01-09 19:54:51*
%MOMM*%
%LPD*%
G01*
G04 APERTURE LIST*
%TA.AperFunction,ComponentPad*%
%ADD10C,0.600000*%
%TD*%
%TA.AperFunction,ComponentPad*%
%ADD11R,1.700000X1.700000*%
%TD*%
%TA.AperFunction,ComponentPad*%
%ADD12O,1.700000X1.700000*%
%TD*%
%TA.AperFunction,ComponentPad*%
%ADD13O,1.000000X2.100000*%
%TD*%
%TA.AperFunction,ComponentPad*%
%ADD14O,1.000000X1.600000*%
%TD*%
%TA.AperFunction,ViaPad*%
%ADD15C,0.800000*%
%TD*%
%TA.AperFunction,Conductor*%
%ADD16C,0.200000*%
%TD*%
G04 APERTURE END LIST*
D10*
%TO.P,U1,57*%
%TO.N,GND*%
X139395000Y-114525000D03*
X140670000Y-114525000D03*
X141945000Y-114525000D03*
X139395000Y-115800000D03*
X140670000Y-115800000D03*
X141945000Y-115800000D03*
X139395000Y-117075000D03*
X140670000Y-117075000D03*
X141945000Y-117075000D03*
%TD*%
D11*
%TO.P,J4,1*%
%TO.N,/SWD*%
X112100000Y-124200000D03*
D12*
%TO.P,J4,2*%
%TO.N,GND*%
X114640000Y-124200000D03*
%TO.P,J4,3*%
%TO.N,/SWCLK*%
X117180000Y-124200000D03*
%TD*%
%TO.P,J3,20*%
%TO.N,/GPIO16*%
X167900000Y-128180000D03*
%TO.P,J3,19*%
%TO.N,/GPIO17*%
X167900000Y-125640000D03*
%TO.P,J3,18*%
%TO.N,/+5v*%
X167900000Y-123100000D03*
%TO.P,J3,17*%
%TO.N,/GPIO18*%
X167900000Y-120560000D03*
%TO.P,J3,16*%
%TO.N,/GPIO19*%
X167900000Y-118020000D03*
%TO.P,J3,15*%
%TO.N,/GPIO20*%
X167900000Y-115480000D03*
%TO.P,J3,14*%
%TO.N,/GPIO21*%
X167900000Y-112940000D03*
%TO.P,J3,13*%
%TO.N,/+5v*%
X167900000Y-110400000D03*
%TO.P,J3,12*%
%TO.N,/GPIO22*%
X167900000Y-107860000D03*
%TO.P,J3,11*%
%TO.N,/GPIO26*%
X167900000Y-105320000D03*
%TO.P,J3,10*%
%TO.N,/GPIO27*%
X167900000Y-102780000D03*
%TO.P,J3,9*%
%TO.N,/GPIO28*%
X167900000Y-100240000D03*
%TO.P,J3,8*%
%TO.N,/+5v*%
X167900000Y-97700000D03*
%TO.P,J3,7*%
%TO.N,/+3.3v*%
X167900000Y-95160000D03*
%TO.P,J3,6*%
%TO.N,/+5v*%
X167900000Y-92620000D03*
%TO.P,J3,5*%
%TO.N,/+3.3v*%
X167900000Y-90080000D03*
%TO.P,J3,4*%
%TO.N,Net-(J3-Pad4)*%
X167900000Y-87540000D03*
%TO.P,J3,3*%
%TO.N,Net-(J3-Pad3)*%
X167900000Y-85000000D03*
%TO.P,J3,2*%
%TO.N,Net-(J3-Pad2)*%
X167900000Y-82460000D03*
D11*
%TO.P,J3,1*%
%TO.N,Net-(J3-Pad1)*%
X167900000Y-79920000D03*
%TD*%
D12*
%TO.P,J2,20*%
%TO.N,/GPIO15*%
X118300000Y-114300000D03*
%TO.P,J2,19*%
%TO.N,/GPIO14*%
X118300000Y-111760000D03*
%TO.P,J2,18*%
%TO.N,GND*%
X118300000Y-109220000D03*
%TO.P,J2,17*%
%TO.N,/GPIO13*%
X118300000Y-106680000D03*
%TO.P,J2,16*%
%TO.N,/GPIO12*%
X118300000Y-104140000D03*
%TO.P,J2,15*%
%TO.N,/GPIO11*%
X118300000Y-101600000D03*
%TO.P,J2,14*%
%TO.N,/GPIO10*%
X118300000Y-99060000D03*
%TO.P,J2,13*%
%TO.N,GND*%
X118300000Y-96520000D03*
%TO.P,J2,12*%
%TO.N,/GPIO9*%
X118300000Y-93980000D03*
%TO.P,J2,11*%
%TO.N,/GPIO8*%
X118300000Y-91440000D03*
%TO.P,J2,10*%
%TO.N,/GPIO7*%
X118300000Y-88900000D03*
%TO.P,J2,9*%
%TO.N,/GPIO6*%
X118300000Y-86360000D03*
%TO.P,J2,8*%
%TO.N,GND*%
X118300000Y-83820000D03*
%TO.P,J2,7*%
%TO.N,/GPIO5*%
X118300000Y-81280000D03*
%TO.P,J2,6*%
%TO.N,/GPIO4*%
X118300000Y-78740000D03*
%TO.P,J2,5*%
%TO.N,/GPIO3*%
X118300000Y-76200000D03*
%TO.P,J2,4*%
%TO.N,/GPIO2*%
X118300000Y-73660000D03*
%TO.P,J2,3*%
%TO.N,GND*%
X118300000Y-71120000D03*
%TO.P,J2,2*%
%TO.N,/GPIO1*%
X118300000Y-68580000D03*
D11*
%TO.P,J2,1*%
%TO.N,/GPIO0*%
X118300000Y-66040000D03*
%TD*%
D13*
%TO.P,J1,S1*%
%TO.N,GND*%
X180520000Y-123370000D03*
X171880000Y-123370000D03*
D14*
X171880000Y-127550000D03*
X180520000Y-127550000D03*
%TD*%
D15*
%TO.N,GND*%
X147700000Y-131000000D03*
X147500000Y-127900000D03*
X137300000Y-123400000D03*
X128200000Y-85700000D03*
X134000000Y-86900000D03*
X137900000Y-85900000D03*
X156600000Y-105900000D03*
X115600000Y-121100000D03*
X117500000Y-119100000D03*
%TO.N,Net-(R1-Pad2)*%
X141170000Y-111200000D03*
X178100000Y-105500000D03*
%TO.N,Net-(R2-Pad2)*%
X142200000Y-110700000D03*
X174200000Y-107600000D03*
%TO.N,/+5v*%
X141200000Y-83700000D03*
%TO.N,/+3.3v*%
X135500000Y-74700000D03*
X130400000Y-70800000D03*
%TO.N,/XIN*%
X141800000Y-123400000D03*
X145500000Y-113200000D03*
X152500000Y-96000000D03*
X150700000Y-91900000D03*
%TO.N,/XOUT*%
X141770000Y-121500003D03*
X150200000Y-72700000D03*
%TO.N,Net-(C5-Pad1)*%
X141770000Y-120500000D03*
X140850000Y-107950000D03*
X162500000Y-67700000D03*
X159100000Y-84200000D03*
X144400000Y-101900000D03*
X141900000Y-104500000D03*
%TO.N,Net-(D1-Pad2)*%
X161900000Y-74900000D03*
X160800000Y-69400000D03*
%TO.N,/D-*%
X176300000Y-110900000D03*
X179000000Y-116800000D03*
%TO.N,/GPIO26*%
X150299990Y-111800000D03*
X160600000Y-110400000D03*
%TO.N,/GPIO27*%
X155200000Y-107200000D03*
%TO.N,/GPIO28*%
X144422460Y-111798374D03*
X154100000Y-104100000D03*
X165300000Y-100200000D03*
X142826833Y-113811379D03*
%TO.N,/SWCLK*%
X141553536Y-118157490D03*
%TO.N,/SWD*%
X143000000Y-118200000D03*
%TD*%
D16*
%TO.N,GND*%
X147700000Y-128100000D02*
X147500000Y-127900000D01*
X147700000Y-131000000D02*
X147700000Y-128100000D01*
X139395000Y-121305000D02*
X139395000Y-117075000D01*
X137300000Y-123400000D02*
X139395000Y-121305000D01*
X119390001Y-64889999D02*
X125000000Y-70499998D01*
X117209999Y-64889999D02*
X119390001Y-64889999D01*
X117149999Y-64949999D02*
X117209999Y-64889999D01*
X117149999Y-82669999D02*
X117149999Y-64949999D01*
X118300000Y-83820000D02*
X117149999Y-82669999D01*
X125000000Y-82500000D02*
X128200000Y-85700000D01*
X125000000Y-70499998D02*
X125000000Y-82500000D01*
X135000000Y-85900000D02*
X137200000Y-85900000D01*
X134000000Y-86900000D02*
X135000000Y-85900000D01*
X137200000Y-85900000D02*
X137900000Y-85900000D01*
X145338616Y-105900000D02*
X156600000Y-105900000D01*
X140469999Y-110768617D02*
X145338616Y-105900000D01*
X140469999Y-113049999D02*
X140469999Y-110768617D01*
X141945000Y-114525000D02*
X140469999Y-113049999D01*
X117500000Y-119200000D02*
X117500000Y-119100000D01*
X115600000Y-121100000D02*
X117500000Y-119200000D01*
%TO.N,Net-(R1-Pad2)*%
X142794314Y-109010001D02*
X170089999Y-109010001D01*
X141170000Y-110634315D02*
X142794314Y-109010001D01*
X141170000Y-111200000D02*
X141170000Y-110634315D01*
X170089999Y-109010001D02*
X173700000Y-105400000D01*
X178000000Y-105400000D02*
X178100000Y-105500000D01*
X173700000Y-105400000D02*
X178000000Y-105400000D01*
%TO.N,Net-(R2-Pad2)*%
X142200000Y-110700000D02*
X144700000Y-110700000D01*
X144700000Y-110700000D02*
X146600000Y-112600000D01*
X167349999Y-111550001D02*
X170549999Y-111550001D01*
X166300000Y-112600000D02*
X167349999Y-111550001D01*
X146600000Y-112600000D02*
X166300000Y-112600000D01*
X170649999Y-111550001D02*
X171200000Y-111000000D01*
X170549999Y-111550001D02*
X170649999Y-111550001D01*
X171200000Y-110600000D02*
X174200000Y-107600000D01*
X171200000Y-111000000D02*
X171200000Y-110600000D01*
%TO.N,/+5v*%
X167900000Y-97700000D02*
X164000000Y-97700000D01*
X164000000Y-97700000D02*
X156000000Y-89700000D01*
X147200000Y-89700000D02*
X141200000Y-83700000D01*
X156000000Y-89700000D02*
X147200000Y-89700000D01*
%TO.N,/+3.3v*%
X131200000Y-71600000D02*
X130400000Y-70800000D01*
X132400000Y-71600000D02*
X131200000Y-71600000D01*
X167900000Y-95160000D02*
X165160000Y-95160000D01*
X165160000Y-95160000D02*
X157000000Y-87000000D01*
X157000000Y-87000000D02*
X149800000Y-87000000D01*
X136250000Y-73450000D02*
X134250000Y-73450000D01*
X149800000Y-87000000D02*
X136250000Y-73450000D01*
X134250000Y-73450000D02*
X132400000Y-71600000D01*
X135500000Y-74700000D02*
X134250000Y-73450000D01*
%TO.N,/XIN*%
X145500000Y-119700000D02*
X145500000Y-113200000D01*
X141800000Y-123400000D02*
X145500000Y-119700000D01*
X150700000Y-94200000D02*
X150700000Y-91900000D01*
X152500000Y-96000000D02*
X150700000Y-94200000D01*
%TO.N,/XOUT*%
X130063999Y-70099999D02*
X149699999Y-70099999D01*
X129699999Y-70463999D02*
X130063999Y-70099999D01*
X129699999Y-71136001D02*
X129699999Y-70463999D01*
X132500010Y-73936012D02*
X129699999Y-71136001D01*
X132500010Y-111965689D02*
X132500010Y-73936012D01*
X132065691Y-112400008D02*
X132500010Y-111965689D01*
X127034293Y-112400008D02*
X132065691Y-112400008D01*
X125699990Y-113734311D02*
X127034293Y-112400008D01*
X125699990Y-114065689D02*
X125699990Y-113734311D01*
X135734302Y-124100001D02*
X125699990Y-114065689D01*
X139170002Y-124100001D02*
X135734302Y-124100001D01*
X141770000Y-121500003D02*
X139170002Y-124100001D01*
X150200000Y-70600000D02*
X150200000Y-72700000D01*
X149699999Y-70099999D02*
X150200000Y-70600000D01*
%TO.N,Net-(C5-Pad1)*%
X140069989Y-108730011D02*
X140850000Y-107950000D01*
X140069989Y-118799989D02*
X140069989Y-108730011D01*
X141770000Y-120500000D02*
X140069989Y-118799989D01*
X159100000Y-70063998D02*
X159100000Y-84200000D01*
X161463998Y-67700000D02*
X159100000Y-70063998D01*
X162500000Y-67700000D02*
X161463998Y-67700000D01*
X141900000Y-104400000D02*
X141900000Y-104500000D01*
X144400000Y-101900000D02*
X141900000Y-104400000D01*
%TO.N,Net-(D1-Pad2)*%
X160800000Y-73800000D02*
X160800000Y-69400000D01*
X161900000Y-74900000D02*
X160800000Y-73800000D01*
%TO.N,/D-*%
X176300000Y-110900000D02*
X176300000Y-113500000D01*
X179000000Y-116200000D02*
X179000000Y-116800000D01*
X176300000Y-113500000D02*
X179000000Y-116200000D01*
%TO.N,/GPIO26*%
X150299990Y-111800000D02*
X159700000Y-111800000D01*
X159700000Y-111300000D02*
X160600000Y-110400000D01*
X159700000Y-111800000D02*
X159700000Y-111300000D01*
%TO.N,/GPIO27*%
X163480000Y-107200000D02*
X167900000Y-102780000D01*
X155200000Y-107200000D02*
X163480000Y-107200000D01*
%TO.N,/GPIO28*%
X158000000Y-100200000D02*
X165300000Y-100200000D01*
X154100000Y-104100000D02*
X158000000Y-100200000D01*
X143200000Y-113438212D02*
X142826833Y-113811379D01*
X143200000Y-113020834D02*
X143200000Y-113438212D01*
X144422460Y-111798374D02*
X143200000Y-113020834D01*
%TO.N,/SWCLK*%
X116029999Y-123049999D02*
X117180000Y-124200000D01*
X111009999Y-123049999D02*
X116029999Y-123049999D01*
X110949999Y-123109999D02*
X111009999Y-123049999D01*
X110949999Y-125290001D02*
X110949999Y-123109999D01*
X111410009Y-125750011D02*
X110949999Y-125290001D01*
X140485991Y-125750011D02*
X111410009Y-125750011D01*
X146200001Y-120036001D02*
X140485991Y-125750011D01*
X146200001Y-112863999D02*
X146200001Y-120036001D01*
X145836001Y-112499999D02*
X146200001Y-112863999D01*
X145163999Y-112499999D02*
X145836001Y-112499999D01*
X144799999Y-112863999D02*
X145163999Y-112499999D01*
X144799999Y-115108003D02*
X144799999Y-112863999D01*
X141750512Y-118157490D02*
X144799999Y-115108003D01*
X141553536Y-118157490D02*
X141750512Y-118157490D01*
%TO.N,/SWD*%
X113250001Y-125350001D02*
X112100000Y-124200000D01*
X138485700Y-125350001D02*
X113250001Y-125350001D01*
X141535701Y-122300000D02*
X138485700Y-125350001D01*
X142006005Y-122300000D02*
X141535701Y-122300000D01*
X143000000Y-121306005D02*
X142006005Y-122300000D01*
X143000000Y-118200000D02*
X143000000Y-121306005D01*
%TD*%
M02*
